<mxfile host="65bd71144e">
    <diagram name="페이지-1" id="SPmD3t-ShsnG2ngJLnCo">
        <mxGraphModel dx="1794" dy="1190" grid="0" gridSize="10" guides="1" tooltips="1" connect="1" arrows="1" fold="1" page="1" pageScale="1" pageWidth="1169" pageHeight="827" math="0" shadow="0">
            <root>
                <mxCell id="0"/>
                <mxCell id="1" parent="0"/>
                <mxCell id="A81RwFwUyYRlChPBO0ci-154" value="" style="shape=image;verticalLabelPosition=bottom;labelBackgroundColor=default;verticalAlign=top;aspect=fixed;imageAspect=0;image=data:image/png,iVBORw0KGgoAAAANSUhEUgAACG0AAAOxCAYAAABFL8jaAAAAAXNSR0IArs4c6QAAAARnQU1BAACxjwv8YQUAAAAJcEhZcwAAFiUAABYlAUlSJPAAAMMQSURBVHhe7P1tzCRbYhd45gN3aVgvRsKyx2Be1lfbLjz2qm1jbFS+hU2pr6okJGO0QlqEQPYH0GBZRa/UVMnakpC85ZWqhma6zMg2L4stS0MvHxA99pe6Tatkq65Lcq/Bjdws4jbXmA8WWoNZCYaV6fHtZ/tfT5zurKyIyIjMiIyX/P2ko4qsJzMyMjIiMuKcf5xzcfkFGwAAAAAAAAAATuql0MYHP/jBza/+6q9Wjzab3/f7ft/m9ddfrx4BAABD+s3f/M3NP/2n/7R6dOU7vuM7qikAAAAAAJbs53/+56upK3/9r//1zV/4C3+henTlpdDG+973vs3nPve56hEAAAAAAAAAAEP4wAc+sPn0pz9dPbry26p/AQAAAAAAAAA4IaENAAAAAAAAAIAJvDQ8yu/6Xb/rxbjaxW//7b99874v/B8AADC8//Vz/+sXyn+tHl35Xf/bL9tc/LaL6hEAAAAAAEv1//tf/pdq6sof+2N/bPOpT32qenTlpdDGtWvXNu+88071aLP51j9xc/ORj/1M9QgAABjSP/zbP7L50R/6werRlY89/8zm9//hr60eAQAAAACwRJ9/773Nn/xDX149unLnzp3N48ePq0dXDI8CAAAAAAAAADABoQ0AAAAAAAAAgAkIbQAAAAAAAAAATEBoAwAAAAAAAABgAkIbAAAAAAAAAAATENoAAAAAAAAAAJiA0AYAAAAAAAAAwASENgAAAAAAAAAAJiC0AQAAAAAAAAAwAaENAAAAAAAAAIAJCG0AAAAAAAAAAExAaAMAAAAAAAAAYAJCGwAAAAAAAAAAExDaAAAAAAAAAACYgNAGAAAAAAAAAMAEhDYAAAAAAAAAACYgtAEAAAAAAAAAMAGhDQAAAAAAAACACQhtAAAAAAAAAABMQGgDAAAAAAAAAGACQhsAAAAAAAAAABMQ2gAAAAAAAAAAmIDQBgAAAAAAAADABIQ2AAAAAAAAAAAmILQBAAAAwEH+2p//05vv/Jov21t++VPPq1cAzM/HfvR/qD127ZY8D9bMvnCcnO/Ura+6AgDbhDYAAACAs1BXYV5XBAw4J3X7QF0BqFN3vKgrflthOl3DOAnjTqVueeoKwFoJbQAAAACDS+VwKn5Lqat0Tcnf8tw05mjQAQA4Tt35Vl0BAOZDaAMAAAA4WgIX2+GMH//h+5tP/ewnv1ia5G957g/8mTdflLy2hDjWquvdjqcuQjMAAABwekIbAAAAwMFKWCOBi7ZwRh8lxLH28AbL0dZbzJyK/QWWwTEFAIBtQhsAAADAQYYOa+zaDm8AAECR88OcizaFoPL/eY4QMABLILQBAAAA9JKK71SGjxXW2JXwRiregfVL49puw1tdmeqYUI5/XQoAwypBjRxjt4fiq5P/z3NKCDivEd4AYK6ENoBV65q4dsIOAADd5Nw5Fd+nlor3nMM7dwc4vT5hlTmU1PXAmOq2u1OUc5VjUOpxS1DjUMIb7cr59hQF4NwJbQCD2048l3LKYMT2+3dNXJcT9jZTfy6Ww7YCAKxVzmemCGxsm/r9AQA4ndSx5fzvmLDGrswvdXUAMBdCG8BgUoGbxum6xHMJRuQkeyx5/8z/2MT1rqk/F8thWwEA1mwOgY3CORUAwPrlnG/Iet5tqatzTgnAXAhtAIPoWoGbk+wxToaTjM77D30SP/XnYjlsKwDA2v3U44fVVHff9l0f3Px3/9cHm//xH/+Tzc/92n95qeT/UvL3vnJO5e5IAID1GjOwUainA2AuhDbOXCq5Stf9XcupT2L6LKMTrOn0qcDNyXAauIeS7z3J6DFM+blYFtsKALBmuS7rW2meMMZ//z/9z5s/9/3/l83/8duuV//7Jfm/lPw9IY6+4Y1cAyz1nKp85lOVhGcAAJbiFIGNIu+jXQGAqQlt0FtOYtzRxK6+J9GH3KVXZ+wT+Kk+F8tjWwEA1uyf/fzPVlP7JSCQoECCCX3k+el5o4/P/OIvVFMAAKzBKQMbRd5PmwcAUxLa4CBj9WrAMh1yd9sQJ9553zFP4Kf6XCyPbQUAWLM+vWwksJHeNQ6Vnjf6BDdcm3Iq2a53ezDpU7r2JJPn1b2+a6nr1QaYH8cUqDd2fW+bJffiBsDyCW1wMF2GMTU9FQAAwPj69LLxF//qvWrqcH2DGyrXAQDW4ZD63oSGdwNKOZfsGm7a9gN/5s1qCgBOS2iDgyXxqsuw5UrFZr6/hG+m+B6PHVO5z91+p2Ss6OVY+j4AAHAqfXrZGOqO3D7zMUQKAMDy9a3vzblnwhnpuWZ3WL6cS5ah9/rWwZ1zIDjrajv8csoCcO6ENjiKrmiXpTRSf+fXfNmL1HC+vyGCDzkJ7nvy+y3f8V3V1GH63O1XZBnruoVsSl5P8bkY15r2AQCAuTlmWJQ6Xe+OHOO6NOeKOWfsWgDWLte9u/UpfUvXXpSGaDTcbcCFqdRtn8eUNetzTpfjRM49c2xqk7/neX3q7fS2AcAUhDY4mmFS5isN1HWN1GPo0w1yTpKPvXju29CeCt+61HXk5D3/X3fhc+rPxbDWvA8AAJxCzqWm8o3f+u3VFCxf1xsPDrlBATg/jimsTeruuiqBjT76BjemPAcG4DwJbXC0NJ47iZmf0kA9ZiP1tgQfutwxcchJ9a4+J/FxTAP5KT8Xw1rzPgAAcCpdhx7pUwneVc6v1qqEik9VhuhdjtM49LvKDTV1332XslRZV3WfZ+ySa0xYCsd/lqJPwKjPjVPb+rzOsR6AUxPaYBBOYohUqqa3irpujFOJW3q7OLVj33Oun4v5sa0AAEzDjQQAMG+pP64LQjUVzkvXgFHq1w4N9uZ1dXV2TZxfAnBKQhsMxjApFGWoke2ShuqhhoPok7we8o6/sT8X62FbAQA4rUMr7+FU+tztrpEI2McxhTXp06vysTdD9amb69rj3JpM1YtVCsC5E9pgMPlBdxEAAAAA8CV9h/g8x0YioDvHFNam6w16Q92c17W3jT43DgLAsYQ2GNRPPX5YTcE8fMt3fFc1BQAA9PWN3/rt1VS7Pnf8duWmANaib6PPj//w/WoK4FWOKaxN1/PIoep5pzy/BYAmQhsMKicyfdPeAAAALN/QIYuudwYPOSQijOGQRh91K0ATxxTO1VDDDvcZVk+IGIBTEdpgcElvO5kBAABYvj6V2kN3v65Latbgr/35P11N9aNuBajjmMLadA0UDR3S7TpEiuGFADgVoQ1GYZgUAACAdehaqT1kg1Aq8E/dVfa2//Ef/5PNz/3af+lcoMkxXaurW+FcHbPfrJ1jCufKENgArJ3QBp11raiLXEDodg8AAGD5uo77HT/wZ96spg6X4Eef8feH6ip7jnIdXhcSGav06VmF/Q69I77oU7fy3/9P/3Ptd9qlAMtwymMKw/nOr/my3uXY73pJpupZrev5rZ7fADgVoQ166dMNWZ9KtqVJJWIuclJyEl13cp2Sv6WU58Kxsu2V7a9sX3XbXsopt7/yHl2WKc8b6g5M2vX9Xpb63ez7jOXzTfXZyj5blrNuGVPKZ1jq9wDAevVtyM/v2aG/ZXldn+DH0F1lw1CyLQ/RW4AhDZpl/68LoYxd0hMPhxlzmIG2a60uZe71mI4pnLs+IeIuBFUBmJuLyy+opjfXrl3bvPPOO9WjzeZb/8TNzUc+9jPVI9YoDUNdL0pyh0/uYMqFTFe5gM7dHsfos4xDvF+TXNDk4vLYi7gsY7pzG+JusD7fxRBSMdF0Qtvne4pUdLSZy2cb+nMdYqhtL4ba/rJeStL8mEqDHFdy0XXohdKa94FDle/m2MqcY7+bNn2+t7Z1nkq5Qz5n2zyHMsffDObpH/7tH9n86A/9YPXoyseef2bz+//w11aPAOYhv219e9Ho+5vb93wq+p5TdT0PGft8oetnLdfhc9b1nOwU52BzMvS1ypjrr+uyjnUNs6vr/jFmHVCbPsfDU62zpehznO+7zR96fdjXVMflOR9T5vLbempDfyfbjj2+HXNcP/U5Std9d4zj6Ri/f34jANj1+ffe2/zJP/Tl1aMrd+7c2Tx+/Lh6dEVPG/SWE7KucsKVE70ly4lWTuBystW3ArFO1knmk3nmpBSaZNvL/jPUthdl+ztkv8zyZJvNtpt5ZF5dLqraZD75fJlv5s/hdr+bY5XvJvOc23eT7TfLdejnHHObyzyzbGP8ZgDAlNLIkgaEPsq5RH678xtZ99ubv5Xf9r6/nX2uTeGUxrjWz/40t/Ny6KvPcX7MXjmWxjGFNRuiDgsA1kBog96SoO1TWTdEo9UUcuGSi6JcxIwlJ6WlEhO2ZZsYqtH3WNv7wlgXUpmvCoPDlEaOMS9y892MFXLoK8sxxH4x9DZ3it8MAJjaX/yr96qpfvLbnd/IlJy3bJf87ZDf9lyT6omKOco5Yddz8wSP+tSvlPNyOAeld89z55hCUep/uhS66RtIBoAxCW1wkL7dsy3tAiCNb7lwGbMRdFsqKV0kEaXhd4hG6aGccl/Ie80hGLAUp9xWhg45HCKfd+htMZ/pWKf+zQCAqaS3jXRtPrVUsE8xJALs0+d8tQSP+m7LmX/ex3UTS9N3m3V95ZgCAHBOhDY4WN9hUpZy8p8LlSEa8foqF0mcrzk2/E6x304dDFiCrJ/cOTHFtjLV99OnsqqvY469Zb8FgHMxdXAjjVKH9vhBdznHyR29OU/SM2Q3fc9Xt7fjvvtU3ifnoL4bluSQ4U7OeRt3TAEAOC9CGxys7zApS2jUGrNRsIu89zGNhyyXht+XWRfN5rCt5P1PGdwY+9iceR/6eWyrAJyjqYIbpYeNvD/d5TynqaSBrpScc5Vu1XOOkx7dprw+XpK+56vZlre340P3qXxH+b7yXcLcHdJL5LkOkeKYAnSR87dy7qbUF4AlEdrgKH3vcJpzICEnOXOokMoyzHk9MbxcDGv4fVX2SV41l23lVMGN3I11imPzTz1+WE11ZxsF4JylQejnfu2/9AryHyM9PZ7jkCilAe2YkvO2ppL5l9J0znWujaZdHdK4WrctH9rIGvku811raGWuDr12yr51btddjinrk/OlvuUcz3kA4NwJbdBZXUVNLgDWMExKlimVVHOR9SS4cT5yMbxkqSDIcSCVAXUXmvn/PseJYk775FzM7biQbXfsY/qptoNDfp8OWbYu+8qpGr8AYAhpVMhv2Fi/X5lvfifT0yPT6NN4eE5y7ti3cTXabn45ppE1SkNrGrnnWPfC+Trmuu5cgmOOKXB6znEAmBOhDY7Wd5iUQ+5mHtsxjeZNDXDHNr4d0oDI8hzbCF+2vzG2wTaZZ+ad90lFfY4DqQyok//P3/PcvstiH/iSVJIcejG5/X1tl7Lt5G+HmuKY3vZ5jvksfcZY7rttZpmzjF32lexTeW4+S999BgCmkN+wEt445re42P6td6cpc5Rz89Qj9D0/zz7SdC5Y5O953jHSQJ7lW3sPBVn/aVA+dTmmDukcHXtdn++5y7ZcrqMOLUP8fh3KMQXmS70MAKcitMEg+gyT0vVi61QOXZZc8OSirqkBLv+33fh2yAnevsbQ7YvL3dJHqRDdV/ZdCA6p7v1L6bMu5/jZilRc9L0gL8rnKttfl20wrzn2QiOvz7afeWbefeV1fZZhXyP69ne4W/qY83ZSHHJnUtZ1lrvp+yrbTv6W5x1SkZNt+JThmnxXbZ8n/5/Pcci23ucOrj4BjyxLlrmvfJa8boh9FwBOYfe8Ir9h+37H8reU8ty2cxemI0x9JeshwftDzs2zT3S9nsjzDjk335b9yn7EHAwRcjmmp445c0yBq22rC+ciAKyd0AaDyMl/1xOsyMXIHE60sgx9L4zyOQ9pvE3FY591FKduDOW0Dqm4yDaUC+1DLpTzmtIAfIi8b17fd9vf1SfktdaKmb4O6ZGlfF99HFqRc6reNrpu+/kcfbazok+Iqk/A45Bl2Vb2XQBYkvwe5zes/I7lGqqu5G8p5bnMU5/A6hqVhtVD7oSPnMf2vY7K87OP9K1HiLzG+SNzMORNW8f2VDonjinwJd/yHd9VTZ2WOncA5kZog8Hk5L3Pif8chkk5pOLpmIuUvuso5jicDMc75MKgXCT3vTDf1bdCPO+bC/tj37fIfPoER1xE9QsTRNbvod9XXtc3uHGKgFnfz3TI54iun+OQijUAYHolLLKvHHouxbqkwfmYhtU4pHF1W64B+57XHlNvAUPJtdWQN2Kc4rpzbI4pHCN1eXXnLHVljYYOkHad31ShEgDOj9AGg1raMCl9Lx4PaQDc1fdCR8PgOvUN40x1V0MqAsZ432/81m+vptin73Ey28qxd6nme+/bI8uYd18e+pnm0thy7nemAgDLk/OvnA/mGjjl2PPLpcp1yzHX5Mc2rhaZR+aV72WfIeotYAhj3IR0SI+lc+KYAq/qWkfYp8fTLoaeHwAcS2iDQeWkv8sJfzHl0Ad90/nH3Lm+q29j6NThFoaVba/vRfqxwyss2bk3ePe9iBwqZNO3Yn7M4/kx23/f4+0YVAQAAHOR6/VScp5UShrlUsodujmnzPlgroGHug5eotKweYi8bsh1l3nle2lbnqHfEw6Veqyu9R45BvWpS1zyMCmOKXC4oW9s7Dq/Od94lnO17R5WlFcLwJIIbTC4vg2GU11s9W0IHvIErW9jqAa/dem77aUCY20XyS76u+tzUdqnoquLbHt9jNFVbT7TMdtL32N31/2zz7rOd7jkikUA6Cu/e9/5NV+26DJ2F/xTVbLner2ULEMpOd9yjl4v66VPI2vOE7Oux1qfmW/mv3uuvsbrRpYpx88+of4cg/rUJS79+soxBV7WZzsb+/ysjv0AgFMR2mAUfS4+crE1RU8Sfe8KH/oEbejGVdYrFRhrkYur7O96j+mm73oaepzNOd9NsDSlYtG2DwCwPKkP6FLPkev8vjeyHCrXiVmmNKzmfdd03ciy9RnCZHu/2g0NtDmX4IZjCuei6/4/1LBLXY8f6u8BOCWhDUaRi48+JzVTDpPSRZ8Lx676NK7mYpT16LO9j7HtjSmhjO1gRi6CUsodi6m8yeef+z6/VENXqvQNq40xlM2xQZShA3fFIcuVY3m2feENAGBN0qCYu7T3lbHOy05lXyNr/naqxtUiy5RrgFO/LzTpE6RIfcf2cSHbcp+6xLUHNxxTOCddbxrKfj9Ebxtd69qHvjkKANoIbTCavif4p7zQ6ntyN4e7zYc4IWV55tzTwXYwYzuUsR3MyEVQ1wuhJuc8PFCfzz6H9P85fVfHBGSyT2T/yD4jwAEAsBx1jaw5D196KGU3YNNUTiXn2nXvf2jpejNE+S6HLOck1zZ9rv/rrqlSl3juwY01HFNgTMf2ttHnmHFM3c/cpO6p1N8uuSz5mA+wj9AGo+rTS0AutM4pmGDYgfO09G18O6SxHcxgvaYOg8z5WDlETzjbAQ7hDQCA+SuNrDlPPtWd8LmOzLliuR4rZbsRo66U55XXuhmEsWQ761M3sBtU2PYX/+q9aqqbtQQ3TnlMGdpuWKmpCKLQJNtG1zqWY9oQ8rqux6qp68MAOD9CG4wqadQ+Jzh1417OocHORQVTmcu2l4uaVIIIacyXLhtPr+9v3D7bvW+oUAcAmK9cp6Vhdazrte2ARs4P63oz7HJdVp5XXpv5lECHEAdDOSSw0bbv5G9toY46ef+lBzdOdUwppRwL2kp5bnl9jhmOG4ylTxtAfs8O2Rb79NKhng2AUxPaYHR9E+K5GBjbZ37xF6opYJ/sk7kY6lMJwzCs8/nLb9zQd1/ke88+d4rfQwBg3tIgUdeQtsSioW+/NIpmXW0HNMayHeIojbHQV65Z+mynuXbqEkzIc/r2bJjlcKy5UgIa5fi7fUwppYvy3PL6HDO2jxuOHcPL+twuZT2X73T7e11bnUHf0FLfYVL6Hq/WNDQKAMsgtMFJGCYFriwtMNT3ggbO0RjBjci+l4oYv4kAAOtWGuHSKDqF0hirAZY++tYX5Jqpz41dh/ZseK4B+NKoX44lY9flbAc58r6OHc1KyKJLKcGYUsp6Lt/p9vc69nc8hT697OTzZ5112fb6Hq+GGA4XAPoS2uAk+l5o9U3KAsPre0GzK/t8KbnYScnFVxnLFNYklY/Zvg+pVNwnFTUqwAAA1ieNrGlwmkvDW2mAde5Jm2wfh2y3f/Gv3qumujs0IF8ac7OPrV05jpRG/SnkfXPs6NqADk3S20bffT7bXl3oMI9LkKnPvpH318sGAFMQ2uBk+qTpcyJ1DhdWMFfZ//pe7JdwRgllZJ8vJRc7KWONzwpzkO0723v2g6HDGyrPAViS/B6Wc8K5FZiLNCSlkXWOcu6Z5YNdqSvI9tFXAu6H1gfkN+XQ66vsY2mwXaPSID2344jwBsc6JOBVQofZ9krJ40OCTIe8PwAMQWiDk+rTtVhOtsY6wf/Gb/32agqo0+eiP5UnqYAp4QyGM3TDP6eR/WCM8IZeqAAAlq80tB7SkHRKWb4sp4ZXIttBGkEPCQgcE9gojglu5P3XJvvmoQ3Sp5Llc0Meh8jxYqr9NscZN5wBMBWhDU4qDVl9LrLm0kA1RiXFZ37xF6qpbpwwrkPfwNAUF7h93jP7cypPbJ/T+2c//7PV1LD6VAJ9y3d8VzVFlPBG7uodIsCR70KlFwDAsqWeY+6BjSLLmYZXzlsJCBxiiMBGUYLxfQz5/nOxhNBXkZBPlpfxrDVYl/322DqUvkod51qljmq3B7o5lb7Hd4A1Etrg5Pp0MZaLkL7hhi76XrCNsQycpyVUFvRp/F/zxcwc9AlBLKXS5lztBjgONVY4BwCA8R3T2JrGpJxHpqQhOmW3wWO7lOeU1xxDo+t5y3XMIY2nYwQmcl2V+XYxxvtPbUmBjSLL6xjCIQ499hxi7YENAJZBaIOTywVTnwqDQ7pe7KLPSd8YjWR9PtexFSws1xQNtF0rAI65cNLFbjd9e2YZer327dUhFWjsV+5uOOTYLpwDwBKkcWZ7TPE5FZhKzq37nsvlmivnjDl3TGNSziNTUq+yrzG6PKe8pgQ5Dj0H1ePbeevbeDpmYCLz3RfcyHY+1vtP5ZBjyFxkudUDjWPtNxqeIriR+QtsADAHQhtMIhUGY59wDWnoiyIXKuetz7Z/6gvbPu91zFAYeq8Zx9DrVa8O48pvYde7xLb5DQEAWJ6+N6Sk0bkENYZSQhyHBIjHuqGG5ejaeHqKHi4y/2zHdcuT/xtyv5mLY/bBrJPs8yn5flKy/tpKeV5Kee0xDLX0qnwvbaWs9+2y/b3ke1rjtr4rx5589jFkPQtsADAXQhtMps8wKWPo2+A85F0lfRtW+95tz7z13fYy5vGp9Nk2j9kuhQG66VvRNXRFap/AWi506S/fcSpbAACOkXOx3Qa3UxXngfv1rU/I+eHYDXGZf9/zUL1t0BbcKMehsQMb23aXJ9NrbIA9ZHiRrIs0dOc7yTrJPp+S76fLd1Sel1JeW477OXY0bQdt1nYMKevj0JLvpa2U9b5dtr+Xc5LPfuh2Vyfzyfyyns9F9r+6XujmUoRDAYQ2mFBOLoc60TpETvb6GKqROXdI9z0JObcT8bXru+2l4XxtF7ZD916zZn3vJhiqF4a+lULH9Lxy7qb+PQQAYFx96hPSiHSqOoC8T5/ghgYVIo2cu9tNrlunavwsy5NrqrU2wPa9oaI0Rvetf+oqx4667WAfxxCOsb3dHdrzRvaPcrw61W8tAHQltMGkcoI0ZUNVn/fOBdIhyfZdfXtN6HsBdAi9Hpxe3+0+F7ZzGxLh0KE4htiPhjbnfaBvjybpcvTYbSWv71spNFZl0LkQegEAWK+u59Y5rz51I1Le79DGrz6mvMO3a0Nxvqe615+qLEm2m1JflX+nvh4sjblr1OcmnhxDTtkYvb0ddDW3ui2WJ9tdjjnZ9lLyG9ZUz5r/T8lzSu8m6q8AmCuhDSY35TApfd/72OBGXtunITROcaGVZXLRdFqHNNCmMX6IHjcyjyHmc0jQoW8Y4FTmvA/kGNB08dnkmOBGXtd3rNlzDBzkeO64CQDAkKaqH+kTFHcOTJFr1TSCnqLeim6muDbP9983uAFDyLaXkhBGwhjbQ8+Ukv8X1ABgKYQ2mFxOrvo2SA7lkPc+JLiRSo1DAhvHXPT0/Vx9ewDhOLlYOGS7zx1ChzQW5/nlzqa2u4z6VNb1DTrkuX3DAMdY0z5wSOXtIcGNbCN9v6Os53O8+M32n3U1RHgjr+/TTWx+uwAAWIY+54pTnec5v4T56nPDzFTX5n2OIYf22goAsHZCG8xCEq9TOaQxNI11afxOY10aOesqYfJ/KXlOGvb6BjbSEHrKipPymXZ7YCifI3+r+5wc7tC7qLYbi/dtfyWokef3aRTuKvPtsl0cEgY4tTnvAzkWHBLyyTovn6l8jl35v7KdHLKNTHU34Fzs7o99Zf33CQydoutqAAAAAADgdIQ2mI2putJLY+ihjWBprEsjZ2kY3S75v5Q85xDHNoQe2iViPk/d52B4hzbEF122v76N8IcEhfI+JRSwK/+fxuxDwgDHWts+cEy4rWwnKdufrXy+Q7+fU4fL5qzsj1mnbYGqyP+XsEzWf5/fiT694QDA3OUasK4r6zkU5zhMoen8EThf5zgcKQDAORLaYDaObcA+xqFDVYwllZfHVhIaq28Z0hA/p20vDgkxlVDAbiAg/39ocOlYa9wH5jRObLbbKXtJmrO2QFVK/v/QsIwGJACAZelz/jbVsAF9eoxzPgrzNVXwq88xxI0IMG+p76sLNM+lqIsE1kxog1mZ8kd3Lo3naTAfqhJkbmEA6s3tZPMUF9CnGuJhbftAjg1zCW64SDq9OYV2AAAYXkK9p250zft1DROrY4DT61NHk5sD5nwMCcEvAIB6QhvMzpTj9U8d3EiD3JC9Axw7xAqnk+9+LhVguYAecz/M5zzVnRVr3AemDm7k+0uyndPKd65yCwBgmfpcX52y0TXvk/fryjANcHp9rwNPeQwpQ352JfgFANBMaIPZmXqokqmCG2M0yGV+LoiWId/VXHp7ibH2w8zzlD00rHUfyOeaIrhx6u+PKwIbAADL1vfmjDSC9hlu4BB9G1tjjUNQwhL0vbEm+/Zf+/N/erTwRo4fmX/fIT8FvwAAmgltMEtTNwrm/U85fMOYDXJzCgKw3ym3vX2G3namavBf6z5Qghun+mzZLqf4/s6dwAYAa5ZGpe/8mi+bdTnV3crH+tTPfrJ2+U9R8t7s1/c6L42hWb9pHB1yOzy0sfXY69QEPnbHpVdeLtDkkN5Kc2ze/p3Nvl+OJ6XsU55XjhspmVeOH32P/am7EPwCAGgmtMFsTd1wXSoUxmwQTWNcGkHHbpBba6P1Wo297WW763qhPNS2M3WD/1r3gRw78tnynY4l6y3bo8qV08o+k/UusAEAsA45nz7kmiSNo6XhdbfRtY3GVliPXBceW0+afb8cT0opgY6mUp5XjhvHhPQM4QzLkP287ngwt5LzGoC1Edpgtg6t0BhaGkTTcJaLoyGWJ/NJA+upG+NKw+4c1indDL3tHbrdHbPt5DV5zzlU8K15H8h3mvWcz3dsRU5kHWU+mWfWG68act8stn8fVIoDAKzPsY2Wu42udY0YpWhshXWZSz3pIbLcbkgAAGh3cfkF1fTm2rVrm3feead6tNl865+4ufnIx36megQUuVMl/tnP/+yLf5sqP3JRUsZrTFeGc7pAyWfouvxzW/Zz1vV7i/LdxVDfX+7U+swv/sKLZah7/+33nnuj89r3gfJdRdP3FdvfWQgLHK7rb0OUbSscY8/bP/zbP7L50R/6werRlY89/8zm9//hr60eASxP7nxr+x1ckgQqp/ydzjldGt7XYOp1ORdL+059b5yLXM8l5LRPwvZTXjcv7Tc2175uBjm9hPe6yE0ju5ayL8xVn9/5uvU/lq7f61I4tgBL8vn33tv8yT/05dWjK3fu3Nk8fvy4enRFaAMAACYitAGskdDGcIQ21mvu+4nGEM7Nkhqql9L4qlF/OkIb0xHaOA3nKcCSdA1tGB4FAAAAAE4oDQ1p8JqjLJeGEJivNJQnCDdXaUzN8mnQBwDoTmgDAAAAAE6sNLzOJbyRhtbc9auhFeYvPRdlf51T+CvHkBL60rMSAEA/QhsAAAAAMIE0bE4d3ihhDb1rwPLk+DF1eGM7rCH0BQBwGKENAAAAAJhQCW+k8XXsAEdpYE0R1oB12D1+ZD8fUzmOlGOIsMa85HvpUgCA+bi4/IJqenPt2rXNO++8Uz3abL71T9zcfORjP1M9AgAAhvQP//aPbH70h36wenTlY88/s/n9f/hrq0cAwLn75U8933zmF3/hxfQ/+/mfffHvp372ky/+bbLdYPst3/FdL/79xm/9dkMWQIOP/ej/sPnxH75fPWqWoMKSAgo5foRjCF2tdV84lexzP/Bn3qwetROcATgPn3/vvc2f/ENfXj26cufOnc3jx4+rR1eENgAAYCJCGwAAALAOQhsA7Ooa2jA8CgAAAAAAABwhvdFsD0HTVgBgm9AGAAAAAAAAAMAEhDYAAAAAAAAAACYgtAEAAAAAAAAAMAGhDQAAAAAAAACACQhtAAAAAAAAAABMQGgDAAAAAAAAAGACQhsAAAAAAAAAABMQ2gAAAAAAAAAAmIDQBgAAAAAAAADABIQ2AAAAAAAAAAAmILQBAAAAAAAAADABoQ0AAAAAAAAAgAkIbQAAAAAAAAAATEBoAwAAAAAAAABgAkIbAAAAAAAAAAATENoAAAAAAAAAAJiA0AYAAAAAAAAAwASENgAAAAAAAAAAJiC0AQAAAAAAAAAwAaENAAAAAAAAAIAJCG0AAAAAAAAAAExAaAMAAAAAAAAAYAJCGwAAAAAAAAAAExDaAAAAAAAAAACYwMXlF1TTmy//8i/f/Of//J+rR5vNl/3vfvfmD7z+f6geAQAAQ/qP//7XN//+3/1a9ejK1/6R/3bzO37H+6pHAAAAAAAs0uXl5l/98qerB1fefPPNzSc+8Ynq0ZWXQhvve9/7Np/73OeqRwAAAAAAAAAADOEDH/jA5tOffjnIYXgUAAAAAAAAAIAJCG0AAAAAAAAAAEzgpeFRfs/v+T2b//Sf/lP1KI83m6//+uoBAAAwqH/37zabf/tvqweVb/7mb34xbCEAAAAAAMuVKMYv/MIvVI+u3Lp1a/PkyZPq0ZWXQhvXrl3bvPPOO9WjzebNNzebT3yiegAAAAzqIx/ZbD784epB5d133928/vrr1SMAAAAAAJbovffe27z22mvVoyt37tzZPH78uHp0xfAoAAAAAAAAAAATENoAAAAAAAAAAJiA0AYAAAAAAAAAwASENgAAAAAAAAAAJiC0AQAAAAAAAAAwAaENAAAAAAAAAIAJCG0AAAAAAAAAAExAaAMAAAAAAAAAYAJCGwAAAAAAAAAAExDaAAAAAAAAAACYgNAGAAAAAAAAAMAEhDYAAAAAAAAAACYgtAEAAAAAAAAAMAGhDQAAAAAAAACACQhtAAAAAAAAAABMQGgDAAAAAAAAAGACQhsAAAAAAAAAABMQ2gAAAAAAAAAAmIDQBgAAAAAAAADABIQ2AAAAAAAAAAAmILQBAAAAAAAAADABoQ0AAAAAAAAAgAkIbQAAAAAAAAAATEBoAwAAAAAAAABgAkIbAAAAAFDj4uKitnCc27dv167Xt99+u3oGwLw5jgEAQxLaAAAAAGAyaeB69OhRYwNYSv6WkuelAAAAwFoIbQAAAABwUiWokUDGjRs3Nvfu3du89dZb1V9flb+l5HkpJcghwAEAw8vv9HZ4spT89gIAwxPaAAAAAOAkSiNQCWoco4Q40oB0Dt3Rl5DLHIqwDGtQwmMppTeflLptvpTynPK6zOMcjj8AAIxLaAMAAACAUaVRMw2dCWsMLeGNzDfzB2hTAhoJYJTwWErpzSelTXlOeV3mkZL5bQc5qJf1sx2CKWXsddb0vvl/AIA5ENoAAAAAYDRpjEuj5r7G0GNl/mmM1WAKbEvDfAlqlIDGGLaDHI5FAAD0IbQBAAAAwChKYGOfhw8fvijPnj3bXF5evlLy//n7rVu3qlfUS2Ns3k9jKVB6VxgzqNGkHIvy/o5HAADsI7QBAAAAwOC6BDYSxEgo4+7duy/KG2+8Uf3lZfn//P3Jkycvnp/XtRHcYK7KsAxLL3Pev7Js6ekiYY05yPFIzxsAALQR2gBgr4uL+mLoTwAAoM6+wEZ6zChhjUPkdXl9W88bDx48qKbWoXzmU5Z94RiYm/SukWNP1541cgzJdp7S1NPPdslzSs8/ffYPvQABANBGaANgZLke3w463L5d/QEAAGCl2gITaSRNjxlDyHyaghtpJM3d7cB56Nq7RglqJISRY0gCUSlNPf1sy3NKzz8lSFVCHF0IbgAAUEdoA2BEuQ7fvbksN3skvAEAALBGaZBsust9yMBGsS+4oYEU1i+BjX29a+wGNYZSQhwlwNF0PCoENwAA2CW0ATCi3cDGNjd8AQAAa9Q0LMoYgY2iLbixtmFSgJe1BcUix4YEKoYMajRJgCPHo4Q32ghucKiLi4uTlKbf8uxrdc8fo+gtC4BzIrQBMJJ91957bgABAABYnLZGyPv371dT42ia/7677+GUEh5YUlmCpsblGDMs1ibhjX3BDYEyAAAKoQ0AAAAABvH8+fNq6mVpOE0j5pgy/6beNh49elRNAWvSdif+VIGNYl9ww/BNAAAUQhsAAAAADOLevXvV1MvG7mWjuHnzZjX1sqdPn1ZTwJo09aQzdWCj2BfcaAq6AQBwXoQ2AEay7yayhw+rCQAAgJUbu5eN4u7du9XUywyRAuvT1oPOqYJiXbT1AtQUdAMA4LwIbQCMqG340uvXqwkAAIAV0M0/MAenGI6pr7YQiWMnfVxeXp5NmUNvOQBwKkIbACNKHUGCG9s3VKSHjfzfzOoPAAAARtF0h/lYmt5Pwyisy1qGPTJECgAAQhsAI0s4I8Hwy8urkt56BTYAAAAAhnfz5s1qaj7m1vMHAADzIrQBAAAAAD1cXFx0Lrdv365edZxHjx7Vzn/Mcu/everdAcZz48aN2mPQUMWxDACYO6ENAAAAAAAAAIAJCG0AAAAAsBpvvfVWNQUAtHn77bdf9OSUkp6hUup6K9kt5bkp5fUAwOGENgAAAAA42htvvFFNveyUIYo0PjVpWj5gmW7evFlNvWyOQ2G0NWhfv369muLUsq3UBRK6lKUGBEtIo3yODE2T9ZCSz9T1c5XnppTXl3mWIAcA0J3QBgAAAACDuHXrVjX1sqkbb5qWC1iutrBDW4BrCk+fPq2mXiVQxti2gxolpDGmEuQQ4ACA7oQ2AAAAABhE053vbQ2WQ0pjVJ2m5TrU5eVl5/LkyZPqVeN4+PBh7fuOWe7evVu9O0ynLezw4MGDamp6aTBv6r1AoOzKs2fPao81Q5UcJ89Rtr2EJk4R1GiyHeAQ3gCAZkIbAAAAAAyi6c73NNqMfed72/wNPwDr1NQYn2NOGqunluNSU5gshg6UQZGARLa9psDQFEp4Y+zzAQBYIqENAAAAAAaRO9+b7hwf+873pvlneQw/AOvUFsiaOrixL7CRY5Neaxhatrts93161kj4KSU9npRS12PJdinPK6/t02tM9os5hKoAYE6ENgBWKqH19DqYa6CLi1dL/j9Fz4QAAMCQ7t+/X029bMwG1My36W7ipuUBli+BrKbeNmKq4Ma+wEY4Nk0v205dIKFLmePQNmW769K7Rglp5LMkPJSS/amUfcrzymszFFjmVYIc+0wdqgKAuRHaABhRAhF1gYmUsZT3TN1AQvVN12n5/5Q8J88X4AAAAIaQRpymxqwxGmnaAhtpOOrS+AQsVxqM2xrQc3zIkAwZLmJspZeDfYGNNGw7NjGkLkGh7CfbQY0xtsES5Mh77AtvCG4AwJcIbQCsRAlr9Oj98CUlwOFaCQAAOFbuuG0yZCNNW2AjjVNpOALWL8ecfT0fZLiIEt5IA/eQMs8S1mg6JhUCG4xh3xBk2e6yn5xy2yvhjX2hqqH3RwBYIqENgIXLdU3qOw8Na+xK3ULCH66XAACAY6SBqEkaaY658z2vy+vbGkcNPQDjmWPooEtwIxLeSLgix5AELUqIo5Q25TklpJGS+WSe+8IaIbDBGLJNNm1/pXeNKbe77Jtt5wT7AicAcA6ENgAWLHUJ6fmwQ71Ab5nvnroKAACARmkgamukiXLn+3bDaZ3SSFrCGnldGw2jcJ72NQ7vSkN3CXGUkmNMUynPKSGNLkGNmEPDOeuVbbJJAoxz2O6yDE2hquxH+X0HgHMmtAGwUCWwsU+Gj0x9Rcrl5csl/5e/N92I0mX+AAAATboEN2K74bSpoTR/3xfWCA2jcN7KcedhKjxmIMtx6mEpOB9NYcfItjen7S77QZOnT59WUwBwnoQ2ABaoS2CjhDUyhHOuz+qu0fJ/+XuumZrqMjL0CgAAwKHSYLRvTPshZP55Hw2jnIMyLMducbf6lRwH7t69O1l4I8ejvG+OSVkOGMvz58+rqVddv369mpqPtt42AOCcCW0ALNC+oR63wxpd5fnpfWP32sk1EwAAMITcYZtGzKHDG5lfGmbb7uAF+mu7g38pSngj4YmxAxzbQY0cj4Q1mNocQ4w3b96spgCAbUIbAAuTm2baghQJbBxzTZZ6zoHrUAEAAF5II+ZQ4Y3Mo4Q19K5xemnQT0nPDinp+SFlDQ39rNN2gGM7xFGOR12OSeV5KeW1mY+gBnPTZXuewhx7/wCAORDaAFiQ1H21DeF8bGCjENwAAADGVMIbaejs0mi63UhaGkgzD2GNXCPeqx0mY+xy48aNFyXvn5Ku7VPauupnHebaGNxXCXGU41E5JrWV8ryU8lrHIQAAjiW0AbAgbXVfQwU2iid6FgYAAE6gS6PpdiOpBlIAaJcQ3RwJ9gFAPaENgIVo62UjN7mMUW/5cLyhXgEAAIAZ07jKqaTXnroefYYq6Q1orRJmbJKhq+am6btIT1oAcM6ENgAWoq2u5P79amJgLdd9AAAA8IqnT59WU6zVzZs3qylgDpqGLEpA4u3cBTYTt2/frqZedf369WoKAM6T0AbAQrTdFDBm78CC7gAAwLmqG6ol5dykQXC35K7o7fLs2bMX6ybD2ABwOm1BqgcPHswiuJFlaBuyxdBnAJw7oQ2ABWi7thKqAAAAWL90gb8bHjlVSRBjt2R5tosGN4Bp5BicMF2dBCUy/MyUwY30sJFlaJLQHwCcO6ENgAVoGxpl7N4Dv3DdBwAAAJyZpqFuDGMA83N/z9jJCU20DU8yhgRFLi4uWnvYSNhE6A8AhDYAFs91DQAAAABzlx4h6nrzmapkedYiwYd9PVYkPJEQRcIbjx49qv53WAlqZN55n7beNSKBjfTcBAAIbQAswr171cQOQ6MAAABLVBp0llrgHLTdHQ/MT5fgRmTfvnfv3ovfswQ4SogjJaGLLkOplOeV12UemV+CGpn3PgIbAPAyoQ0AAAAA4GTSUFd317su8pdhzO9pOxylvFrSOA5tsn/meJpQRBcJcJQQR0pCFyl12992Kc8rr+sT8kqwRGADAF4mtAEwc23hdsPIAgAAAADbEopIOKJreOMUHj58KKAHAA2ENgAAAAAA+KKm4RHm1AAMtEs4IuGNhCWm3Hfz/gmQ3L17t/ofAGCX0AYAAAAAAF+Uxt7S0FtK3Lx588W/wHIkLFGGpTpVgKMENfKeeX+9awBAO6ENAAAAAE4qDThpyJl7WZrbt29vLi4uFluaendgGqWht5TsE+6Uh2XbDnCkJFxRF9Dqojy/zKOENMqxQlADALoT2gAAAAAAYHKlwXeIkkbkOmlkrnv+MSWN1U3qnn9oEZphaNmmSpBjO6DVtE1v7z/l+WUeQhoAcDihDQAAAAAAAACACQhtAAAAAAAAk8swSXXDJ6UAAKyV0AbAgj1/Xk0AAAAAAAAAiyO0ATBzhoMEAADgGM+ePdtcXl7Opty6dataMgAAAIQ2ABbs6dNqYkRvv11NAAAAAAAAAIMS2gBYgClvQjIECwAAAAAAAIxDaANgwd56q5oAAABYkEePHm0uLi5mXwAAAGBsQhsAC3DzZjVR49GjamIk9+5VEwAAAADA5smTJ5vLy8tXyhtvvFE9AwCgO6ENgAW4e7eaqDFmqGLsQAgAAAAs3RQ9x7zV0PXmvXv3ap8/dQEAAJoJbQAsxK1b1USNscIVetkAAAAAAACA8QhtACxE2xApY4Qrbt+uJgAAAACAk5ii957dcuPGjWppXpZefuqef+oCAGsjtAGwEG1DpMSQIYu3385FWPUAAADgRB4+fLi5vLycfQEAAIChCG0ALMjDh9VEjYQshghuJLDREKYHAAAAAAAABiS0AbAg6W3j1q3qQY1jgxuPHr0a2GgLigAAAMC5u/uFi/W6HlmULxUAAKCZ0AbAwty/X000KMGN9JjRVZ6b19y7V/1HJQGRfcOyAAAAAAAAAIcR2gBYmDfe2GyePaseNEhwIz1mJIiR3jPqAhz5v/zt4uLquXnNridPqgkAAAAAYHR679lfAGBthDYAFqhLcCMSxEjvGQllJJyxXfJ/uz1rbOsyfwAAAAAAAOBwQhsAC9U1uNFXhkTJfDN/AAAAAAAAYDxCGwALlmBFegRM0GIIDx9eDYkisAEAAAAAAADjE9oAWIEELdI7xqHhjYQ18vq7d6v/AAAAAAAAAEYntAEwooQg0hNGXRlaesdIeCPzTggjAY6mEEf+vwQ18vwsZ1vvGtvLvV2EPAAAgCHdu3dvc3FxsZiyFDdu3Khd/qnKW2+9VS0ZQHd1x5M5l7fffrtacgCAdkIbACuUMEUCHCXEsVvy//uCGgAAAAAAAMC4hDYAAAAAAAAAACYgtAEAAAAAAAAAMAGhDQAAAAAAAACACQhtAAAAAHBSd+/e3VxeXi6+zM2TJ09ql3Mp5Y033qg+CXCuchyoOz4ssTimAQBdCW0AAAAAAAAAAExAaAMAAAAAgFVp6tEnPdIMra13CAAA2EdoAwAAAAAAAABgAkIbAAAAAAAAAAATENoAAAAAAAAAAJiA0AYAAAAAAAAAwASENgAAAAAAAAAAJiC0AQAAAAAAAAAwAaENAAAAAAAAAIAJCG0AAAAAAAAAAExAaAMAAAAAAAAAYAJCGwAAAAAAAAAAExDaAAAAAAAAAACYgNAGAAAAAAAAAMAEhDYAAAAAAAAAACYgtAEAAAAAAAAAMAGhDQAAAAAAAACACQhtAAAAAAAAAABMQGgDAAAAAAAAAGACQhsAAAAAAAAAABMQ2gAAAAAAAAAAmIDQBgAAAAAAAADABIQ2AAAAAAAAAAAmILQBAAAAAAAAADABoQ0AAAAAAAAAgAkIbQAAAAAAAAAATEBoAwAAAAAAAABgAheXX1BNb37n7/ydm//6X/9r9Wiz+W2/bbP5Hb+jegAAAAzqt37rqmx73/vet7m4uKgeAQAAAACwVL/5m79ZTV35o3/0j25+8Rd/sXp05aXQRiqIP/e5z1WPAAAAAAAAAAAYwgc+8IHNpz/96erRFcOjAAAAAAAAAABMQGgDAAAAAAAAAGACLw2P8pVf+ZWb//Af/kP1aLP5PV/1Ozdff/2/qR4BAABD+nf/+j9t/u1n/r/Voyt/9s/+2c3v/t2/u3oEAAAAAMASJYrxEz/xE9WjK3/uz/25zT/4B/+genTlpdDGtWvXNu+88071aLP5I3/8qzbf/+PXq0cAAMCQnv7Uv958/G9+pnp05d133928/vrr1SMAAAAAAJbovffe27z22mvVoyt37tzZPH78uHp0xfAoAAAAAAAAAAATENoAAAAAAAAAAJiA0AYAAAAAAAAAwASENgAAAAAAAAAAJiC0AQAAAAAAAAAwAaENAAAAAAAAAIAJCG0AAAAAAAAAAExAaAMAAAAAAAAAYAJCGwAAAAAAAAAAExDaAAAAAAAAAACYgNAGAAAAAAAAAMAEhDYAAAAAAAAAACYgtAEAAAAAAAAAMAGhDQAAAAAAAACACQhtAAAAAAAAAABMQGgDAAAAAAAAAGACQhsAAAAAAAAAABMQ2gAAAAAAAAAAmIDQBgAAAAAAAADABIQ2AAAAAAAAAAAmILQBAAAAAAAAADABoQ0AAAAAAAAAgAkIbQAAAAAAAAAATEBoAwAAAAAAAABgAkIbAAAAwEsePXq0ubi4eKXk/znc22+/Xbteb9++XT2DJaj7DlNolm28bp1ln2C/uR2Tm75PvxH9NH2vfhPmr+57S3FM68+50bL5fQcYjtAGAAAATCQNNqnsbKrwTMnf8rwUFaAA0F9+P7v+5pbfXb+5AACcitAGAAAAnFBpNErj0L179zZvvfXWi9Ikf8vzUm7cuPHidRqT4HDbDbTbBViX7d/b/H52/c0tv7t+c5mz7d+vUrK9j63sU7vFPsIaZbuu295Psa8B50doAwAAAE5gN6hxjNKYlIakc7BbUTplgaWo235TYO3SyJbf3CF+b2M7wKFh+rQ0mAIA50JoAwAAAEaUYEUaGIZoONqVhqTMWyMSAFwFJBOwGOM3NzLvvIffXeBQ5dpgt4x9XGl633MJgQPMndAGAAAAjKTc6Tu2c+p1AwB2lR4ZxgprbMt75HdXcAMAgKEIbQAAAMAIEtjY13h069atzcOHD1+Uy8vLV8qzZ89elPx9n4RDdBcOwLlJeCIhin3Kb25+V4/9zQ3BDQAAhiK0AQAAAAPbF9hIw1Eahp48ebK5e/fui1LnjTfeeFHy99KglNc2yXsKbjAHu11vn6oA56VLYCO/m/kNLb+5+V2tU/ebuy/AIbgBAMAQhDYAYObufNPHa8snf/Kz1TMAgDnZF9goYY2mRqM2eU1em3k0yXuvrQGp3AV9ygLA/LUFNrYDkocoAY59gUnBDQAAjiW0AcCq/cov/cZLQYcf+/7n1V8AAIaXRpt9gY1Dwhq7Mo+24IYGJADWrq1nqYQsDg1I7iqBybbgxoMHD6opAADoT2gDgNVKYOOj3/dyY8a/fP7rL8IbAABjaGu0GSqwUewLbmhAAphGwgR1w/ccWu7du1fN+WX5/7rnH1OWpCkkWQIbQ2sLbqyxlyvoI4HhumPKvtLWWw4AnBOhDQBWazewsU2PGwDA0B49etTYgDR0YKNoC25oQAJgrfKb22SMwEbRNu/nz9UzAJxCXQBojNIUKsp1Vt3zxyhtvUoB6yK0AcAqpZeNNulxAwBgSE+fPq2mXpa7cscIbBSZd9OdvxqQmJvLy8tRC3Aemn5zHz58WE2Npyks2dQjCgAA7CO0AQAAAANo6mXj/v371dR4mt5DAxIAa9T0m3v37t1qajxtQUw9XAEAcAihDQAAADhSUzftY/eyUWhAArpyTGDpmrbhpl6nxnDK9zpnTT2GNYV2AACWSmgDgFV6/Zu/opqq990f+oZqCgBgPDdv3qymxtfUJbwhUuD8NAXJOI0nT57UDt+zhMJx/OaejgDaqxJmubi4GLU0BWYybFDdMWVfaRpuCADOjdAGAKv1oZ+4UU296vUP/N5qCgDgeE1j6wPMjUZlYCmcXwF16gJAay0JggLnQWgDgNVKbxsJbnz99a+q/ueqh438376eOAAAhnD9+vVqanxN76XBA85P235/7969agrWxZAZ69P2nQqgAQBrIrQBwKolnPFXfvT65kc+/T0vyge/9/0CGwAAwKrta7w2rABL9sYbb1RTrzrVtt20j50yrLl2+4Z5EkADANZEaAMAAADoJA0kdeObN5WhGs/q5j12gaXa19AZDx48qKZgXU7R+0LbPtYWKKGfLj2FdTnewVLcuHGj9px0qCLoBDBvQhsAAAAAsBJdGjrTS4DeNuYr300ao1Nu375d2/hWSv6eUp5/Lh4+fFhNvSyNkmNv200Nn7du3aqmGEKX4W40Qr8s2+Dl5eWoxXYOAOMQ2gAAAIAVMLY7kEb7Lg2dMYfeNvreVbxmJaiRz5n1ksbolH3fZ/6eUp6f15cQx5q1DUMy5radddvk/v371RTH6rP9nlNYCRjHblgyZfv8o6mU56aU1wMcSmgDAAAAjnTz5s1q6mWnDFI03V3ftGzA+nTpZaNIQ7/eNqaXBp40/JSgxhBKiKM0KK1RhiFp6m0jn3+Mz515Zt510vuAoVGG02dfyHMdy+Bw5ffikNJ0TJy77aBkym5YsuvnKs9NKa8v8yxBDoCuhDYAAADgSE13/KbibmptdyMD65GGgaZGhqbu7NNIobFzGlnvadQZ+3ci20TeZ40NR3fv3q2mXlU+9xDbd+bRFtiIJ0+eVFMcqylwk+NY07FsDj0HAfO2HdQYMijZpAQ5BDiAroQ2AAAA4Ehtd9eeokG0rbF2yDt/c1dz3fjmTWXsu47r3nPsAnOU40xT40P227ZhGzR2nl6O2WkwOqVsH02N4Uv27Nmzaqpe1nPW96G/xVlnmUdbYGPfMtBdvqemdZ3jWNOxLK85xfkWjCnHkrpzz6FKU+9Ea5djQzmWjx3UaLId4BDeAJoIbQAAAMAAprz7s2lIhKZlAtal6TiTY0B6I5hiKAnqZV13bTTKd5ZGvLaGvPwtz+tyvF/jd51te19oIus7jXWlsSwNeE0N/Pn/PCfrKc9vChAUee+xA4rnpO1YlvWc0rSt5zsW3JhO2cf6lrwOxlJCkvuO5adUwhuOV8AuoQ0AAAAYwFR3f2beTRWRbXfXA+uQxuUux4CEN5oaO/P6KRrz28IIdWXp0ni0r+GoBDXyeUvgpi0UkL/leRmeI6/ZF+CY6rseU9bBvuBGUQIcTQ3M+f88Z9/3FAIbw+p6LGsbikYAAIhcH+WY0jUkGfn93A5Llt/itlKeV17bJUBZ5Hi1tt9j4DhCG8Bi/cov/caL8smf/Ozmx77/+ebON338lZL/T8lzUk6pvGfbspXn5HPMSdNyz3FZ56rPtgkArEMabk5992fm2dRAkWXRmATr1tbIWXcMaGvsXGNj/pzkeN3WeJTvKw0/JahxqBLgSONRk3zXa+uePessDWh9GswOVb4rv7HDaQugZlveXddZ/00cx6Cf7GO7YYSu5RTH3L7K9VHTMWVbPnuOJ/ks+f3cDkt2OcaX55XXlgBlCXLs49wL2Ca0AStX11icMlZDceZb934pQ0ljeOb30e979qL89Ef/xeZfPv/16q8vy/+n5Dkped3YDeWlkb68Z9uylefkc+Q1QwciMs+60vT5t5e9brnz/2/93X9VPZq/U2yPu8p79tk283wBDgBYh7aeLYYObrQFNqKtcRZYvrZeG9KI0nQMaGvs1Hgwnrahssr31aWBqKs0HrV9133uPl6SrMe2z32MfE9phBv6uzp3beczWefZlndl/Tc1iDqOwfnad30UOa5sBzXGOJ6XIEfeY194wzELKIQ2gMXYDmscozSUp5F8SCXw0NRI38VY4Y198n5Z/mOW/dyVsEa2rUOMtV0CAKfV1ogQQwU39lVIjtVgBcxDAhttje5tAbIcpwQ3TivH7EMCNsfa912vrbeNIp+7z53O+2yHNeoCBByn7Xym7ViW7yLfTR3HMThPbQHJyO/CqYN3JbzRdLyKHLOGuEYElk1oA1iENGQfG9YYSwmTDBl4yGc9Va8LWf68n8DGYUrg5dCwxq58D1MEdwCA4bQ1IkQaJ9KQcEjFXF6T17Y1cOS9T1kRCZxWjgFtgY00SOw7BuxrzE/jwcXFhQaEgTx/3hzOHyuwUeS7bvpNevr0aTW1TvnspbGsBDhS2n6j87eU8ty8VlhjPG3Bii7Hsnw3Td9nCW44jp1Gvq/sL31L228R9JF9vS0g2eWYMqYcr9q2932BE2D9hDaA2ZtzDxAl8DCGU/W6sKThTuZmzMBL5iu4AQDL1daIEKlQTPAijaK50zmVjE2NCvl7SglrNFVGRt5z7AZAYDo5DrQdA9LI3LVBIs/b11iWY85ae2M4paaQTb6vU2j6XWjbltamBDhSsj7qGo9T8reU8lzG03Y8y/lM12NZvq+24EaOY4IbsH5tofb02jNlYKPIMrQdr5xzwXkT2gBmbV9g4+uvf9XmQz9x40X5kU9/z0sl//fdH/qGF88ZQ5fARt47y1C3bGX52uSzj9njxpwDMXPXNbCT7/jQbXSsQBAAcBptjQjb0piXSsaUhDh2S/6esq9xTWADjlO3/9WVKaTBcV9gI8eAvo3MXYIbOf64W30c169fr6am43vl1PYdzw45n9l3znUuAbSs07rfrSHLvvNRmELbb1mfQOsptB3f1t4DFtBOaAOYrbZAQQlr/JUfvb55/Zu/4kXZlf/74Pe+/8Vz0kA+ZIBjX4P99vJlGXaVZc7f8ry25UqPG2P0uJB51q3fLEtT0GRfyORcdAlslLBGvuMu22jTuj1FbysAwHhSKXeKbp/zHgIbsE5paEyD477AxqHHgBLcaGvwzHtnGYQ3hnXKRqS27xdOJcePtuPZMceyvK5tOxdAg/VqG4ZsDgHJXU3HKqEoOG9CG8AsNQUKIqGCEtboY1/jeFddAht9li/Py/Pbghtj9LiwOyxK3n9f0KSsw3O3b0iZ7bBGV3l+wjG724GeUABg+UqD6Bjd4Jfx9ud09xgwjHI3ehoa2xzTyFnkGLKvwTNKeCNBEg2fQB8lgNZkiGPZvuPY9jEMOA9zvE66efNmNQXwJUIbwCz9yj//j9XUq279pWvV1GHSOJ5G9fd/21dW/9NPW4N9AiGHhhr2BTeGHiZlOwzQN2hyzvI9tAUpsm0dsx73bQcAwDKlsjDDFgwR3khjRAlrGG//9NJQXUoafVLSsJ4CQ8n21HY3ejFEI+e2zKvLMSpBkiyf4MZyuHuXKe0LoA15LNsX3IgsS4b6EN6Addt3LJjKHHv/AKYntAHMUoYEqZNQxBDBgtJrRF9tDfZpaD9kntvaAh9N6+QQ2/MqgQ32Sy8rbd/DsYGNQnADANarhDcSuCgBjpSmCsX8fyklqJHGCGGNK7vjrJ+ipKG6lDT6pKQxVIMoQ0gDYrazLtvTWMMilYDZPnmOXn66aTrGn6rBuC1c4zs8XF2IL6UE+VKyP+ffc9XlmJb9Y+hjWebX5ThWwhsAAFMT2gBmJw3jTV7/wO+tpqbR1GA/ZPAhDf9N2tbNoY7tueSctPUAM1RgoxCkAYD1KwGOlDQuJJCxW/L/pQhqwLjq9sG6MpZ9d6JvGzswkXnnszaFDRIi09h/vKdPn1ZT42ob63+NtsMUTWU7ZLFbtkMXpaRhf7fUhfi2g3znHOYr63HfMW2MwEaRY1TXANoS7f42TV38JjBHcz0On9vvMtCN0AZARz/2/c0nU0MGH9oa/ttCA4dI2GTIoMGatfWyMdZ6TM8yAADAeUjDZVNIosjfT9k4lmXabdDMMgiR9dM0dn0ak9K4PaYEFJoazufcWJ31UheU6FK2wxRNZTtksVu2QxelHOPY1y9NvruyHtuMGdgo9gXQxg7AQR85NtUd04Yq2S/Xqu28ZOzf2UM0fRddhqgD1ktoA1iUoUMLfbQNizJ0g31TY/2QQ6SE3hy6a9v2xuqt5NjhdgAAOK00jsIx2oIbqcgfu4GzTmn0LEM5TbEMS5fGpKbvNQ03Yx07Mt80AjaZc2O18f6Xq217L059PMt77YaU9BgE6zLF7+wh0gtRE799cN6ENgA6+ORPfraaetUYDfZtw8AMNURKwiZ01xaYGbO3Er1tAABTSINL6e56u5zj3fWpAN4uaeTZLmkESsn60fjDEHaDG5nONjb1/pf3F9g43P3796upVyVYMfSdwPsCG7sN2DCk3ePYtqmOZ7sBtHM8p4E1a+rVKh48eDCL4EaWoa0XItcScN6ENoBF+eyn/n01dVpN7zvWsBht8xyqt5H3f9tXVlPs0xaUEaoAABjfdnDk1CUNT9sljTzbJZWrKlgZWra1SONipm1jy5fvsKkRO3IncO6+PTa8kQahzKctsJHlmPs2NbflyzqrK9shvlJKmC+l/Jaco92gUtZX1sXU321+u8sxlulleyj7yXbxHdFX9u0cZ+okKJHfxSmDG/t+m4UpAaENYHbaAgsZouTHvv959eh0moZGWXLwwdAb3bUFZdp6RRmC7wkAAM5TGq3SAMF6pBGyqUEp0qiU8MbFxcUXAxxpYGpqZCp/y/NS8ro0CLXdxZv3X0pjaNu6KvKcfaUuWNEkf9ttPE7JOqsrJcC3XdIIXco5y+dPI2S+g/yb9QUwprZerSK/kW3Dk4whv9P5fd7323zuvxmA0AYwU21Dd5w6uDHUcCR9Na2DIXobMTTKcMYcGgUAAIB1ScN1Gmf2KQGONDClpMFnt5S/5Xkp++R9l9RwnmWtC1BslzxnX6kLVnT5DjheGiHzHWiMhC/JMajueDZVyfKsRQmLtcnva35Dh+jdqkkJVJbf6jZL+20GxiO0AczSrb90rZqqV4IbpwhUtPWyMEUvCE29fjCen/7ov6imXmZoFADgENsNbksrY1VsAuuWxoi6hqJzbcjN+mjr7WEMeT+NQgCsXZfgRuz2blVCHCmlJ6t9yvPK6zKPzK8EKvcR2AC2CW0As5TeC/b1BpHwwke/79mL8MYnf/Kz1f8Ob4ieLeZmycO6AADAUqUSua7hWmUtnJ9yp/XYPT4krJHGqzXdSQ1T2/0dL2VuQbTt4O3SyqmHsGBdyjl319/YBDhKiCOl9GRVt21ul/K88rrMoyvDRgG7hDaA2forP3q90zAeCW+kJ4Sxwxt17nzTx0cretSYh7beXF7/wO+tpgAAAJZj967QUuoaJHZLeW55fZc7UWmWBps0LCVcMWSAYzusca49mgBw3vIbm9/CsQOSfeT3eY4hL2B6QhvArHUNbkQJbyTwkAAHAAAAcKWu2+5yV2gpXZTnltdv34kqxHG4hCu2AxwlxNGloSnPKSGNlMxDWAMArnrdyO9r+V2dSvmd1vMV0ERoA5i9BDe++0PfUD3qJgGOEt5o6ykBAAAA1mo7qNG32+5DbIc4BDgOlwadEuIoDU118v8JaOQ5JaQhqHEa2b5LWOnQkv0FgNMov6tj9G7VpAQ1hCmBLoQ2gEX44Pe+f/Mjn/6ezr1uFAlvfPT7nglvAAAwG6m0m3tpaiCcqzQM1zWILaWkUR2GVBqUTxHUaFICHMIbQJsSLFtDcayDZdgOcJRrnxLkKKWr8vwyjxLSSBHUAPoQ2gAWJb1ufOgnbhwc3vjkT362+h8AAABYlxJgmtMd/NvhDQBOpzQcz7mkgRumlnBFCXKU0rZ9JqRRtuHy/DIPIQ3gUEIbwOK8/s1f8SK8cUjPGz/90X/xoteNIeS9swxTFAAAgHOSMMJuSQiglNypvXu39rnJ5084oqvdu0K37wxtKuV55XV97kRNeEOvMgAAAK8S2gAWrYQ3vvtD39A5wJFeN4YKbgAAANDddqiiT0kYYbckBFBKhgCZahiQOUgYosvnL0GNBDB27wrtcmdoeV553fadqJnvPllGwQ0AaJdwat35UAoA6yS0AazCB7/3/b2GThkiuJF5cN5+5Z//x2oKAABgGl0CG7tBjaGVIEcJcLQR3GAM6XGnrnFzrG2tbO/HlC5BJwAAzoPQBrAqZeiULuGNhC5+5Zd+o3rU7P3f9pXVFOco2xQAAMu0Pd70HMq+xmzoKw3VbYGNsg+MEdRokgBH3rOtQTrLnGUHKD32LKkAAAxNaANYpRLe2BfceOvv/qtq6jBdQh+s12c/9e+rqfHYxgAAoL+EFdK1+NplaJgmWQdpDJ1KgiJtQaUs+zl8RwAAAPsIbcDKdRkqZEinaMTuY19wo8sQJ69/4PdWU68yPMZ5OPV+tM02BgDAuUjIoKmk14a6klBAKdt3QSeskB4f1qytp4qssykDG0W+g7bgxvPnxw1bCgAAsAZCG3Cm5hauGNO+4MYnf/Kz1VQ9w2PQpEvoBwBgV92Y+3MrbXfvQxfbAYquJSGDppJeG+pKQgGlnJunT59WU6/KOpuLfDcJkdRxrAEAABDagNV7/7d9ZTX1srEam+faiN20HrpqCn389Ef/RTXFmrVtP/tCP8eyjQEAAHXeeuutaupl6YFkbu7fv19NvcoQKQDjqAvmzq3cuHGjWlqWKCHRuiDuOYZpAY4ltAFn7Fd+6TeqqWGM3Xh9jLYhTrqYstGe6X3we99fTb1qzFCFbQsAAKjTFnS4fv16NTUfbY03hkj5knyvdaVJelspz8lwOV3L7du3W0tpTG1776VramhMDz4AAHBqQhuwcm1hhV/55/+xmhrGmnsEmKrRnvk4ZoidQ9m2AACAvuZ6d2vTEClrkTDE9t3jh5TccV5XmoaRSW8r28/pWvK6tlII1AAAwGkIbcDKvf7NX1FNvWrIBuEl9wjQtReO7/7QN1RTr/qx71eRsXZtva2MEa6wTQEAACzHHHs4AYClGiIMeWxJKLJOAo51zz91AdZFaAPOQFvYYIghUjKPoQMgQw/dMoS2cMe/fP7roy7zXNfJOWnrbSWGDFnku842BQCcl7pu2udWdBsP8zfXIS22e3BYI+P301d+U+t+azN0CwAA50VoA85AW9jgo9/37OgwQOYxtMxzyN473vq7/6qaelVbbyTb8ry2AMwQ67JOwgCGyZiHtu8/IYshghvZhsbYpwAAgPMwxyEtcrcsAPNQFxaaWxFeAuDcCG3AGdgXSmgLNLRJ4/JuI/XXX/+qaup4CSpk/scGIfL6pl4L2hrh6+zrbWHIsEnmc+ebPq7HhRnJ99+2jR8b3Mh3vhvY6LuNAgAA69fWq8O9e/eqqfl4+vRpNfUqPfi87NatWweXhw8fdi7Pnj1rLKXR1HcDAACnIbQBZ+JDP1E//lqkoTnhgD7hiNK4vB0oSGP2+7/tK6tHw8j88z6HNoTXNYJv2xfCqNO2LuPYsEkJa+hdY55u/aVr1VS9Etzo8/3nuXnN7neefeqQbRQAAFi/NLw3uX37djU1vfSy0TQ0SoIGa7J9l/ihJXeXH1oSsuhaEvxpKgAAwGkJbcCZSG8b+3rBSLghYYGEBuoanPN/bYGCv/Kj16up4ZVgSRq2swwpdbKM+5az2Be+aJJ1ue+1JWyyvT7b1mlKPtu+ZWZ6fb7/sr22fff5zvPcvGbXmPsUAACwbGl4b5KQxByCG2+//XZrzx/379+vpgAAviTnOXXhRuVLBVgXoQ04I/t6CCgSGiiBg+2S/2sKFBwagOgrDdtZhpTd5SvL2LacRZZ337Axbbo03Bdlfbat05S6Rnvmqev3X7bXtu++yan2KQAAYLkylEWTEtxIcGIKee8bN5qva9LLhl4dAAAAhDbgrPQJGvRxbADi1IZa3rHWZ53v/tA3LGodn4Oxvv/0iLO0fQoAAJhGQg9tQ4wkuJHgRIYoOZW8VwIbTUOiRJY5w3kAAAAgtAFnpzQ07xsqpYvM40c+/T2DNy5/8HvfP8jy7UrwYejlzbwyz8x7DGWZs06Yn/L9D7W95vvOkChD71MAAMB6JfzQFtyIDFFycXHxIlAxRs8bmWfmnffIewlsAAAAdCe0AWcoDcJpGD60l4A0UJfG5bFk3iUMcWyD+CmCD5l31mfe61hl/QprLEfZnw7dVvN95/W+bwAA4BAJQTx8+LB61CyBivS8kXBFCXGUIEcpbcpzyuvSo0bmk3lm3vsIbAAAALzq4vILqunNtWvXNu+88071aLP5I3/8qzbf/+PjNcoC8/Arv/Qbm1/55//xxfRnP/XvN//y+a+/mC5KQ/T7v+0rJ21U/uRPfvbF8sXuMhZZ1ixnvP6B3ztZjwVlndatz2K7gT/LPOXyMqx922rZTn3nwNOf+tebj//Nz1SPrrz77rub119/vXoErFEaOJcujcN3796tHk0vjchpNF4qDdmn1bQPblWRtTr29WOa874wt+MGh2sa/mbK7zghoi7BoSWxz8xX0+/As2fPXgxbNRdrOOeMOfy+ntrSz223zW2/ADi19957b/Paa69Vj67cuXNn8/jx4+rRFaENAACYiNAGnCehjeEJbdDHmkMbxZwasG3f6yO0cRpCG/MltHFaQhvLJrQBnLuuoQ3DowAAAADAiqShN41cafSdSt47yyCwAQAA0E5oAwAAAABWqIQ3cpdrQhTp9WIsmXfeo4Q19BAAAADQjdAGAAAAAKxYuiVPiCK9XpQQRwlylDBHl0BHed52QCPzKT1q5D2ENQAAAPq5+MJF1RcHBLt27drmnXfeqR5tNn/kj3/V5vt//Hr1CAAAGNLTn/rXm4//zc9Uj668++67m9dff716BADMzcXFRTX1sq0qNli127dvb956663q0ZckxCO0wzlo+h1IiC0hOQCA4r333tu89tpr1aMrd+7c2Tx+/Lh6dEVPGwAAAAAAAAAAE9DTBgC9ffInP7v56Y/+i+rR9H7k099TTQEsi542AAAAAADWSU8bAAAAAAAAAAAzJrQBAAAAAAAAADABoQ0AAAAAAAAAgAkIbQAAAAAAAAAATODi8guq6c21a9c277zzTvVos/kjf/yrNt//49erRwAAwJCe/tS/3nz8b36menTl3Xff3bz++uvVIwAAAAAAlui9997bvPbaa9WjK3fu3Nk8fvy4enRFTxsAAAAAAAAAABMQ2gAAAAAAAAAAmIDQBgAAAAAAAADABIQ2AAAAAAAAAAAmILQBAAAAAAAAADABoQ0AAAAAAAAAgAkIbQAAAAAAAAAATEBoAwAAAAAAAABgAkIbAAAAAAAAAAATENoAAAAAAAAAAJiA0AYAAAAAAAAAwASENgAAAAAAAAAAJiC0AQAAAAAAAAAwAaENAAAAAAAAAIAJCG0AAAAAAAAAAExAaAMAAAAAAAAAYAJCGwAAAAAAAAAAExDaAAAAAAAAAACYgNAGAAAAAAAAAMAELi6/oJreXLt2bfPOO+9Ujzab17/5KzZ/4f/2LdUjAABgSM//8b/d/JP/x5fOv+Nnf/ZnN3/wD/7B6hEAAAAAAEv03nvvbb7u676uenTlzp07m8ePH1ePrrwU2njf+963+dznPlc9AgAAAAAAAABgCB/4wAc2n/70p6tHVwyPAgAAAAAAAAAwAaENAAAAAAAAAIAJCG0AAAAAAAAAAEzg4vILqunNH/gDf2Dza7/2a9Wjzebrvu7rNn/5L//l6hEAADCkn/u5n9v8zM/8TPXoyg/+4A9uvuIrvqJ6BAAAAADAEn3+85/f3L17t3p05Qd+4Ac2f+tv/a3q0ZWXQhvXrl3bvPPOO9WjzebNN9/cfOITn6geAQAAQ/rIRz6y+fCHP1w9uvLuu+9uXn/99eoRAAAAAABL9N57721ee+216tGVO3fubB4/flw9umJ4FAAAAAAAAACACQhtAAAAAAAAAABMQGgDAAAAAAAAAGACQhsAAAAAAAAAABMQ2gAAAAAAAAAAmIDQBgAAAAAAAADABIQ2AAAAAAAAAAAmILQBAAAAAAAAADABoQ0AAAAAAAAAgAkIbQAAAAAAAAAATEBoAwAAAAAAAABgAkIbAAAAAAAAAAATENoAAAAAAAAAAJiA0AYAAAAAAAAAwASENgAAAAAAAAAAJiC0AQAAAAAAAAAwAaENAAAAAAAAAIAJCG0AAAAAAAAAAExAaAMAAAAAAAAAYAJCGwAAAAAAAAAAExDaAAAAAAAAAACYgNAGAAAAAAAAAMAEhDYAAAAAAAAAACYgtAEAAAAAAAAAMAGhDQAAAABgli4uLmoLx7l9+3bten377berZwAAAKcitAEAAAAAZywN9Y8ePWpsyE/J31LyvBQAAACGIbQBAAAAAGemBDUSyLhx48bm3r17m7feeqv666vyt5Q8L6UEOQQ4WIKyra+5AACwXEIbAAAAAHAmEtZIA28JahyjhDgS3jiHYTXm1PAvLMNc1G2fSyr2JQBgDoQ2AAAAAGDlEqpIuCJhjaElvJH5Zv4AAAD0I7QBAAAAACuWwEZCFW3Dnwwh8z+XXjcAAACGIrQBAAAAACtVAhv7PHz48EV59uzZ5vLy8pWS/8/fb926Vb2iXul1Q3ADAACgG6ENAAAAAFihLoGNBDESyrh79+6L8sYbb1R/eVn+P39/8uTJi+fndW0EN5iTbLvbIaQxSts+Uff8oQsAAMsltAEAAAAAK7MvsJEeM9LQm8bsQ5RG8LaeNx48eFBNrcMpGv53y75wDPOQ/e3evXvVo1dl2KC1qttu51jsSwDAnAltAAAAAMDKtAUmErRIjxlDyHyaghsZKmXNjdVQ7AsoZV/Q8wwAAE2ENgAAAABgRdI4nEbiOkMGNop9wQ2N1axZ2/62bW09zwAAMByhDQAAAABYkaZhUcYIbBRtwQ2N1axVAhttwxBt0/MMAABNhDYAAAAAYCXaerW4f/9+NTWOpvl36YUAlqZPYKMQ3AAAoI7QBgAAAACsxPPnz6upl6UXjDfeeKN6NI7Mv6m3jUePHlVTsHz7AhsPHz5sHTJIcAMAgG1CGwAAAACwEvfu3aumXjZ2LxvFzZs3q6mXPX36tJqCZUsAqS2wkbDG3bt3W/c5wQ0AALYJbQCLljsbcrHsQhcAAACajd3LRpHG6jqGSGHpUgeV+qemYFQksPHkyZMX09nnnj179mK6TvaJi4uL1iGNAAA4D0IbwOKUoEYubHNnQ9vFMgAAAJwLjb8wjtK7Rlv4aDuwUewLbkTm62YkAIDzJrQBLEq5SBbUAAAAgG7SmHxKTe8nVMLSZJvNTUP76qESzNgNbBQluNG2H5ZeN1LvtTRZ7iUUdYkAwJwJbQAAAAAAQCVhjfR+kRuH9kkgY9/wQ/l7Qh37AlQJFuR9lxjeAADgcEIbAAAAAMCi1N1J31SGGnqiDNV6yqJ3gNMqPWvsGwolHj58uLm8vNwb2NiW4Ma+4VLyvsIbAADnRWgDAAAAAICzlKBGCeR06VkjvWUkeHH37t3qf/pJyCNhj329bpTwRpZLgAMAYN2ENgAAAACAwezroQCmlJDGblCja48mCWukt4w+vWs0Kb1u7AtvhAAHAMC6CW0AAAAAwAo0NSSfMkSRxvAmQzR0Qx/bAY3tkEafoEYcMhRKF5lfn/BG1AU4Utr2vVPLZ8n6WkI5tMcUAIAhCW0AAAAAwEo0NfxOfWd+1wZpGEICDLsBjT4hjaKENcZu2D8kvBElwJGSz5nPXMIcAAAsh9AGAAAAAKzEzZs3q6mXPX36tJoaVxqO6zQt16F275ZvK2kMH1Np2D9l0TtAu4QgDg0K5XUJT0yxnkt4I++d7epQ9+/fr6YAAFgCoQ0AAAAAWInr169XUy/LHfljD5/QNv+m5YKxJPzQJ7iRkETCGnndIcOglN49dsuhvV4kMFLCG30+R557yPIDADAdoQ0AAAAAWIm2HgYePHhQTY2jaf4akZlKW48T2S5LUKP0qjHH7TTLtd37xr4Qx9g9ywAAMDyhDYAzlTtAMqZx7vhouhMkZepxj7dlWfYtc3nO2HeQAQAAzFVTQ3V628h10xgy38y/jqEamEpCGAk5RAk8lJBGwg1zDWo0yfK2hTjy2QAAWB6hDWB26hrjS7l37171rJelYqju+XVlu4KqqevKUk4hAYO6905pCx60va5NeV3GGc76bKpUy/+n5Dl5fglETCHvnWXIsuxb5vKcfL68RngDAAA4N229beS6aejgRltgIw3KetlgSgk5lJ40lhbS2Gc3xGFfAwBYJqEN4Kztu5g9RYP/06dPq6mXDd19bAmoJNBwiBKISGXcqYIQJazRVPnXhfAGAABwjtqGSBgyuNEW2Mh1bRqUAQAAaCa0AZy93PXT5Pnz59XUeJoqt27evFlNHS+VaAkvDCHLm3mNGYIoAZNjwhq7ssxT9RQCAAAwhbahEnK9leuuQ6+TSi+ObddthkUBAADY74uhjV/+9f9XNQVwXtru+jm0V4qu2irHhrobqe2up2MkBDHUnVnbEtgYKmCyq/QUAgAAcA7Se2NbcCNynZTwRa6Vco3aFNDP/+fvJayx73o572uoBjhPJRS2pDLmzUkAAPt8MbTx//zlH6+mAM5PW28bY160tQ2NMoS2wEY+cyrRUjLu6XbJ37osQ+bdFjzpq0tgI8uV5dtd5vJZ2r7LGHqZAQAA5qxLcCNyrZQgRq7J6ho08//5+76wRuT9BDYAAAC6+WJo4//+wb+/+V3/+4vqEcB0dhvjt0tTg3wa8uueX1fqxvW9fv16NfWqMYdIaQpUDDE0SlNgo4Q00pNHKtHqKtLyt6ynPG9feCMVdkMEW/YFNrIcWfYsV10vJOWz5G95XttyD7XMAAAAS5BrpS7Xd8cq1+Z115kAAADU+2JoI77yT/5vqimA89JWodTlLqJDNPX2kEquY4dGSSBhN7BxaOVZQhL77sp68OBBNXWYLoGNLEfXZc/z8vy2Csl9PXoAAACsTa6Tuvas2EfmV0L2AAAA9PNSaOOTP/iZzVf8t19WPQI4L23DaozRK0PT0ChD9LKxG0g4tvIsIYi24MaxQ460hT7yvRy67PuCG4ZJAQAAzk3pWXGI8EbmUa43+94gwPFSV5GSa9uU9LiZMkYdBgAAMJ6XQhtx7f/031RTAOfllEOkpDKlaWiUY3vZ2JVKtCEqzzKPtmDLoT2StK2LVCAeuz7aAh9j9aICAAAwdyW8kR4Zc61XQhxNQY7ytxLUyOsyD2GNq2vLi4uLk5fcsJGS90/JtXXKmMO8zlXqFurW0SlLU4+e+U7qnn/qMpYcC9ZQHMsAgCl9MbTxsV/+sc31v/T1m9/4f/8XvW0AZ6nt4mzoxv2mXjaaKscOlfkNGQLJvNqWMZUkfTWt27xPW+Cij7ZeQtyBBAAAnLtc65UQRwly7JbyN0ENAACAYX0xtPF//sb/bvMffu69zb/6R/+fF8ENgHN0qsb9pp4lhhgaZdv9+/erqeG0zbMpjNIk3bY2GXLZ2yoUz/EOJAAAAAAAAObhleFRAM7ZKRr323qjGLJXjKGGRdmVeTb1ttEURmnS9PzMf+hlbxraZeheVAAAAGBKfW+oAAAApiW0AbBj7Mb9Uw2Ncv369WpqeG09gnQdIqXteWP0ENK2PgyRAgAAME91Q7WknJvUGeyW1F9sl/QemnUz1FCjAADAaQhtAOwYu3G/qXeJIStVUlkzRi8bRVuPIF3v6GkLr4zVQ0gTQ6QAAACwT66Fd8MjpyqpM9gtWZ7tMmY9wNxN+d0spQAAMF9CGwA7xmzcb+pdIkGFpWla5q5DpDQ9r60XDwAAAAAAAFgToQ2AGumpos6xQ6Q09S4xdFBhzKFRimOWearhSJqCJsb7BQAAAAAAYApCGwA1xhoipal3iXTjOaSpu0Tdt47aeiwZel100bV3EAAAgLVIT5AXFxeLLQAAAGshtAFQY4whUtY0NEoc05uHni0AAABgOk+ePNlcXl6+Uqa+CYTp1YWklC+Vpvo9AIBjCG0ANHj27Fk19bJDh0hpCircv3+/miLqLoiHKnrUAAAAAAAAYE6ENgAatN1dcsgQKXWBgfSy4S4WAAAAgPlLfVBKeltIuX379otSd+PIbinPTSmvP2YIXgAA1kNoA6DFw4cPq6mX9R0ipanrxJs3b1ZTAAAAAMxNCWkkeHHjxo0XJb2wpuQGna69epbnppTXZ14l0FGCHAAAnB+hDYAW169fr6Ze1neIlKahUe7evVtNAQAAwOnkevTy8nL2ZWm69row16Lnhyu7QY2+9UB9bQc58p7CGwAA50VoA6DFEEOk5Hl1d11kaBQAAAAA5iF1OKcKarQp4Y2EgE6tLjx1aGmq+3r27Fnt848tp3g/N2ABAGMQ2gDY49ghUh48eFBNvczQKK/KxXXdBfEpCgAAAHC+EpBIWGNOchOQHlAAANZPaANgj2OHSGnqZWPpyfyuoRUAAACAuSq9a9TV3zTJDT4p6cGhlLobRLZLeV55bZ8eWBMmmaLXDQAATkNoA2CPDJHSdCG9706HpjFI197LRtuwMm36VJAAAAAAHCP1Ol161ygBjRLAyI04Kan/KGWf8rzy2idPnnxxfl1CHKkzEdwAAFgnoQ2ADu7fv19Nvaxp6JPi6dOn1dTLlt7LRjR9ti4MDQMAAMA56dITwylLn14e1mxfYKOENUpAYywlxLEvvCG4AQCwTkIbAB00XZjnYrmtt426niPWUjHS1CtGKhiOYZxWAAAAYGz7wg+nCGvsKuGNfcENdScAAOsitAHQUVMY4fnz59XUy9Y8NMqxlQPXr1+vpl7VtD4BAAAAhpB6jaabUSKBjVOGNXYluJFlaLKv51cAAJZFaAOgo6agwb1796qpl005NEpTYGQobcGKtkBGMWXFBwAAAFfXjRcXF7MvMIa2eo2pAxtFlqGpx422wAkAAMsjtAHQUdsFe13PE1MOjdIUGBlKU1AlulZsNK2LtnkDAAAAHKup7iG9rM7pRpP0uNFk7Bt2AAA4HaENgB66DpHSdOHcdrE9pDHvuGgbGqVp/dRpGyZGxQMAAAAwhrZ6jS69h55a000vY9+wAwDA6QhtAKtwqm4huw6RUnfhfKpeNoqxgg83btyopl7Vp3KjbZgYvW0AAAAAtN/0AgDAOghtAPTQNp7o9p0adSGSU19kJ/jQdvfIIfb1stG3C9G2njlu375dTQEAAACMb05DowAAcD6ENgB6un//fjX1sjJESlMPF209S4zlwYMH1dTxEtgYqpeNou01Cb4MHTrZlu9pzPkDAAAsUcL1l5eXsy8AAABrIbQBLEpb8GGs4UB2Nd11UYZEmcPQKEWCD0P0WLEvsHFILxuR17T1tpH3HCNYkXViCBYAAAA4P231F6eqW+qjqf7CsCkAAOshtAGsRl1YYix1QYMyJErd0ChNvXOcwrHBjX2BjQRSjulFZN9r895DVZpkPhcXF7XfEQAAAHAemm6uOWXdUhd6CAUAOA9CG8DiNF1YD9WrRBdNw3rUvX+W99Rjou6GSrJuElboG37I89sCGzFEIOXZs2fVVL3cVZJ1e2hlRQlr6F0DAAAAaJL6kzkFJdqGvT1kmFoAAOZJaANYnLaQQAlu1IUTctGd/x8i2NEUwqjrwWGK7irTe0VduCWhhRLeaFpHZT11CTkkbDFEICXz2BfcyLpNgKQsf1nWXWX5U/JdC2sAAAAA2548eVJNvWqsoVr7Sp1GXT1TTHGDEAAA4xHaABYnF6VNvW1ELmhLOGG75KJ7yMb7uiFS6hwzdMgxUgHRtJ6yHprWUdf1NFRgo+gS3CiyfGVZ6z5D+XxNlRsAAADAeWurW0rdwpTBjbbARkw5DC8AAMMT2gAWqe2OiFPp0g1lWwXAKbQFNw6V+Q0d2Cj6BDeOldDNGJ8BAAAAmL99dSYJbiQ8ccrwRun5tC2woT4DAGB9hDaAxTpV436TXCDv621jiqFRdg0Z3MjnzfzGrBzIvC8vLzv3ZNJX5pv5T9UDCgAAADAP+3qsSHiihDcSqBhDGeY1YY19PZ+mfkd9BgDA+ghtAItVGveH7kmij7beNuZ0IZ2gRUIuh66rBB3y+lN+nrxX3nOI8EY+t7AGAAAAsC11S13qS7aH4k2Ao4Q4UhK62NcbR3lOCWikZB7bw7zuk2VM/Q4AAOtzcZkWrMq1a9c277zzTvVos3nzzTc3n/jEJ6pHAPOWC96nT5/WdiGZC9v0epGQxdC9ROQCu05CAmMGBPJ5my7qtw7ttcq6ilOvr0OlYuP58+eN33FsV7LMbfkB6nzkIx/ZfPjDH64eXXn33Xc3r7/+evUIAGAcbdeUS7Lv+vfU0hDfdM26BAkwnOt19Jy/u6V+L03rdKzPc+r3AwDY57333tu89tpr1aMrd+7c2Tx+/Lh6dEVPG8BqJCCROw5SYbNb8v/5+ykv0Obco0NZV3NaX/tkWdq+45Tymea4/AAAAMB8pS6hS68bp1R6DVW/AQCwbkIbAEfInUl15nSBDwAAAMB+CUckvJGwxJR1O3n/BEjmfEMQAADDEdoAOEIZYmRXhuYAAAAAYHm2e/o8VYCjBDXynnoPBQA4L0IbAEdoGuvUnRAAAAAAy7cd4EhJsCIBixLmKGWf8rzy2synhDQENQAAzpvQBsCBbt++XU29rMuFOgAAAEwpDcSlsXjJZW62G/eXWIQG9ss6yv5Twhyl1K3P7VKeV16b+VjfAACE0AbAgZp62cgFOAAAAAAAAMA+QhsAB3j06FE19TK9bAAAAABAc88zY/Uwcur3AwAYitAGwAGePn1aTb3s5s2b1RQAAAAAAABAO6ENgJ7efvvtxqFRMiYpAAAAAAAAQBdCGwA9PXjwoJp62cOHD6spAAAAAAAAgP2ENgB60MsGAAAAAAAAMBShDYAe9LIBAAAAAAAADEVoA6Cj27dv1/aycevWLb1sAAAAAAAAAL0JbQB00BTYiPv371dTAAAAAAAAAN0JbQB8wcXFxebRo0ebt99+u/qfK/m/tsBGhkV54403qkcAAAAAAAAA3QltAFTu3bu3uXHjxosARyn5v6bAhmFRAAAAAAAAgGMIbQAcIIGNJ0+eVI8AAAAAAAAA+hPaAOgpQ6IIbAAAAAAAAADHEtoA6Ci9azx79syQKAAAAAAAAMAghDYAWiSokZ41Li8vX/Su8cYbb1R/mV7CI1muugIAAAAAAADMn9AGwBfUBR9SEtTQswYAAAAAAAAwBqENAAAAAAAAAIAJCG0AAAAAAAAAAExAaAMAAAAAAAAAYAJCGwAAAAAAAAAAExDaAAAAAAAAAACYgNAGAAAAAAAAAMAEhDYAAAAAAAAAACYgtAEAAAAAAAAAMAGhDQAAAAAAAACACQhtAAAAAAAAAABM4OLyC6rpzdd+7ddufvVXf7V6tNl80zd90+aHfuiHqkcAAMCQPv7xj2/+/t//+9WjK3/n7/ydzVd/9VdXjwAAAAAAWKLPf/7zm+/5nu+pHl25c+fO5vHjx9WjKy+FNt73vvdtPve5z1WPAAAAAAAAAAAYwgc+8IHNpz/96erRFcOjAAAAAAAAAABMQGgDAAAAAAAAAGACQhsAAAAAAAAAABO4uPyCanrz+uuvb/7Nv/k31aPN5lu+5Vs2P/zDP1w9AgAAhvSP/tE/2vy9v/f3qkdXfuInfmLz1V/91dUjAAAAAACW6POf//zmT/2pP1U9unLnzp3N48ePq0dXXgptXLt2bfPOO+9UjzabN998c/OJT3yiegQAAAzpIx/5yObDH/5w9ejKu++++yJMDQAAAADAcr333nub1157rXp0pS60YXgUAAAAAAAAAIAJCG0AAAAAAAAAAExAaAMAAAAAAAAAYAJCGwAAAAAAAAAAExDaAAAAAAAAAACYgNAGAAAAAAAAAMAEhDYAAAAAAAAAACYgtAEAAAAAAAAAMAGhDQAAAAAAAACACQhtAAAAAAAAAABMQGgDAAAAAAAAAGACQhsAAAAAAAAAABMQ2gAAAAAAAAAAmIDQBgAAAAAAAADABIQ2AAAAAAAAAAAmILQBAAAAAAAAADABoQ0AAAAAAAAAgAkIbQAAAAAAAAAATEBoAwAAAAAAAABgAkIbAAAAAAAAAAATENoAAAAAAAAAAJiA0AYAAAAAAAAAwASENgAAAAAAAAAAJiC0AQAAAADM0sXFRW3hOLdv365dr2+//Xb1DOYs31Pd95fvFQCA5RHaAAAAAIAzlgbgR48eNTbkp+RvKXleCgAAAMMQ2gAAAACAM1OCGglk3LhxY3Pv3r3NW2+9Vf31VflbSp6XUoIcAhzQX1NA6pz2p3IMSimhsKb1slvKc8vrM68UAIClEtoAAAAAgDORhs00epagxjFKiCONp+fQYJrG4d3G46lKlgWWpAQsSjCjHINSSigspYvy3PL6zCul7BspQhwAwJIIbQAAAADAyqUBM42ladgcWhpPM9/MH2BbAhQJU2wHNMa0HeTI+wpvAABLILQBAAAAACuWRss0YI7dWJr5n0uvG0C70qNGAhRTEt4AAJZAaAMAAAAAVqoENvZ5+PDhi/Ls2bPN5eXlKyX/n7/funWrekW90uuGBlLmoPTysFv0CjOess7HDon1leOSUBkAMFdCGwAAAACwQl0CGwliJJRx9+7dF+WNN96o/vKy/H/+/uTJkxfPz+vaCG7A+UkoomvPGgmApWwHxppCY9ulPK8EyVL2hckKoTIAYK6ENgAAAABgZfYFNtLImQbQBDEOkdfl9W2NpQ8ePKim1qF85lOWfeEYmIsENvb1rlFCGtm2EwBLyX6VkmBYU2hsW3leCZKllDBZCXLsI7gBAMyN0AYAAAAArExbYCINp2nkHELm0xTcSAOuYShg/TIkSltgI8eIBCpKSGMsJcjRJfAkuAEAzInQBgAAAACsSBoimxpQhwxsFPuCGxpGYd3ahkRJeCLHiC69aAyphDeajk2xtt6AAIDlEtoAAAAAgBVpGhZljMBG0Rbc0DAK69XWm0561xizZ40uhMoAgCUQ2gAAAACAlWhrgLx//341NY6m+bcNmwAsW1uvPqfuXaNJ27Hv+fPn1RQAwHSENgAAAABgJZoaIE/RgJr5N93R/ujRo2oKWIspQ2J95NiUYVrqtA3tAgBwKkIbAAAAALASTQ2Qp2pAvXnzZjX1sqdPn1ZTwFq09VIxl142iuvXr1dTAADzI7QBAAAAACt3qgbUu3fvVlMvM0QKnI+mHncAAKgntAEAAAAAK9A2VAEAAADzJLQBAAAAACt26rvem95PqATOwxx71mkbygUAYGpCGwAAAAAAQC/Xr1+vpl41t5DW06dPq6mXGcoFAJgDoQ0AAAAAYFEuLi46l9u3b1evOs6jR49q5z9muXfvXvXuMD9vvPFGNfWqBw8eVFPTS4CkqfePmzdvVlMAANMR2gAAAAAAAHp7+PBhNfWyhCSGCkwdqy1Acvfu3WoKAGA6QhsAAAAAwGCa7mgH1qdtiJSpgxvpYSPv33RMMjQKADAXQhsAAAAAsAJNQxWcMkSRRtImbUMpAMuU/bqpt43I8SdD/bQdG8aQsMaNGzdaj39PnjyppgAApiW0AQAAAAAr0XTn+KNHj6qpabijHdYrQ4zs28cToEh4I8eisQIcmXfCGnmffWG1Z8+eVVMAANMT2gAAAACAlbh582Y19bKnT59WU+NKw2ydpuU61OXlZecy9t306WWg7n3HLGkkhznJftYlnHXv3r0vBjgSsEjQogQ5uoY5ynNLSKMENTLvLj0LJbCh5x8AYE6ENgAAAABgJa5fv15NvSwNmWPd3V60zb9puYD1SHCjTw8WOS4laFGCHCXMsa+U55aQRpegRiRUktCTwAYAMDdCGwAAAACwEmmMbLrb/cGDB9XUOJrmn+XRSArnIft6ghvpgWYucgzK8ozd6w4AwKGENmDmdrv52y6lC8Eh7pRpe5+U/H2o9zpWWZamZS3rZarlzXuW5Zt6GTPv7eVpWpbt5Rlbl/WTUpZpzPXTx75lntvyNskyls/S9jmW8FkAAIB69+/fr6ZelrvRc84/hsy36W73puUB1inBjQzhM5fgRsIahhQCAGbtcsvXfd3XXea/SnnzzTervwDH2N6vtssXLlyqZ7zs2bNnl7du3ap9TVPJvPK6Pg55n5RD3msIhyxrKadY3mOWL2XI9Zr51L1H15LP0rR9HiLzmtP66eqY5W5af/n/uuenjGnu+w+cq7/xN/7GK/vcu+++W/0VAOBwbdcA+duQ2t6r6dqoq7p5pkyh6Xru2M84habvbG3Xf03f2dD7QF9N67/rttRU7zP159rVtP5PXQAApvJbv/Vbr5yb3Llzp/rrl+hpA2Ymd6ZkTMauYzEWZezHrnfGH/o+Ud4rd+KfQpY1PQAcsqxFljfzGKPngCGWL/p+h3Xy2ixL5nOMfJYsTz7bMbKNZHnKGKPHOOV2l/WYz37Mcue1Y21zfcx9/wEAAMbRNgxArg+Ovd4rMp+m641bt265ux14xcOHD18MoZKS6ZQcL1L2Kc8rpbz+8kXGCwBgmYQ2YCZKY/uxDdtpXG2reCmN0ce+TwzRqN9mqHWybchG/zGW7xj5Lo4NawxlO6wxtLG3u7Ieh/pe9+2TY5n7/gMAAIwvDaJNcq2Qa4ZDz/HLdV/bNYdhUYAmGUKlDKOSkqBZSsIXbaU8r5TyegCAJRPagBlI4+qQje2pMMk8d5X3GbIRN/MaoxF36HWybYhG/zGX7xD5PEN+r8fIuhkjrLEtn3WMIMRY63Gs5W0y9/0HAAA4jTSItgU3Iuf4CV/kPD/X97meqJP/z99LWGPfdV/eN+8PAABAO6ENmIEHDx5UU19SuvfbTZOXbgP3SYPtbkVLUyPuse+VipqmSp1DdGlwblvmLst9TNiky/Ll/bMchy5fH/uCBllX5X3rlifLkuecUvn+mpYpZd8y5TMPud11CWx0We6m7/aYba6Pue8/AADAaXUJbkTO83N9n+uJhDJ2S/4/f98X1oi8n8AGAABAN0IbMLHdhuI0pqbxtHTvt6t0G5jn7GtY3Q6D1N0Zn/dKRUqX99pXwVMXPDnEvgbnLstcljvPy/ObHBI22bd8pSE8719XQbW9fGW97vse27QFDbbXVXnfXWVZ8pyyTbWts2NkvmX9lO+vaZlS8px9292+cEJXXYIvWfYuy52/N2172eaePn1aPRre3PcfAABgGjnPz7VY2zn+EDL/vE/eDwAAgG6ENmBCabzdDWykMbWr0rDaJPNOo2ruiN9tkC7v1bUiJc/r8l7H6NLg3HeZ8/y2Sqm+jf5t4ZSsn7qG8DZZxi4N5HWyvpqCBn3XVZFlyeuOCZLU2Q489LFvu4tjt7u6/WNbWZd9lr1se3XL3vZex1jC/gMAAEwr5/hjhPUzv1z/ZP7A4XKDRF1PN7vF9TgAwLoIbcCEthtvS4NqX2lYbWtgT8hgt+vSsd7r+fPn1dRh2gIRpdH/EHldW4VUn2Ee2kISXRvD65QG8rb1u6ttfd+/f7+aOkwJkty8ebP6n8NkveQuq75hjW1ZN23BjWMrKnb3j22H7ivFvmUf0hL2HwAAYHrbYf22c/0uMo8S1jjmmpjDJLyfkuuylPQimXLszQ0AAMBpCW3ATBzTMNzWIF4XMjimQb/tvdoav/dp6+0glUjHNPpH2/rtutxtjdPHfH/b8jm7VnQ1LXcqzYaoLMs8jlnvQ95lte/zHFohVTdsUHFsYKPIso8d3FjC/gMAAMxLrhNyrl+GyiwhjqYgR/lbCWqUgP4Q159Ll+uiut4Qxi65iSEl75+S68KUY2+qAQAATktoA2YgFR7H6tooPESDftvyHtp43tTwmwqhoRr+29ZRl+XOcDZ1miq0xtS2vNevX6+mppN1PXTF3RD7ya62oMNQ211kXYyx/MUS9h8AAGC+Er4oIY4S5Ngt5W+CGgAAAMMS2oCJpVE1FR7H6lJhMtR7tYUCDrmbo623g2OH+djWto7chTKcrOcxKvCWut0VQ+x7dew/AAAAwFDqenU5tDTdZJL/r3v+saVJ3XMPLW098QIAHEpoAyZ28+bNaup4+3p8GOq9hm6Qb+vtYOj3aurtoOkisoum5Z/KWhvQ27aFpl5Q2pxyuytO3VvIEvYfAAAAhnXINTLzkOvuup5udkvXHncBAFgGoQ2Y2JB33+8LZQz5Xk0Bkb4VA23p9DF6O2jrrcEQD/O3L5jUVdt2N2SQatfQvW3YfwAAgLWra7BOOTe5Ht4taeDfLmnIz7oZaphMAADgNIQ2YEK5wD6VU75XH00hjyzvGL0dtM3zmB4q5tRgveY7aoYKVLSto7GGMRnDWvYfAACAJcj14m545FQlQYzdkuXZLmNcBwIAAOMT2oAVabsLfujeA5rm13eokKbnj9nbwaHalunGjRsnDW60VcRknd6+fbt6dB6G2u5OEW7K3U9DWdL+AwAAAAAAwKuENmBC596wOlXvFE0N8/t6qGgLxcSpgxttAYNzDG4MYUn75NL2HwAAAGD+6np6Ub5U0qsNAMDQhDbgTOwLHEyhbTiFKS6A9vXWkN4t9vXEkODGo0ePqkfjun//fjVVrwQ35jR0Sx9Z7qzLlHyOlHv37lV/PVzb9zPH/aTJ0vYfAABgXnJtdHFxsdgCAACwFkIbwGSWeGf+vqBEJFiQCqRUgI0ZmOgSIklDeoIkCTy0hRWmUhfMKBVwWe6sy5R8jlOEApY0/q+eLQAAADjUkydPansRWNJ1MQAArIXQBjBLpeF+jHJM438qL549e1Y9apewQel5Y6zwRipZ9gU3Ip85yzNleGM7nFG+iymCGecQdtje3ocup/iOAAAAAAAAzoXQBkBPfYIbUcIbafAeI7zRNbgRJbyRZUl44hQS1Mj7bYcz5qjrOgQAAAAAAIChCG0AHKAEN/o29JfwxtC9XSS48fDhw+pRNwlPlPDGGGGS0qNGghoAAAAAUNQNmVvqkvaV8tzy+sxrrF5uAQBOQWgD4EAJbiQs0afXjaL0djFkeOPu3bsvxp/tGyRJeCNhklzsDnGBm3lkXsf0qJHPkJIgSkrWcT5b32AKAAAA9co15NzL0nRtdJ5r0fDNWLYDGtnW6obM7VqXVJ5bXp95lRulSpjDtgwALInQBsCREt5IRdIhgYJcWA4VlihKkOTQ8MYxQZJ8jsyj60V2XTAjJZ8hJZWIKVnHAAAAAFNKvUddKYGEUlLXU8IJx9SzrEFZD9sBjTGVMEcJceT7AQCYO6ENYHbSkF8a709djlHuUurb80YJSwx5EVl6Acny9A1vlCDJIfI52pSQRlnfghnDW+r+AwAAAKeSupg06PctqfeoKyWQUErmP3Y4Ye5KWGPq9ZDvJ8tx7uEZAGDehDYABlZ63kh4o0/vG7mIHCP9X8IbWZauAY5cUPcNbux7ft6/hDQAAAAAzsHTp0+rqfOQcMQcwhq7yk1Ket4AAOZIaAOYnbXciZDwRul9o2t4Y6zgRmRZEproOnRK3+BG2/eW95x7WGMt291aPgcAAACwLKlHSjiiq9Ija0rqjlJKb55NpTwvpby2q9SZjFn3BgBwKKENYDI3b96sptavT3jjwYMH1dQ4ytApubjdF97IxWyXC9m2cEc+s6FPhndO+w8AAMDSdWmMPmXp2hMndJW6oX03kpSQRtkOd4fN7VJ/VJ6XUl5b5leCHPsIbgAAcyO0AczSWi+cciGZC8g2XYMSx8rFbS6O91XUdAmRNF2UZ975zHPSFnY4xXo/RbeoKh4AAABgGKnb2FcSFNguqfspJXUva7cvsFHWUQlpjKUEORLgyPu1EdwAAOZEaAOYzPXr16upVz1//ryaWp9cQO4Lbpzy8+8Lbuy7S6LN0L1BrGEc2GPW57Zz3X8AAACgq+1eGA4tqTfZV/I+26X0BJGydgk+7AtslHV0Snm/1L+11XkluAEAMAdCG8BkzuHCtcm+4Eaf8T+HkIvntovYR48eVVOvWtpdCWsJO5zz/gMAABwv13kXFxezL8C8tfXQOnVPI6k72VfnpbcNAGAOhDaASTVdNJ06tDCFuTW6H9orRlvQoS0gcYgheqloW+9jb3fpLnRI57z/AAAAANNrqqtJncVc6r7agiN62wAA5kBoA5hUW1CgrXeHtWhL+p/a0AGLoQ25PbSNazrmdjfU0CjFue8/AAAAwHTa6h6m7GGjTltdEADA1IQ2gEm1jWeptwC2PX36tJo6XltAZaztbuheNsL+AwAAAEylqa5mTjcpFW11QYZIAQCmJrQBTK4t6T5GQ/cSzO3itu3Ctu1vbUOn9JE7N4bspWJf95xD91KRi/+he9ko7D8AAADAnBw6BO+Y5jZMMQDANqENYHJtjf5p6B4z7Z7G+a7zn1MDeJ/lntIQvT3kc47Ra0Rb2CHvN+T6ffDgQTU1vKXsPwAAwDLkWuny8nL2BQAAYC2ENoDJJene1oB+48aNURqGE8LoEwZIA3heM9SyZD5NvS90uSMh62XIHiHaggVtdyPsu1PhmPWV1+ZzjqFtaJEYarvLNjNWLxuxlP0HAAAAWJem+qshh7gFADgHQhvALHRpQB8qoJD5XFxcHNSQntcMtSxtIYl966NIo/kQQZK8vml9tAUCijFCA3lNXjumZ8+eVVP1jgk85HV1gY0u67Ovpew/AAAAwPrNsc6grV7E0CkAwNSENoDZ2NeAfmxAoTQ2D9E7QOaReR0aRmjrfaFvo37mk0b5zPMQWS9t4YguAZK2ITqib/ihbplu3bo1eOAhF+WZb5tDAg9l+Xe/433b+DGWtP8AAAAAy9dWH9S3LmVsTfUZ++qFAABOQWgDmI00oO9reC4BhTQe5+IvDdB1jdD5v/w9JQ3VYzU2by9LWZ46ZXmyLHWN+UUuFLv2srEr88yy5D3K8tQp6yx/37deuoYM9g3REbvf266yfpqW6cmTJ9XUsDLffRfoWZ7tZT9k+bMux7xzY4n7DwAAALBcbfUcqUeoq3OYQuo2mnQZohgAYGxCG8CsdGl4Lv7/7d09jxTLwTbgWQnJucPHkgMki9DpI3RIkJD5HQ4dEGEITLgJSAQEjpz6N1iYYJNF6AkdI5GeH2EJ7+ub7XrPsExVz0f3dPfMdUml0z07H0V375ytqrur0vjLAHQZhF4veSw/T6kFJIZUPmtTXdbr06pLggNDBBPyGaU+tbqU+rTsGjJI2GSbuxNqx6l1fLa9Jva1TXAjSt13rX/ee8zARrHU3x8AAABgmVr9EOlfmDq4kcBGq79m35unAACGJLQBzM4uA8+HyuwQxxhM7zNUYGMouwY2im3DD7vYty67GqPukfof89ye4+8PAAAAMI30C7T6UxLcSHDi2OGNzB6aG1NaN6O8evWq2wIAmJbQBjBLafDd3Nz0Lrmxr7xv3n+XNP0YA+Fp1O4zqL/trBa7KsflkIH4ocIPeY9D67Kr1H2o81zO7RShhjn+/gAAAACnqa8vKMGJMtNnWa51DLss8zpVnw0AwCZCG8CsZVA4jaghBp/TeDxksLkMhA9RnzKgn0btvg3EvLYMzLcaxtsYehC+hB/2qVc5T3mPKRwaeFiv/9SN/zn9/gAAAACnK/0g2/QDleVaE6xIwKKEOErZRnluXns3qLHNMq/pKxHYAADm5OImoy+dBw8erD5//tztrVZPnjxZffjwodsDmF4aZJ8+fVpdXV0116MsHj9+vHr48OFoDbFd6pO6xJgD3mmopi7Rqk+py5jHpijHKDbd5bB+fOYYBug7x7vWP+eodhzGDqrM7fcHWK3evn27ev78ebd368uXL6v79+93ewAA46i1TZZmrWtzFjJ4XGtvLYHB7OOoXSe5WWKbvoW07xN8uOsYfQt95vzdkuOTJVFc4wDAsXz9+nV17969bu/Ws2fPVu/evev2bgltAMARTRnaAOZHaAMAmIrQxjiENtjGKYc2IvW7vLyc1e/CtscWAGBI24Y2LI8CAEdUZkIBAAAAOEUJ/iQ8MtSSrftKiMVSrwDAEghtAMAMlCVrAAAAAE5BwhsJSyQ0cawAx3pQI8ERYQ0AYAmENgDgiJY8TS4AAADAPtYDHOshjpQELUrps/7clPIe5X0FNQCAJbr47x8y/3/hxwcPHqw+f/7c7a1WT548WX348KHbAwAO0Vozeu1/x8AZefv27er58+fd3q0vX76s7t+/3+0BAAB87+PHj6tHjx51e79IiCGhBQAA5uHr16+re/fudXu3nj17tnr37l23d8tMGwBwJFdXV90WAAAAAAAACG0AwNHUlkbJnTAAAAAA28hSI2U5kPVilg0AgGUS2gCAI8jSKDWPHz/utgAAAAAAADgnQhsAcAS1pVEyy8aLFy+6PQAAAAAAAM6J0AYAjOzp06fVpVHMsgEAAAAAAHC+hDYAOFsJU4zt48eP1cBGmGUDAAAAAADgfAltAHC2Eqa4uLj4FqwYQ9730aNH3d6PXr9+3W0BAAAAAABwjoQ2ADh7CVYMHd7ILB6twMYf/vAHs2wAAAAAAACcOaENAOiU8MabN2+6R3aX1+Y9WkuiJLDx/v37bg8AAAAAAIBzJbQBAHe8fPnyW/CiBDgyA0dtFo48nudkZo08P69tEdgAAAAAAACgENoAgIaEMDIDR5mF427J43lOa2aNQmADAAAAAACAdUIbAHAEr1+/FtgAAAAAAADgO0IbAJyt6+vrb2GKMWV2jZubm9WLFy+6RwAAAAAAAOCW0AYAZ+unn376FqYo4Y0ELIaQ98n7Jaxhdg0AAAAAAABqhDYAOHslvJGARYIWJcSxTZAjPy8hjfWghpk1AAAAAAAA6HNxk9GlzoMHD1afP3/u9larJ0+erD58+NDtAQAAQ3r79u3q+fPn3d6tL1++rO7fv9/tAQAAAACwRF+/fl3du3ev27v17Nmz1bt377q9W2baAAAAAAAAAACYgNAGAAAAAAAAAMAEhDYAAAAAAAAAACYgtAEAAAAAAAAAMAGhDQAAAAAAAACACQhtAAAAAAAAAABMQGgDAAAAAAAAAGACQhsAAAAAAAAAABMQ2gAAAAAAAAAAmIDQBgAAAAAAAADABIQ2AAAAAAAAAAAmcHHzX9326je/+c3q559/7vZWq9/97nerP/7xj90eAAAwpOvr69U//vGPbu/Wn//859Wvf/3rbg8AAAAAgCX6z3/+s/rLX/7S7d3605/+tPrrX//a7d36LrTxq1/9avXvf/+72wMAAAAAAAAAYAi///3vV//617+6vVuWRwEAAAAAAAAAmIDQBgAAAAAAAADABIQ2AAAAAAAAAAAmcHHzX9326sGDB6vPnz93e6vVo0ePVn//+9+7PQAAYEh/+9vfVpeXl93erevr69Vvf/vbbg8AAAAAgCX6+vXr6v79+93erWfPnq3evXvX7d1qhjaePHmy+vDhQ7cHAAAM6e3bt6vnz593e7e+fPnywx/yAAAAAAAsS0Ib9+7d6/ZubQptWB4FAAAAAAAAAGACQhsAAAAAAAAAABMQ2gAAAAAAAAAAmIDQBgAAAAAAAADABIQ2AAAAAAAAAAAmILQBAAAAAAAAADABoQ0AAAAAAAAAgAkIbQAAAAAAAAAATEBoAwAAAAAAAABgAkIbAAAAAAAAAAATENoAAAAAAAAAAJiA0AYAAAAAAAAAwASENgAAAAAAAAAAJiC0AQAAAAAAAAAwAaENAAAAAAAAAIAJCG0AAAAAAAAAAExAaAMAAAAAAAAAYAJCGwAAAAAAAAAAExDaAAAAAAAAAACYgNAGAAAAAAAAAMAEhDYAAAAAAAAAACYgtAEAAAAAAAAAMAGhDQAAAABgli4uLjYWDvP06dONx/Xjx4/dM5irnKNN5y7nlLY3b95sPHZ5HABgSkIbAAAAAHDGMgicQcvaQH5KfpaS5xngBAAAGI7QBgAAAACcmRLUSCDj0aNHq5cvX67++c9/dj/9UX6WkuellCCHAAcAAMBhhDYAAAAA4EyUpRVKUOMQJcSR8MY5LKtRQi5zKMIyAABwOoQ2AAAAAODEJVSRcEXCGkNLeCPvm/cHTk8Je82hCCwBAKdIaAMAAAAATlgGXBOqaC1/MoS8/7nMusHpqwUVhJMAABia0AYAAAAAnKgS2Ojz+vXrb+X6+np1c3PzQ8nj+fkf/vCH7hWblVk3BDeAMTx8+LDbAgA4HUIbAAPKFI254yLl7p0Y+ZlOKwAAAI5lm8BGghgJZbx48eJb+emnn7qffC+P5+fv37//9vy8rkVwAxhD7TsKAGDJhDYADpROqBLSePny5be7ijZNOZufpdPK2pvzcjdcU4rzBAAALFlfYCMzZpSwxj7yury+NfPG5eVlt3Uayr/5mKUvHAMAACyf0AZwku7OdDHW3T0Z2E8n2FDrAqee6/W2TioAAAD7aAUmErTIjBlDyPvUghtpK2vXwvJldotNoaKxSu07pRUSAwBYMqEN4OSkQ+huiGKMGS7yOZk9Yyib7oLKvyPhDQAAANhW2pe1mwuGDGwUfcGNsW6kAM7L48ePuy0AgNMitAGclAQzah1TCVgM1VG0KRhyqNa0te5MAgAAYFu19uUYgY2iFdw4tWVSgHEN3ecGADB3QhvASbm6uuq2Nvv06VO3tb9WMCTSSZU1Z9endby+vm6uQ9sXJtFYBQAAYBut9uWrV6+6rXHU3l+bFthWa6bcFy9edFsAAKdFaANgR60lURLOyN1FdxuRWfszj+XnAAAAMJbazQq5wSBt0zHl/WuzbQy9ZClwmmo3ZNW+WwAAToHQBsAOWp1MCWT0dYCV8AYAAACMoXajwdizbBSPHz/utr7XNzMmQNRm5ql9twAAnAKhDWASCT88ffq0d1mQXfU14A4NTLTS/ofcsdT32tbSKnDKxvquAACAc3NIm3UXtXa3JVKAPpZGAQDOldAGcDRl8PXi4uLbnT9jdNikAVebLnGIaRTHTPu3lk55+PBhtwWn7xjfFQAAcIqEnYElq80UZGkUAODUCW0AR3HMwdf3799/NzNFGnbZz+OHGDvtn7ueEtxYb4im3tssuwKnQlADAACGd+wBz9rnCZUANa1+t2Mt7wQAMBWhDeAkJURxc3PzrSSsMeYUikN2fiWckfqWuqfeAhsAAAAAnLLWLBv6xgCAUye0AbClq6urbgsAAACYUmbp27Zk+cUhZCaATe8/ZqkNZMMpaf2OmmUDADgHQhsAAAAAALAFy3kOK2Go2jE1ywYAcC6ENgAAAACAwRjU5hR8+vSp22JMrdlkjjXLRuqwaaabWvn48WP3SgCAYQhtAAAAAMAJqN2RfswQRWsw0x3zwLrWsihm2QAAzonQBgAAAACciAx0bpIlCKZUqxcskZkWDpfARmtZlPfv33d7AACnT2gDAAAAAE7E48ePu63vXV1ddVvjevToUbf1vVq99nVzc7N1GXvw9/Xr1xs/d8zy4sWL7tMZS2vZDkunHKYV2IhjLYsCADAXQhsAAAAAcCIePnzYbX0vA6Rjzw7Qev9avWCJjhWCOkX5nmgFNiyLAgCcI6ENAAAAADgRGeysLUVyeXnZbY2j9v4GYVmavoBTK3RAXY5rbTaemGpZlF1ny/F9BgAMTWgDKtKIyHqvKRcXFz+UTOOXMvWasOtKfUvdNtU7pdS7rwHK+djlek+ZWqlv7Tpfry91OY59xzLF8QQAgGWpLS2Qgeb8bT+GvG9tINtSByyN5U+Gl/6HOQY2AADmQGiDk5YBxk0DkCk1aUCkoyGNiKxdWVu/Mh0RKfl53i+vyWuPbX2wtdS31K2m1Dv/xrwu73Fo3VvHOqWm1GGbsm0dN702ZZsB502vK6V2TPP4puffLX0dY/tcr4fKMc3773K9p+Q1ff+eMZRjVOrbOielvqWu25z/c5Bzvn4c+45lDHk8W9d5Ss0Y3xUAAHCqWrNt5G/7odtzeb9amyJ3sLsrnaVJ+7ePfobt5VilXd8i3AUAnDOhDehkkC+dDGlAtAYva/KavHbojo+aNHbyWX2DrdvIe5QBUYOd52E9rLGvXHd5j2Nc82Wgf5tOk01S17z2WL+fc7T+HbfvcSzWj6fvDAAAmKfWHev5m36o9lHep9YvkeDIixcvuj04LVdXV90WLfmO6OuHuL6+Fu4CAM6a0Ab8VwYd9w1r3DVkx8cmZeA1jZ0h6nvXMYMnTCPn95Cwxl3lmh9j8H79eh9C6npu4aRyDIf6jluX98v7ntPxBACAJclAaE1pH+07W0AJ17faGe6cZ4m2beMO3cY+RemP6DtOAhsAAEIb8K0hNuQAdqQxkkbJ0Epdx24UjlV/prdNY3kfec+hB+/HvN7PKWhweXk5+nfGOR1PAABYkgyEtoIbkZB8mUUxQYza3/Z5PD/fdiZEA7EsVdrR29o39HTq8n3RF+oK3xMAALeENjhraUBksHGTrLmahsPNzc13JY/lZ33SKBmy4daq67pMPdqq+y71F9w4LdsENvqu+9qayMU21+g2tr3eS333qfNQdT0F2xzHPrt0agEAAMezTXAj0l5MECNtpQy23i15PD/fZibEfJ6BWJYo/RF9fSfrtvl9ODfpf+rrc0lfje8JAIBfCG1w1jY1IMqgZdZc3dRwyGP5WZ7TN5A5VMNtmwHs1CV1ypq1rbqv17+v02aX4EZ5z1qpKcd7m7Lp3zS0TZ9bSm3wP49vev7d0lpPeGx9gY1y/fRd9/k39F33h4Z9tr3ec+2U+u5b50PrumTlGK6f99ZxzPNaoZ1cX9sE1cp71UrN3L4rAABgSfI3cv5Wbv1NP4TSPvY3OUv16dOnbut7aUPXfn/MtnEr/Tl9/U+R45i+Gt8TAAC/ENrgbN1tUO3TsZDBx77gw6ENt74B7NS7DF7vqnTatAbhdwluME99DeZdr5++637bwfuavhkbSn13/V3d1EHZ15Fwita/M3btIEmnyt1juO7q6qrbAgAA5qiE2lt/1++jtDPy/rBktRuwHj58uHr8+HG39z1t4V9m19g2sAEAwPeENjhb642wQxoMGfRshR4OnW2jL7CReu868HrXNoPwCY+wPDlvrQbzvndA5TWta2bf6z5hj1Z985mHXO/5fRm6c3JJSifqWMcw584dRgAAMG/pA8jf9UOEN/IeQ7Qz2E/a/Clph6Vk4DxFH85+au3ZXOe5vvO7s8k5t4VzvWX5pFZfTlG+KwAA+JHQBmfvkMBGkUZbq6Nj34ZbGj41Q9R7XRqfrfBJ33IVzFPrvLVCF9vou2Z2ve7TqdQKexwa2Cjye3Nox+TS5N875BTFtbuLwh1GAACwDCW8UWbgTEnbodZeKj/L89I+y+vyHkO1M5YsbdkMXB+7pM2fks9PycB5Sm2JD9pqfRKZZaOo/X60+jNO0S5hjRyzofp0AABOldAGZ+/Vq1fd1mHGGMRsNXzGSKb3hU/cqbEsrdDEUI3l1jWz63Xf6lQaunE/xu/PXOW7aeh/b847AABwOvI3fkraDiXIcbeUn+V5Bl85Na0+lPXrvdW+PvXZNtIvuEtYIxLyyjHznQEA0Ca0wVlLw2GoRsPQg5itWTZS77G0Qixm21iO1qwVCVkM2ViuBZa2bcDHMetbjPl7NCdjBSxqYZ1dzjsAAADMQa1PIjeR3FXrTzjV2TYSRkk/ZfoFt23zp88gx26sPgkAgFMjtMFZW5/ecAhDDmLWXpPPGLPBk8Hx1mC22TaWoTVrxVCzyxSt63Hbu0yOWd9Cx8FhWrML+Z4AAACYjmUrd1Pru6jdRNLqT2jdhLUkJaiRWTUSRtmlbzP9imbXAADYjdAGZ23oxsNQg5itge7WZwylFWaxLuoyHHvWilpgaduOotbdKGM28s9lto0xDB16AwAA2GTTUi0p5ybt7rslbdr1kpkNcmxaS3jwvdbMn62bSDbNwBEJN2x7A8ucpc2/601ouQZz/blJBgBgd0IbnK00JIY21CBma6D7GA2f1iD5qU71eEpaAaGxZq04ZImUVn3H+D1lGO6YAQAAzk36ZNaDI8csCWLcLanPetFO211tKeD0R7SOZ36W4Mwm6Ttb+gyUrX/fXXlertFcgwAA7Edog7M1xl3ircbcLjNUtJZGORaD5cvVutbm2IHTqu/YsznoUBiHGXkAAACYu9aMGNv0FyQ4U3N5edltLVf+fa2+yBLWaB0HAAC2I7TB2Zrj4HW0kvjHWBqlaA2WL/1ugVM3xdq1Y10vc/09BQAAAJYrfRW12WRrS59s0lom5enTp93ecm0KZJRlUIQ1AACGI7QBM9O6Q30uswK4i37eajO1TDV7St/1UuskMdvLfKQzKyV3IaWk4+ni4qL7KQAAsET52z5/1y+1wL7Svq0ti5LZI3a5gSTPrc1GcSrBjQRT8m8sYY0lz1qauuffcLeYiRUAmJrQBrCRGQ6W6ZBZLThvtWBGSjqzUhKwSakFgwAAAFiGzJKwafD6HPqDWkuX7DN7RF7TCm4sva8m10T+jYINAADjEdqAmaktbVFr/MG2Mti+flfSkKV2h0qfVsdFa8kVDrMezlg/h4IZAAAAnLLcoFBr7+6yLMpdr1696rZ+lLb20oMbAACMS2gD2FktWALMWzqJ0kG1Hs4AAACAc9AKbGTpj0NmGclrW6EPwQ0AAFqENoAqs3vAaUjHUJlNwwwaAAAAnJtWYCP9X0Ms/ZHgRsIfNWmTZ8bLU7K+tOqSy6mdFwBgeYQ2AOCEpeMhHUOHSAdWOp5ScudQStY6BgAAliuD1Pm7fu5laZY+iH2Ks0G0Ahvx/v37butw+b1q3QSVGS9THwAAWCe0AQAnKh1BuyyBsimYkZIOrHQ8peTOoUOmjAUAAIBj6QtstJY02Vfa0K3gRuojuAEAwDqhDYAzsT4If8wyxBSj7C4zbPQthVICGuvnSjADAACAU7BNYGOstu82wY1TndkEAIDdCW0AVbWG7ePHj7stYI7S6dOaYSMdR+mcKgENAAAAOBVpEycQMVVgo+gLbkSWMzXrBgAAQhuwEH13zEOfT58+dVvLsLT6zknr2KXDKB1HwhoAAACcmgQ2EoRoOUZgo9gmuJE+v6XOuJF/3/psq3MvmXEUAGCOhDZgZsxiwSGWNhAvODC8vlk20qECAADAca0vTTmH0hckWKLMWDGnwEbRF9zIz/SPAACcN6ENmJmHDx92Wz86Zur+zZs33daPsqQCy3N1ddVtLcMx6rvUO1laWrNspHMKAAAAztEUgY2iFtzIY26uAABAaAMWxHIRbKN298Zcl9hp3W0ytnP7nRqyc+oUAy8AAAAsV2tGiykDG0Xqt748h8AGAACF0AbMTKsB2VryYGi1WQ6mHGBnO6eyxM5cQyZzt7QZVQAAgGlkhs2Li4vZF9hFQhB3Z5mcQ2CjyOy1qY/ABgAA64Q2YIbWU/d3Hevu9tqA+akEAk5Za4md1rI3U2ldU2PX95hBqGOp/e4OHbgy8w8AAABzlIBGCUbMKbBRpD4CGwAArBPagBlqDbpfXl52W+N5+vRpt/Wj3BHAvM1ltpZtta6pMes7xwDLkpxi4AUAAIDTUIIRcwtsAADAJkIbMEOtBmXuoh97to3anfqtGUD25W79cbTO1RzDCq1ZIMaqr9DB/o4148863xUAAAAAAMApEtqAmbq7/ua6R48edVvDM8vGaeibvWKKQfeW1hIpY4QrWtf50tUCMLUw1j7G/A4CAAAAAAA4J0IbMFOZbaM1+8AYg86Z0eCYs2wwrtb1M+YyOwmE7Do7Rl8gaMjrPfUbMsCwJEPMWnLKgRcAAOC2/X9zczP7AgAAcCqENmDGXr161W39KIPOQw9k12Y0yOD/obNs1EIflqgYT9ZurRn6+ilyHWUWhqurq+6R7bWCQUPVt9TvlLVmLdnnvKzLORg78OK7AgAAAAAAOCdCGzBjmW2jtUxKGcjOQPQhcvd9ayC7Nfg/hEPrT902QYghjn/eI+91SCAiwaDW7CCHBjc2Xeet47NUrYDVIccwrxs7sNHHdwUAAAAAAHBqhDZg5vqWSckgagai91n2oAy0t+5gb4VGdvHw4cNu60epv8HYcWwThNj3+on1sMYQA/qt2WWihA52uV5q1/kQM8jM1ZDhl3L87p7fob4b7vJdAQAAAAAAnBOhDViAzHTRGoSNDEhfXFx8G3xPqQ1slp9vM9CeQdmERobQFz4pwYFN9S71NVi7n12unxzn2nnIYynlGsrzhwprFH2zy0Q+L5/bV9e+Oo49g8yU+v5tOR7r5/uuvuOXGUqG+m64y3cFAAAAAABwToQ2YCG2GXiPDL6nZGAzA653S/l530D7kIGNom8WhVq9t6kvbdtePznOtfOQx1LKNTSWbYIb0VfXVh3HmiViTnY5hrscv1xHY89Q4rsCAAAAAAA4F0IbsCAZeB97sDkDsjc3N6PcRZ/3zB36TGPb4Mah8hl9g+59tg1u7Cp1y/uOcX3PzRjHMMevbxaPIfiuAAAAAAAAzoXQBixMGYgdekAzg7F5z7EHZHOH/jGCA2xWgj9jnIMSiMhnDBGKyHskQDRUXcv1PUTdlqJ8XwyhnNtj8V0BAAAAAACcA6ENWKAMxGZAc4jwRgZFy2D22EseFCU4wDRy/eQc5LwPMSie9xkyrHFXuV72rWup37Gu77nJOUn4Zd/vinL8xji3fXxXAAAAAAAAp+7iJiM5nQcPHqw+f/7c7a1WT548WX348KHbA+bs48ePq0+fPn3bvrq6Wv3zn//8tr2uDHo/fvz423/nMIhd6v3y5cvukV+s1/dcB9yP5c2bN9+um9h07cT6+Xj48OG37SkG8vvqmnqWOk5Rv7nL8YvW98Qcj5/vCk7V27dvV8+fP+/2bn358mV1//79bg8AYBxpG2z6+3pp1ro2Z+Hp06fVdvUSTBXaZ3tpHz969Kjb+0Xaxrn5gbra915uWNGfAACM4evXr6t79+51e7eePXu2evfuXbd3S2gDAAAmIrQBAExFaGMcQhuMTWhjf0IbAMCxbRvasDwKAAAAAAAAAMAEhDYAAAAAAAAAACYgtAEAAAAAAAAAMAGhDQAAAAA4My9evFjd3NwsvszN+/fvN9ZzKeWnn37q/iUAAMCxCG0AAAAAAAAAAExAaAMAdvTmzZvVxcXFbAoAAABwHjIbyqZZUjLLC221GYbyOADAlIQ2AAAAAAAAAAAmILQBAAAAAAAAADABoQ0AAAAAAAAAgAkIbQAAAAAAAAAATEBoAwB29OLFi9XNzc1sCgAAAAAAAMsktAEAAAAAAAAAMAGhDQAAAAAAAACACQhtAAAAAAAAAABMQGgDAAAAAAAAAGACQhsAAAAAAAAAABMQ2gAAAAAAAAAAmIDQBgAAAAAAAADABIQ2AAAAAAAAAAAmILQBAAAAAAAAADABoQ0AAAAAAAAAgAkIbQAAAAAAAAAATEBoAwAAAAAAAABgAkIbAAAAAAAAAAATENoAAAAAAAAAAJiA0AYAAAAAAAAAwASENgAAAAAAAAAAJiC0AQAAAAAAAAAwAaENAAAAAAAAAIAJCG0AAAAAAAAAAEzg4ua/uu3Vb37zm9XPP//c7a1Wv/vd71Z//OMfuz0AAGBI19fXq3/84x/d3q0///nPq1//+tfdHgAAAAAAS/Sf//xn9Ze//KXbu/WnP/1p9de//rXbu/VdaONXv/rV6t///ne3BwAAAAAAAADAEH7/+9+v/vWvf3V7tyyPAgAAAAAAAAAwAaENAAAAAAAAAIAJCG0AAAAAAAAAAEzg4ua/uu3VgwcPVp8/f+72VqtHjx6t/v73v3d7AADAkP72t7+tLi8vu71b19fXq9/+9rfdHgAAAAAAS/T169fV/fv3u71bz549W717967bu9UMbTx58mT14cOHbg8AABjS27dvV8+fP+/2bn358uWHP+QBAAAAAFiWhDbu3bvX7d3aFNqwPAoAAAAAAAAAwASENgAAAAAAAAAAJiC0AQAAAAAAAAAwAaENAAAAAAAAAIAJCG0AAAAAAAAAAExAaAMAAAAAAAAAYAJCGwAAAAAAAAAAExDaAAAAAAAAAACYgNAGAAAAAAAAAMAEhDYAAAAAAAAAACYgtAEAAAAAAAAAMAGhDQAAAAAAAACACQhtAAAAAAAAAABMQGgDAAAAAAAAAGACQhsAAAAAAAAAABMQ2gAAAAAAAAAAmIDQBgAAAAAAAADABIQ2AAAAAAAAAAAmILQBAAAAAAAAADABoQ0AAAAAAAAAgAkIbQAAAAAAAAAATEBoAwAAAAAAAABgAkIbAAAAADCii4uLjeXjx4/dM9jG06dPNx7HN2/edM+A48l1t+l6zHXK/NW+T3wvAwBTENoAAAAAYPEygJpBuNpAXEp+luelGJgDAABgDoQ2AAAAAFikEtRIIOPly5erf/7zn99KTX6W56U8evTo2+sEOH6R41BCLbXwSwnGlOedu03HKAUAAGBbQhsAAAAALMrdoMYhSoDjXAMIJaiR45njUEItteNagjHleXldCXEAsJ9aUG6OanUVgASA/QltAAAAALAIJVxwaFBjkxJAOJdBp/w7M/BWghqHKCEO4Q0AAIDdCW0AAAAAMHsJBBwaLtjGOcy6kX9f/p1Dh1/WwxvuuAbyXZOS74SU9VkZSinP8Z0BAJwzoQ0AAAAAZi2DfX0Bgz/84Q+r169ffys3Nzc/lOvr628lP+9TggenKP+uscMvOVcJhRiEhfNUAhr5rknJd0LtO7w8J98ZJcQBAHBuhDYAAAAAmK2+wEbCGgljvH//fvXixYtvZZOffvrpW8nPS4gjr63JZ55acKPvWBYJtpSQy6bwS37eOnaF4AaRQfj1mRXmWE7td30qJayxzfdMTQIceQ/fHQDAORHaAIAZWu88Wi/uOAEA4Jz0hQxKWCNhjF3lNXlt3qMmn30qA4d9x7IENRLMSLClhFzuKsGXHLs8t2/mEsENOH35Hd82FLatfHcI0wAA50JoA85QSb2XovMEAACAuUlbtS+wsU9Y4668Ryu4cQqhg23CLyWosasyc0lr5g3BDThd+d3O7/iQgY0i7ym4AQCcA6ENODObOmrSsHL3PgAAAHNyeXnZbf1oqMBG0RfcaNVl7tLerw2mJmiRwMUQx7Jv1pIlH0NgsxLYaMn3zPpMPqVkP6Vvth7BDQDgHAhtwBlpddRkvUh3vQAAADAHrfZrBvmGDGwUreBG6rLENnPqnPb+JhlITdBiSDmGtQHYHEM3jMDp6Ats5Dsm36n5ntk0k0/2U8psPa3whuAGAHDqhDbgjFxdXXVbm3369KnbAgAAgOnU2q8ZBLw78DekvHc+Y5MltplbdX716lW3NawMwNaOYS1Awmkrg/KHlppNz921DB1gOget2XNKKGyX7+tcJ7XgXAh+AQCnTGgDAAAAgFmpzbIxVtBgXe0zlhg4qNU5d7SPGX5pDYAbdIXl27T8clECG/vI91JCNK3gl5mCAYBTJLQBAAAAwGzUBvUziDdm0KBofcaSBgtbdc0d7WOrLXXQNwsoMG/5bhkjsLGuFdBrzfBxii4uLmZXaucfANif0AackcePH3dbmx2j0wYAAAD20demHVItcLCkJVJqda3924ZW62Mw2AfL1gpNDLXMTMJztaVS8h1itg0A4NQIbcAZSYdJbXrB2uMAAABwTGZiGEZtaZSHDx92W+Or9TVYIgWWqxa8GjoQluBG7Tvk0aNHG2eA2KUIkAEAcyK0AWcmiff1RlQaP9kfKgkPAAAAYzhm2KD2WUsJlLTuQj/GEjNFbXYUwRxYpqdPn3Zb30v/4hgz+LaWSQEAOCVCG3CG0oi6ubn5VhLWsCwKAAAAnD6zbAKHqM1OMdbyVQmZHWtJJwCAKQltAAAAAMAJ+fTpU7f1vbEGVmtqM5Zk4HfTcgV9xXIGMJ3askZjzbJRHHOWpTkqN97NqQgAAsDwhDYAAAAAAICq2rJGY4fBjrmkEwDAVIQ2AAAAAGBNbaYKYH4+fvzYbTGFYyy7XFsiJY9vmglim2K2CABgToQ2AAAAAJiN2l3bxwxSTHVHObCZYMb0plyeqLZEysuXL7stAIBlE9oAAAAAYDbmMDhXG5ys1W0pamEUWDIz44yvFpo51mwVlkgBAE6d0AYAAAAAs9EanDvG3fZv3rzptn60lIHDuYdL9l3SYEnLGVxcXCyiPH36tKvxvAlmTKt2/Ocw+5BZWACAUyC0AQAAAMCs1AbnLy8vu63x1GajWFJgoBYuOfbyBgbaOQYzyJyHJX0HAwDsSmgDAAAAgFl59epVt/W9hA7GvKs6s2zUgg21OlFXG0xf+jIzHF9reaRjh5HO0Rx+l2uzegiHAQCnQGgDGE060tLhlak2U2rTcOY5KaYz/OWY1Y7TEMpnbPqc8lnr52UKqeP69bOpninrdZ2DvjrPrb4AADBXmSmidlf1o0ePvv3tPbS8Z21gOHVZytIoRe34HbM9UhtMX9qxBDbzuwwAMAyhDTgzmwaSU4bstCkD1ulIS4dXOmlqHTV5PM9JyfNLXcbogDum/BvWj+962ST/3vysHLO7ynE65Ljc/YxNnxPlfJXn5DU5p2NL/cpxSx3Xr5+a9bqWeh6zA7JYr3erznOpLwAALEFrZov87T1kuzHvlfesef/+fbe1HLW70o+1lEStrfP69etuC7azze+6tvX5sjwOAHAKhDaAwZSwRm3AelsZ0B66A27O0rHQ6hw8VI5jCRTsK+e0hAyGlvrlfVO/nPtDlEBE3u8Y108Ja+xb7/X6AgAA38sd3K0B/qHajX1tsuvr625rWV68eNFtfS/tkGMMcNfaSae2NMrNzc2iyxICSdssf2HgflyH9vUN4VyXVUq/09zKHK4HADg1QhvAwUoowB/su8tg/aFBhZYShhhKzvFQgYj1sMbQ107eb6gO3E1K3Yc6d6lvfofGqi8AACxVgge1ZT4if/fv20bZ5u/6JS6Lsq527MZsh0aOa43lFNjVNterPikAAJZMaAM4SDq5hgwFnJMcuzE7FdJJNsb7DxWIuLy8HL1TZYzgRrnmx6j7GPUFAICly0wAreBGaaMkCJ0ZJPI3de3v6vw8Je2lvr/r85lLXBZlXav+rWDFIXLsa8d1qbOWMJ1d2sjHmEEGAADGILQB7C0N53RytWQq23TK3J1+M4+lnOtattscu0NsE9honZv8rNUpGmPWvyh1bNWzT8IhQ9n2vG1T79rxPcZxBQCApekLbhS5Iz9/U6eUadzXS36e0tdeOoXARlFrN+UYDB3caLWZckzNssGutlkapbBECgAASyW0Aeylb/A6nUIZoM5Utps6ZfJYSn6+PpB9LmpBgjLYvz7In9Ia5L+rL7CxzbnJz9JB2XdOxrgza/0YlDq26pnntY5NjsUQd9vsElLapt6t4zvWHW8AALBk+Rs6f2+PLZ9xKoGNSPuj1mYqwY20dw6VdlerzXRKx5Tj2WUpn74wFsu2S4AHAGBphDaAvbRmLyiD1rsoA9l57bbhhKVKZ9jdjoS+IEUZ5N/0s3V9gY1dz005JzVDBSIi573Ur+/feVeOTeu6GeJum74ZO/ape56/KXSiowkAADbL39v527svYL6P0i7btT2yBK02U9ofCVvsGx5PG7fMYlLTaldCTStMVLue3QQxjlafC8PI93T+H7Tkcor//wSAYxHaAPZSG1ROI+6QP9Dz2jRSxuiAm4u7dwaUwf5DbQqDrNu38ZTXtDrYdrnrpSbvv00opaWvE/KQcEle2zq2qf9YdQcAAL6Xv71LwPzQtmP+Dl8P0Z+yvnZH2jwJX2TQO22g2oB5Hk/Jc/L8vhkJD20vcb5as5Q+fvy42/teq+3O8FrBmmOpXQsAAEsitAHsrDX4nU6gIew6Y8GSrIcchuy8anWU5XMOkTq2OkP3DUSkw3DIJH6rob7vbBvpgOi7Y2yI+gtuAADAbvJ3eJm9rgQ4Ump/V+fxUkpQI3+Hn3pYY9027Y4MeqcNlDZmQhl3Sx5P2SbAL7DBvtIWrwUwHj582Py9NdsGAABLI7QB7Kw2+N3X8cP3cryG6rxqhSaG6iRLh0jtHO8TiEjAYqiQTzFGZ2trzdShOyCHPh4AAHAuSoAjJX9XJ5Bxt+TxUsZoOyxF/v2tUP4Q0nbMMRfYYF+1WTbW+1Jq17HZNoY3h9kshlj6FgBgroQ2ACby6tWrbuswrZkghgyGxJDTj47VSVoLluxTx2Me22LszlMAAIC0xxKqqLWfDpFwe4IhsK/WLBvrfSmtfgWzbRxH60aXobVmXgEAWDqhDWAw7mTYXgbmhxrwbzWQhwqGFK0OkX2XSBla6+6PdPzs4pjHtjjnO/4AAIDjSrhiiPBG2rgJa5hdgyHUZtmIu9dXa7aNXfsAqKsFI+Yw+4XvHADgFAhtAExgyLsAjj0TRK0zby7TVB7j2MaYnQJm2wAAgNOSMMOmMpfBxhLeSPAi7ZG0+1pBjvxsPaiR8PkpDJxeXFwojXKMmzVas2zkerurdeNDK/zBbmq/38e6gat27bW+pwAAlkRoAxiUuxi2M1RnVut4jzUTxJBLpIzhGMdWqAIAADhFaU9lEDwhjhLk2FTys1MJajAvjx496ra+l8H52vXWmm1jLrOCnrJj9AXO5UYhAICxCG0AO2stP5HGteBG25AD/q3lO3Se/WiXtVZbzx17vVRLpAAAAHBuWgGL1o0paUPXZlxozaDJbmr9Wbv0teyrdqNQHt80K8w2ZS43HwEAhNAGsLO+AWvBjbYhB/ynuNOgVf9zOe8CMQAAADCc9CfUAhYJC/S1w1uhjqdPn3ZbHKLWHzR2MMZsKQDAORDaAHaWhnLfmpEJbmhUja92V8BUy3cc4+6KdenUScm1lpKOmNwtMYRWZxEAAHBc5W/9scvdwd20MzY9b6jihofd1JZsMVvh8tWWRYltzm/6qmrt9fSdCG4crhWcGfO7zNIoAMA5ENoA9tK6g6HIoHc6odLJpSPqF0PN0nAuxzT/zpS7wYyUdOqk5FpLMbUlAAAA+9oUCFF+KWOFY1qBiuvr626rX2uZlPQX6Js6XC0Y0wrdHCLnbKl9PWOH/k6hAAC/ENoA9pLgwbYN5wyml5k3NJCPowRmxihjNcRjPZyx/nnHDma0rtMhl7cBAACAc5b2f62dv82yKHdlNpaa9C3olzrMsZfMvby87LYAAE6b0Aawt12CG1HCGxmI10hmXa6H3FmzHs4AAAAATlf6Amrt/8yYse/MHq2+KsGNw6QvsDXbxpDHthXoyTneNBvMLqVv6WcAgGMS2gAOUoIbuzZ0SngjDTDOVxrzZTaNpU53CQAAcIpKe+1uGbMdv74c5noxyH56ck7TF1CzzbK8Na1gQQhuHKY128ZQM2Pk/LQCPbvOwAIAMHdCG8DB0lDK9JO7zLpRpAGWDhjhjfOTc97qoNlGGurpiEnJ9VfutAAAAE5L2px375I+pGzbfs2d/ptev2sBftEX2Mjv56GD8vndbd1gJLixv1YoJjfkJHx1iL7ro7UEDgDAUgltAINJoy2dUa27GWoS3kijToP5PORc77IEyqZgRkoa6umIScn1d2inDgAAADCevgH5tP2Hatunz0BwYxytUMwhwY1tro+lGCr0d0ipBRRz7jY9/9gFAPiF0AYwuNIo2fbOpSKNOg3mYawHG45Zcu77tNYkLUpAY/19UwQzAAAAYJn6BuQzkLxNv8IutglumP11P60ZL9Lvs+vSRgl6HPv6AACYC6ENYDQZXM+Aewbfd0nCC26crpzX1gwbaYDneikBDQAAAPj06VO3NS9p42Zg+m45dHmIU7RNYGOsZS/6ghtl9ld213fDVs55ficSjNnU15fHc+zznNYNPmNeHwAAcyC0AYwug+8ZhE+AY9vwhuDGYebaodWqV2mAzz2sMddjCwAAMKRa2+fq6qrbGl7frIws05SBjaIvuLHPzBDc9vn1BTciwZgS4Fgvebzv915gAwA4B0IbwFHtEt64vLzstthkaTNRpOOjNcvGnBrgZvkAAACAw/UteRGvXr3qtsbVF9wINxHtrgQ3+o7tPgQ2AIBzIbQBTCLhjb4kfpL2Gsr7GfPOp321ZqjY5q6MuTjGsXXdAwAAU6u1fcaaDaPVDppjG5e2nM/MpNB3vaQ/4Jg3TvQFN45dn1ORY5Zju8vyyC05RzkXAhsAwLkQ2gAmU5L4LZaiaKt1NIzViTaWITtEhgo8jHGHyLZc9wAAwNRa7co3b950W8extDYut+38Vru6DMpPEZCoBTcENg5XbtLaN7yR85LX5hw5FwDAORHaACaVBlgruNFaToPV6vHjx93W/J3KnVE6CwEAgFPXF4Yfo33XF14/dlCEw9XCEXls6kH5u3XLtpDAMHIcy/LIJcCx6TqIPJ6S5+T5OS95LQDAuRHaACanUby/hw8fdls/mluHVi3sUGu472uoWSpagZixj62wEgAAfO/p06fflloYqjx69Kh7Zzbpa1eNEWbvawdZImWZNoUj8tgcpB4JFcypTqemBDhyfBPKuFvyeIqgBgBw7oQ2gFkYeuD+XLQCL+c68D/Uv7vVYTDmsXX3GAAAMLVt2jwJ0gxlm2UuzXq4XBmUT7/PHMMR6VeZW50AADg/QhsAC9daJ/TcAgDbdPTtohUmGuvYnmvYBgAAmIdt2zpDhii2nflEyH25yowKAADAj4Q2gFkzA0e/vhkhhg4y7Kt2Lqfo6NtWa4mUMcIVQ96pBgAAsI9d2jpDtGF2abMKuQMAAKdIaAPYmYHl+WmFWy4vL7ut4aVzbYg7nYZ4jzGuy741VYeeDth0vwAAwJRqbbPr6+uN7c60YQ5tF9XC97V2rj4JAADg1AhtADsrnTJDzeDQGqxuzXTAL1pTjA7RibZJzls6166urrpH2lrnctv3qMm/b6zAQ2v5maGObTmWAADAbhImuLm5Gayc8/INaZfUZrL46aefVq9ever2vpd20b79A7WQSNphtXNxyOcBAADMkdAGsJd0kmSQeYgZElozQfTNdMAvtgkXDNGxlffIe+0aMmidy0PCD2MGNiL1bs1kckjdI79Dd49l61wCAACModbGSzAmEtyotVXy2l3bm3l+LSTy8OHDb/+tfd6YM0oCAAAcm9AGcJB0sFxcXOwVBiiD/7UBdwPXu9kmXHBI0GY9rLFvSGLI8EPt+ikdikOq3VFWlLrv8ntQ6n+3kzLHSFgJAAA4plpbLO2ThDWKVrszbcVd2nS14EX6Aspn1j5v1/YjAADAnAltAINI50zCGwkEpNQGr/N4fp7Oldbgv4Hr/WT62FoHWlGCNjkHtXOVx8q5SsnzDwlrFH1TDef91+t2V6lTrT7rnXtDynv2hUFSl9JJ2TqufcfznKdjBgAAji9tlFpbb1OAvdXuzPukTbSpPbQuz6l95t2+gNYyKXkfAACApRPaAAaVQEBKBqQzMH235PH8vNY5E+n8MXC9v1YH2rqcg9q5ymPlXKUMaZuZMErdNtWrVp+xgz7bBDei77i2jucYs4QAAADUJFxRa6O0QvF9wY20fWrhjVZgo9Ymqj2e9xHcAAAAlk5oA5gVgY1hbBvcOFQ+o2/pkLu2DT/s4ljXzRh1j9Q/71vrEAUAABhaAhUJV2ySNkpfKL6v3ZlAxd0lUFqBjVZIJI/XllAV3AAAAJZOaAPY2ZiD1gIbw8mxzDFtdaLta/187RM0GDL8cOzrJnW/ubkZ7Lim43Hf4wgAALCPLIlSC2zEtm2sPK/WNsrj6+/TCmzkuX0hkfy89lmCGwAAwJIJbQA7K4PWGSyv3emyrXS4HDL4T1uOaY5tzlOtc2sXeZ+hzle5jva9hkpdprpucgzy+fse11L/MZd0AQAAvpfZJdZLwgulZNC/lCxvmJ+fovz7hly2sbSN1qW9k8eLfGYrsLH+3JY8rxXcyHnLuQQAAFiSi5uMmHUePHiw+vz5c7e3Wj158mT14cOHbg+gLp1Znz59Wl1dXTU7YuLx48ff/muwehrpwMp5im3O1cOHD79tjx2OKB1rtWsodSr1mSqo0dJ3XOdef2Aab9++XT1//rzbu/Xly5fV/fv3uz0AIFqD/mMZMiSeMMEmQ35Gn7TbW7NrxKH1yXnKEprlPfo+M+2kbQMb6/quh7zvej3Gss0xXYK17mF2kH6ATQGofa9rjqv2PXLM7+Wx1b6jXKMAcDxfv35d3bt3r9u79ezZs9W7d++6vVtCGwAAMBGhDQDYjtDGYWqDy+uGrkvfZx46aLjNNZHPSHh+rJtGhDbOm9DGsgltuEYB4Bi2DW1YHgUAAAAA7shskkuXAbsERo4Z2MhAdt9nDjFgmNfnfVoyIFtmjwQAAJgroQ0AAAAAODEJbFxeXnZ7dUPfVV6WjawZ8g7vvE/qX3NKd8wDAACnS2gDAAAAgJOTcECtvH79+oeSAf6ULBWRMtaSGseSsEJrNoo8nn/n0KGGvs8cKrBRpP45b3c/U2ADAABYCqENAAAAAGYtA/0lTLFtyWtqJYGMuyUD/Kc4yJ9/76ZAQx4fy7E/M+ct753wTRwrsJHP2HTtLa0AAADTEtoAAAAAgBNWAg0JUhwr0DDFZyZ8kxDCMT4LAABgKBf/bcj8/zj1gwcPVp8/f+72VqsnT56sPnz40O0BTO/Nmzerly9fdnvTc0cKAId4+/bt6vnz593erS9fvqzu37/f7QEAAAAAsERfv35d3bt3r9u79ezZs9W7d++6vVtm2gAAAAAAAAAAmIDQBgAAAAAAAADABIQ2AAAAAAAAAAAmILQBAAAAAAAAADABoQ1gUV68eLG6ubmZTQEAAAAAAADYl9AGAAAAAAAAAMAEhDYAAAAAAAAAACYgtAEAAAAAAAAAMAGhDQAAAAAAAACACQhtAAAAAAAAAABMQGgDAAAAAAAAAGACQhsAAAAAAAAAABMQ2gAAAAAAAAAAmIDQBgAAAAAAAADABIQ2AAAAAAAAAAAmILQBAAAAAAAAADABoQ0AAAAAAAAAgAkIbQAAAAAAAAAATEBoAwAAAAAAAABgAkIbAAAAAAAAAAATENoAAAAAAAAAAJiA0AYAAAAAAAAAwASENgAAAAAAAAAAJiC0AQAAAAAAAAAwgYub/+q2V7/5zW9WP//8c7e3Wv3ud79b/fGPf+z2AACAIV1fX6/+8Y9/dHu3/vznP69+/etfd3sAAAAAACzRf/7zn9Vf/vKXbu/Wn/70p9Vf//rXbu/Wd6GNX/3qV6t///vf3R4AAAAAAAAAAEP4/e9/v/rXv/7V7d2yPAoAAAAAAAAAwASENgAAAAAAAAAAJiC0AQAAAAAAAAAwgYub/+q2v/m///u/bmu1+p//+Z9uCwAAGMPPP//cbd3yNzgAAAAAwGm42//7v//7v93WL34IbQAAAAAAAAAAMD7LowAAAAAAAAAATEBoAwAAAAAAAABgAkIbAAAAAAAAAAATENoAAAAAAAAAADi61er/AdsnriKSyPyqAAAAAElFTkSuQmCC;" parent="1" vertex="1">
                    <mxGeometry x="-584" y="-490" width="228.25" height="100" as="geometry"/>
                </mxCell>
                <mxCell id="A81RwFwUyYRlChPBO0ci-155" value="" style="shape=image;verticalLabelPosition=bottom;labelBackgroundColor=default;verticalAlign=top;aspect=fixed;imageAspect=0;image=data:image/png,iVBORw0KGgoAAAANSUhEUgAACGoAAAOxCAYAAACn89OjAAAAAXNSR0IArs4c6QAAAARnQU1BAACxjwv8YQUAAAAJcEhZcwAAFiUAABYlAUlSJPAAAMYKSURBVHhe7P1RrBx7fh/49ZkRjTX04Id9FBAkWNwHZxUBUbQrmHMJC8xalzEg3CgPdlYWBEUPhK3MhXYpmYSxBOxYtAEyoIWB7m504cQCFAfrAMHsGFgoZHZBjEEOsTK0WgSRAwdzlchYyc6D9SJIiQ3O8Ox8eeo/t2+fquqq7qrqqurPB/iD3Tx9qquruuv0v37f+v8vLr9jAwAAAAAAAADA6L5Q/QsAAAAAAAAAwMgENQAAAAAAAAAAJiKoAQAAAAAAAAAwEUENAAAAAAAAAICJCGoAAAAAAAAAAExEUAMAAAAAAAAAYCIXX/jCFy6/o7q72fyJP/EnNn/yT/7J6h4AADCkf/Wv/tXmX//rf13du/Kn/tSfqm4BAAAAALBUyV784R/+YXXvyk//9E9v/t7f+3vVvSsX32mfpTQAAAAAAAAAABjEhx9+uPna175W3bti6hMAAAAAAAAAgIkIagAAAAAAAAAATOTiC1/4wuXbt2+ru5vN9/33/63Nn/4f/0+qewAAwJD+X//3/2bz3/6/v1ndu/Lv/c//wtWkhAAAAAAALNb//4//aPON/9uvV/eu/I2/8Tc2f/2v//Xq3pWLGzduXL5586a6u9n82E/+zOYXHv9ydQ8AABjSVx7+/Oarv/or1b0rX/+9P9pcXEhqAAAAAAAs2e//7u9sfuJLP1Ddu/L06dPNvXv3qntXTH0CAAAAAAAAADARQQ0AAAAAAAAAgIkIagAAAAAAAAAATERQAwAAAAAAAABgIoIaAAAAAAAAAAATEdQAAAAAAAAAAJiIoAYAAAAAAAAAwEQENQAAAAAAAAAAJiKoAQAAAAAAAAAwEUENAAAAAAAAAICJCGoAAAAAAAAAAExEUAMAAAAAAAAAYCKCGgAAAAAAAAAAExHUAAAAAAAAAACYiKAGAAAAAAAAAMBEBDUAAAAAAAAAACYiqAEAAAAAAAAAMBFBDQAAAAAAAACAiQhqAAAAAAAAAABMRFADAAAAAAAAAGAighoAAAAAAAAAABMR1AAAAAAAAAAAmIigBgAAAAAAAADARAQ1AAAAgNH82e/73k7t//GPX1e/AQAAALBughoAAADA2firf+nD2qDIbvtP/5Nfqn4DgDXKcb7u+L/b/D1g7XwWjpOwcd32qmsAsE1QAwAAAIDOhF2Wr25/1TWAOnXHi7pmtCw4na4BnHyvO5W69alrAGslqAEAAAAwUyly5UR72r6ARH6eVh4PAJyHuu8FdQ0AmA9BDQAAAIAZKeGMFFS+/ON/bvMrf+vhu/aPv/5fVo+ol5+nlcfn90twAwAAAJgPQQ0AAACAGdgNZwyhBDdKaMMw9N3tG8FkLs0+hWVwTAEAYJugBgAAAMAJpSiW4thQ4YwmCW0kBJJiIQDA0iTUmu8xTcGn/H8ekyZ0BMDcCWoAAAAAnEgKCQlPTCmBjRQzFDCYizKazL52qpBRCVN1aQAMq4QzcoxNqLVM9VanjCSWlu9X+R3fdwCYK0ENAAAAgBNI0WHsUTTapICheAE06RNQmUNLMRfGVPe+m6KdqxyDynelpmBGFwIb7UqA9xQN4NwJagAAAADfNXRhrqtyEn2ItoRiXQoPxxQdhiKsAQDMTb4n5TvKkN+VsjyBLgDmRFADAAAAYEIpEswhpFH82lceV7cAAE5rzDBrRufI8gFgDgQ1AAAAACaS0SsOne7kL/9HjzYf/2f/xbv2j37/j6+1/Dzt3/2Rf6/6jW5SDHGFKQBwalOMOJblC2sAMAeCGkAvOXlXN7RwUxtb32GZDekLAACc0m//5m9Ut7pJ6KIEM/79n/0PN/+jf/fmu1YnP0/73/6f/uG7wEYfh4ZHAACGMEVIoxDWAGAOBDUAAAAAJtInEJGwRUIXTcGMNglsJNzRZ3QNo2oAAKcwZUijyPP57gPAKQlqAAAAAEygzwh/CVgkbHGsBD04TLbd9tQyfVvXUU3yuLrf79oOCfIA03NMgXr5fjR1SKNIgNYIzACciqAGAAAAwAT6THsyZMCia3Hvt77x9eoWAMA0fu0rj6tb3SXQuhtKylRxXb/zbPvyj/+56hYATEtQAwAAAGBGDikytPn+H/rh6hYAwHxk6pE+o2kkoJFARgKtuyOPZTSY/F9+3mfqtzjnUTWyrbYDL1M2gHMnqAEAAADAyYYdB+YpRc+6wlqfloJpF0MUCoeYLgqGUPf+PKatWaYe6SrHiQQ09k3Pk5/ncX3CGkbVAOAUBDUAAACA7xqiMHfqtvRinSlI1qHrfrS/gS4cU1ibjKbRVQlp9NE3rHHOo2oAcBqCGgAAAAAzMvTIFr/9m79R3WrXp5jBcA7d33/1L324+bPf970HtaXKtqp7PWM3V1qzJEZHYin6hIp+6uceVLf66fN7jvUATE1QAwAAABhcrpJMSzF5X0E5Py+PX/PVjN//Qz9c3dov22QI2Z5dhxX/wS/9SHULAI6Xwnfd3/2mxnnpGipKkHTfdCdN8nt/+T96VN3bz6gaAExJUAMAAAAYRAlmpNiScEBaTsLvOxGfn5fHl6LOGkMbfYoM2SbZBsfI9utzdWifIAn7dS1AhcIQsI9jCmvS5ztO3ylPdvWZEq/rKGRrkmPLdmBqygZw7gQ1AAAAgKNshzP6FJLabIc21lRw6jO9SLbBoSNrpADSdwjvQ69W5bq+IZtzLAwB3TmmsDZdpz0Zalq2rqNq9JmOBQCOJagBAAAAHCSFowQphgpnNEngIIGFNQQ2+l4VWq5yzOvP9m7aBvn/tLJPEvLo4+P/7L+objGEvoWevvsLOC+OKaxN1++OQ03L1nXUsLG/0wLANkENAAAAoLcEB6YsBOXEeQIbawhr9Jkrvcjrz/Yuo4zstvx/2iH75Ji536l3SKGn7xXzwPlwTOFc9Zm2pE2f7zlr+K4JwDIIagAAAAC9JKRxqisO1xDWSNFhqKG8h/BTP/egusUQDp2uJiEbxSFgl2MKa9M1RDT0d6WuQVlTBwEwFUENAAAAoLNThjSKNYQ1MgXKHMIamfLEaBrDOubz8WtfeVzdgvNy6r8rc+aYwrkaatoTAJgrQQ0AAACgkzmENIqENZbulGGNPK+QxvAOvfK9yOer65XGef/8o9//44MasAxTHlMYTt0UZfvasft6SX7rG1+vbk3r+3/oh6tb7U61fgCcH0ENgAGk05uWTlVaXYcrLT/L43L135RXAOa5ttexad2212/O9r2OIWxvr6bnStveZnPfbgAAx8h3nUNCGgkEZKjphAJ2i8X5v7SuQ1HvyvewpUuxPdtgysBGtneeV0hjWId+RnaZrqBZPie7x5EpWj6jHGbMKQTa+updWj5rc+aYwrnrGqzoyvceAObm4saNG5dv3ryp7m42P/aTP7P5hce/XN0D+LycCO3Tkc0JjTGlo9nnSrqcXBnqS3m2RRLWx3aac5I0HY+hOwvZNjkhcsyJh5wEywncIfR57zQ9b5dlHLPOc9+nwDp85eHPb776q79S3bvy9d/7o83FxUV1D2CeUhDr8z3pkO9lfb/fR9/v+F1fR77T/fs/+x9W96bRt7/V11DfU+e8DU8phd8hDdl/3dV1Xcfu0xdd3/tD9lH76HNsmmqbLUWf49pYx/NjnepYNudjStd1G/M4dgpD75Ntxx7fjjmud/2cDvVZ6PrZHeN4OsbfP38jANj1+7/7O5uf+NIPVPeuPH36dHPv3r3q3hUjagD0lM5EvtSnAzPECYEsJ1/m0ykaSpaVZXY9GdIkry+vNa/51LIOx76eJkvYpwAAp5TvNX2+J6Uwc0ixIcWc/G4fY16tPbUUP3ICP4WQFGyGkuVlu2b5ayqYzckYfab0KVL8gSXr049f0/H8WI4prNkQ594AYA0ENQA6ysnpFPPn3JlIh7sEDoZUAhun6tDnBMUY230J+xQAYA76zNWdUMAxYYC+YY2xwrynlEBFgi4JbWRblOBGaU3yszy2BDPy+2kCGuPq018p+7KrFFbHKNjCHPX5W7NmjikU5bxVl0Y3fT4vADA2QQ2ADtKJnfsJ4HTe0uEe0ymuvuhzgqKPJexTAIClycnvIYbETqggxSeutkUJbpRWAhi7LT/LYwUzptOnv1I+H9lPfWT5eR5XwrM0fd+zY/T9l8YxBQDgfAhqAOzRp5N8KlnHqUIHU4Y18jxjbPsl7FMAgDnp+t3pB7/0I9Wt433/D/1wdWs/xaZ+sr22W0Lf2y3fl9NyhW7+pV7ffsVP/dyD6tbV9EB95HnSF8v+gaU4ZCqTc36PO6YAAJwXQQ2AFumw9ukkn0LfjvwQpgpr5HmGtoR9CgAwJ32+9+XK3qGc64gQ2wGKtpbvtXUt/YPdtjs8er5nb7eEvrdbvi/7ztwu27XPNsqV79vv6dzuW1iN7J/sw7wHYO7yfu3rXKc/cUwBush3ve3vdNr1BrAkghoALQ45qTCldKRPdQJ1jBDFtnQ8xjD3fQoAwGdSiFqquhPHXdpuiKKp5XttXSshi+3GsA4pqNZNTXBoYTXyHsj7RXGVuTq0T5/P1ljnA+bKMWV96qYn29f6TmEDACyfoAZAg0NODKSznLm06zpc6SynDTXXdjrP6Uj3lefPeuyuW/6/74nwnEwYS04yD23u+xQAgPXo+92a+UsfrG9BNbanJ9h1TGE1SnE1fR0FVubkmD79uYyq4ZgC0+v7eQOAMQlqADToe2IgHeGk35uGe05nOS0/L0X+Ywr8fUMaOVGc583zZz22lfXK+vc5oTxW52as5c59nwIALN3QRZ2u3wt3v98yHAWNKylapg/Wd3ukj7Dv/Zmf53HHSFE863dIOH1Jsv1TRJ669e1/n7tj/xZkP3d5L6e/Xi6kOKSdsv/umALzJWwLwFQENQAa9Oksd+ko78rjU+DP7/Y9OdC3o5zn6DqEYh7XZ33GHFWjTl5LWt0Jln0dqTnvUwCAuerznei3f/M3qlvHW3px6Ae/9CPVLZasXPF+yOgAffoUeVwef4z0h5pC5jClIYItY4yyOQeOKdA9CGFUFwDWTlADoEafjkA6F31OXu/K76bj26fz26dDn8BA3/XLunTtNPW9+uNQOcGQQEZeS93ryTonZNIUSJn7PgUAmLOu3w3zPXWIk+pZRtfvvF3XDfrIezDF1EOueI8+BdUij0+f55D3dH6nazgfxjRkyG7qC0PG5JgCnzlVmHWI76gAMCRBDYAaQ14JOLQ+Jz3SsT40LNCn0zT21Y6HnJDYNed9CgAwd32+G6YIdcyJ8Pzur33lcXVvv7mOXLGm0O45FTbStzmmmBrH9l9SHM0y+lBQZQ5yrBhyJIx8Bpd+/HFM4Rj5LlFGkt3X1mjoc3ldl2dUNACmIqgBcKRDO9qH6nPS46d+7kF1q7+5nFgeIqTR19T7FABg7vp+N0xB6pAwb36nbzFrTYEITu/7f+iHj+oPDNV/yTKyrC5XwvctwMJY+oTsusrfhCVzTIHr8rno4re+8fXq1jCGXh4AHEtQA2AAU13h0fd5ju3Mdx0ec6yOTp5/iBMShzinqwYBALrIlHp9JGD8Z7/ve9+FL/Ldqun7VX6elsf2vRK77zpNrev36alkfbZbtt92S3Fut+Uq3VN9Jz+FUsw8RH5vyG2VZe27En7o54RD5TjeNZCQ402f4+OSp0BxTIHDDX0hVdfldQ2SnEKfUVbOtQEsiaAGQI2+X8hzhccUhf0+Q/7lxMexug71N3THqThmRJBdc92nAABLcejIFQlf5LtVWsIYuy0/7xvQiBT5lj6axnZoorTt4ERaimbbLSegu37Xz+O2T1ynQLfdsv22W4pzu+0c5XVnW3eV/ZbtO9b2ynLr9nvun+s+Yl7Sd+5zHM/xJsegrnLO4ZzCGo4prF2f99kpzs35HAAwFUENgIHkxHO5WnAsfUaumHP6u6tTd4ym2KcAAEvSp9A0tiFDvWNJITLFsKa2HZoobV94gmlkW3d5v6egmv02hbwfsk4ppuZ5cx/mIH3nrrY/V7tBgTbnEtZwTOFcdP38DzWlUtfjRz4LADAVQQ2AGoeeAC1XC45V3O8zcsXUJ3GHfr19Tth0Mdd9CgCwJF0LTWPLOkz9fZfzs+/9np9NVVAtsk4ppk79vNCkT3gi/fztY3fey32KomsPazimcE66XmCWz/0Q5+O6nlPtOrowAAxBUAOgwTFBgVLcz1DOQxX4+y5jd0jpQ9ohQ1APZYwRQea2TwEAlmhfoWlsee7tQh+Mqe79nsJyRkRZ8vtwd3SXpjaVFIrrnv/Q1rXvV/blkO2cJDTR54KSuhEbEhA497DGGo4pMKZjR9Xoc8yoO04tVc5f7p7rXWJb8jEfYB9BDYAGQ30xLwX+fKlU3O9ujBMU9ikAwDBKoalPce1YClnDqjsR3rX1Kcyuwfb7Pf9OceV5+hkpsKSl31Fa3f7YbuVx5Xf1VxhL3md9jgW74YRtfaeyWktYY8pjytC2w0ltzd9smuS90TVUl8/8oX/P8ntdj1VTfq8FgBDUAGjRdiKhr3QKtkdk4DTsUwCAYeQEe4pLx4xa1kVOmuc5DMvOKZX3+1hFxxKsKGGM9DMSEE9Lv6O0fcrjyu+W/krpswhuMIRDQhptn538rG9fPc+/9LDGVMeU0sqxoK2Vx5bfzzHDcYOx9BlNN3/PDnkv9hmNw7QnAExNUAOgxSEnC7rICbN0gPt0MH77N3+jusUx5rRPAQDWoExZMHRgYzugsaZhqGFbCqHpR5RgRZ/id1/bwY1SgIW+UsTv8z7NsbxLGCGP6ft3JOuhH36lhDKyPXaPKaV1UR5bfj/HjO3jhmPH8LI9t1vZzmWfbu/X3F6TvkGlvlOg9D1e+b4JwNQENYBRjd15myK8MFZhP9LZXVsnawhjDzVonwIADK8ENvI9K8W2vgW3fAcs4YwsR0CDNSuFtxRCT6EUYBVd6aNv0TPH9D6jIeWYf8j5gHPth5dCfjmW9Nk3h9gOb+R5HTualWBFl5btud3Kdi77dHu/jr2PT6HP+bm8/myzLu+9vservt9bAWAIghpAL32GpJujvkntIr83xlWCkU7DOZ5QODX7FABgHPmelWJbCW509VM/90A4g9VLYTVFprkU20rRVcGVNnl/HPK+zXG9r/wdOCSskXXLOuYztnblOFIK+aeQ582xo2vRHJrke2Pfz3zee3VBw9wv4aU+n408v++fAJyCoAYwqrVN15Ev7eUKwSGl86Cwfxr2KQAAMIX0D1JYnaMUvfRfqJNiaN4ffaWffejFMoeGNSKfsRRp16gUoed2HBHY4FiHhLpK0DDvvdJy/5Dw0iHPDwBDENQAFu23vvH16tZ+h3byd5UrBIcu7qcjMWSnNlcvTtkOPQEzB0vZpwAArFO5OnpfU0hfplJcPaR4NKUSNteHIfI+yHHnkFDAMSGN4piwRp5/bfLZPLQIPZWs3zmMaMLwcrw41ec2x5kln9MEYNkENYBe+n5xHTvlf8oOainuJ6QwVIE/ndomS592Zgmm3qcAAMD6/dpXHs8+pFFkPfVhKKGAQwwR0igS1ujbLx/y+ediCUGvIucBs76MZ61hunxuh7rIrqs8X44za1XOcc61DXmxHMBSCWoAoxurA9E3pf+DX/qR6tbwdgv8x3QsmrZX3xMNroI6zhT7FAAATmX7RHnfNnUhZcmOKbBmO6eIkZY+SVrd/iitPKb8zjEUWs/boaNZ5P03dEgi/fIst4sxnv/UlhTSKLK+jiEc4piRdPrK86w5pAHAMghqAL31PeHz27/5G9WtYfWZ9iSmGpEiJwXyRT8nCA7pXAy1vcba7udoLvsUAABYjlxc0LfAmv5G+twJXqQPkiJ1Wvok+wrQ5THld0p445DQRtbbFAbnrW/BdMyQRJab5bfJ+3ys5z+VQ44hc5H1dtHKONZ+jqnvsecQWX6eBwBOTVAD6K1v4CHDHg7dOcvy+nZWp+6w5/kO6Vy0BVD6LKtvkIX9xtinAADAOvWdCjSF5vQ3ErIYSvowJbTRN7Ax9lSmzF/X/u+YIY0iy8/7uG598n9Dfm7m4pjPYLZJPvNp2T9p2X5trTwurfzuMUyjdF32S1sr2327be+X7Kc1vtd35diT1z6GbOcsHwDmQFADmETm5B1S3+XlS/ipHFLYb9Jn+hZXL4xnyH0KAACsT9/RKFKAG7v4luXnefowqgZt/d/8fwrHY4c0tu2uT26vseh6yNQh2RYpbmefZJvkM5+W/dNlH5XHpZXf3Q5xNL0P2qztGFK2x6Et+6Wtle2+3bb3yznJaz/0fVcny8nysp3PRT5/f/b7vne2TSAUQFADOMAhHYMhQwOHzM/ZJ+Awhp/6uQfVrWkNHZDhM6fapwAA5yR9iKaWk8+7LX2F3ZYTwWuT4kVdAWi35XGcRp9R9VI4mqoAl+fpE9ZQRCFS2Nx93yQQcKqCZ1mftYY0os95r+0C9FjH/Rw76t4H+ziGcIzt992hI2zk81GOV1P9rQWAri5u3Lhx+ebNm+ruZvNjP/kzm194/MvVPYB6OTF6yBCG+WJ8TKcxJ1r7hjTm0nHveoJ43/r2PdE8xuvP/k8IpM9yc+K8awd9Lvtsn6H2KXBevvLw5zdf/dVfqe5d+frv/dHm4uKiugcwrUO/2y9JQgtF1z7FsX2XPrp+V/a9cjnm3lfo0z/b/vz00ec5ztWh2/ZUyt+LFE3XUPDs+h6d8u9BzP38Sd/vDWt5v8xd1787dceduX4WduW9F7/9m7/xLhBZ930un4nIRXtTrWufz8SUx/21/B32/RdYot//3d/Z/MSXfqC6d+Xp06ebe/fuVfeuGFEDOMihHax8OcyJ0fLFuqs8/pCQRhwymka+yKbNUelwdJVtlm03hLIflngif877FAAAOE+nGqnv+3/oh6tb+/Xtv7NeOReUIqOi+3ycYgTZ7P++I2vAEPLeS0sAI4X7HI92W/4/7ZSBEgDoSlADOFhS1IdIcCCF/iS9UzhvOumT/8/PSzDgkJBGHPrFPKGSso7H6hOU2NfJPiRBXMIah76Wsi+O2Q9zMNd9CgAArEefYMOpCt4K7TBffaZOOlUxus8xJKMfAABwnaAGcLAhOoMpnJfQxm7L/+fnxwQDDg2TbNsu7h9yJVF+r89r6LJd+46qEVmHvJYS2GgKK+Q1lmBG2va+WIs57lMAgFM5h4LtId/5AAAAAMYiqAEcZc5DHSbMMGSBPMX9EiopBf6mE74l6JBQRJ+AQ9cAxjHz8pXARgkr7La8xhLM6LPuS5TXN5d9CgAAnJ+m/gdwvozKCQBwHgQ1gKPk6rshRq0YWorjx4QZ9ikF/lLk320l6NB3NJA+nXHzgQ5rDvsUAOBUhEthOEuYEiAh9K5MkwLzdaqwV59jyPf/0A9Xt4A5Sj/gH/3+H8+2jXmOH+DUBDWAo2XUirmd2P2pn3tQ3VqObMM+I4DkZJkT6vPWd58CADAO8+MzVwmDT11ozfPlebvQ54Tp9Qk25KKSOR9DQtgLAKCeoAYwiCRb53ICJyNNLK0TmG13SDp4Ttudzzt0nwIAnIJRwGBYfUaenLLQmufJ83Xl2ADT63tOa8pjSEbS6HMMcc4KAKCZoAYwmBSlTzkNSjp/GQ7tXEIaxam3O9cJaQAAfCbfjQ5t+Z67ryWoXde2h0xeyyhnmYavbpq+ubepr/aeg77vuRQ++0wlcIi+BdYwQiCcRv6+9ZHP9l/9Sx+OdrzN8SPL7zOSRgh7AQA0u7hx48blmzdvqrubzY/95M9sfuHxL1f3APrre4XOENKBHfIEUjqgfTufh8jJ56EK+lNu90O2d59tOuR2KZa4T4F1+srDn9989Vd/pbp35eu/90ebi4uL6h4AY0qhKYGHfYbuY7SZ6rvqqSQ4c45D3x+6X/Pey9QHQ22zrMdvfePrnd7326b8DMApdP2MnuKzMMQ5nqx3bE+lsu+4UoIemTIsx43oe+wonB+ZVoKRXSTAumvOn4Ul6PN5rdv+Y+m6X31WAYb3+7/7O5uf+NIPVPeuPH36dHPv3r3q3hUjagCDS6cvXzpLh3BMeY4lXiGXL8A5WTnkl+AptnuWnfXWKbtujH0KAAAsV/pN6Sf0laJKCj4puqXIkpYiUCmgNimPyeMTSErLMrK8voXWrLd+H5xOzvEce34nn/1yPCmtjHTU1MrjynHj0JBG/NTPPahuAXOWz3nd8WBuLd9rANZGUAMYTU7qJDiQ4vWQ4YGcMBo7oJHljrneKeYPdXXUrrLd81yHnBSsk2WVgMZY6z22Je9TAABgmY4tVO4WWusKF6UpsMK65DzGUOd1ppb1do4EAKCdqU+ASeXqngyfGPuGXi2d0TKf5ZBDvx7imHVP5/qUckVV7Bu2Mus9l+09hSXvU2C5TH0CcFqmPpleAtPnXLBLvyMBiqU49/3F+eh67J3y70Gdrn+35iLnT4w2Or0E9rrIxUa7lvJZmKs+f+frtv9Y1vb90rEFWJKuU58IagAAwIQENQBOS1Bjegr/V+ZebFUA4dwsqTi9lL8TCvmnI6hxOoIa0/A9BViSrkENU58AAAAAwMhSXEiRa46yXoofMF8pjif0NlcpoGb9FPEBALoT1AAAAACACZRi61wCGymu5upexVWYv4xMlM/rnAJfOYaUoJeRkwAA+hHUAAAAAICJpJh56sBGCWgYRQOWJ8ePUwc2tgMagl4AAIe5uHHjxuWbN2+qu5vNj/3kz2x+4fEvV/cAAIAhfeXhz2+++qu/Ut278vXf+6PNxcVFdQ+AMf3Vv/Th5h9//b+s7jVLAUrxialkfvvf/s3fGG0u+RRVf/BLP/Lutvc1XPlP/5Nf6vSZm/vfg3L8+K1vfL3T37dDleOIY8j6rOWzcCr5DH75x/9cda9dQlZT6bpflyLHIAFTYCl+/3d/Z/MTX/qB6t6Vp0+fbu7du1fduyKoAQAAExLUADgtQQ2WoBReI8XX2Pe+TQGjKKGM7/+hHzYdATRYa3E6x49wDKErQY3jzDWoAcDpCGoAAMAMCWoAnJagBgAAQxHUAGCXoAYAAMyQoAYAAAAAwDp1DWp8ofoXAAAAAAAAAICRCWoAAAAAAAAAAExEUAMAAAAAAAAAYCKCGgAAAAAAAAAAExHUAAAAAAAAAACYiKAGAAAAAAAAAMBEBDUAAAAAAAAAACYiqAEAAAAAAAAAMBFBDQAAAAAAAACAiQhqAAAAAAAAAABMRFADAAAAAAAAAGAighoAAAAAAAAAABMR1AAAAAAAAAAAmIigBgAAAAAAAADARAQ1AAAAAAAAAAAmIqgBAAAAAAAAADARQQ0AAAAAAAAAgIkIagAAAAAAAAAATERQAwAAAAAAAABgIoIaAAAAAAAAAAATEdQAAAAAAAAAAJiIoAYAAAAAAAAAwEQENQAAAAAAAAAAJnJx48aNyzdv3lR3N5s/97/4X27+8sNH1T0AAGBI/4fH/5vNr/+f/4/VvSv/l//6m5uLi4vqHgAAAAAAS/T//W//2eZ//eH/tLp35enTp5t79+5V967kbPDl1U0AAAAAAAAAAIby4Ycfbr72ta9V966Y+gQAAAAAAAAAYCKCGgAAAAAAAAAAExHUAAAAAAAAAACYyMUXv/jFy29/+9vV3c3m3/l3MkdKdQcAABjUf/6fbzb/1X9V3an84i/+4ubi4qK6BwAAAADAEv3BH/zB5pd+6Zeqe1eePn26uXfvXnXvysWNGzcu37x5U93dbO7e3Ww++aS6AwAADOqjjzabjz+u7lTevn0rqAEAAAAAsHCffvrp5r333qvuXakLapj6BAAAAAAAAABgIoIaAAAAAAAAAAATEdQAAAAAAAAAAJiIoAYAAAAAAAAAwEQENQAAAAAAAAAAJiKoAQAAAAAAAAAwEUENAAAAAAAAAICJCGoAAAAAAAAAAExEUAMAAAAAAAAAYCKCGgAAAAAAAAAAExHUAAAAAAAAAACYiKAGAAAAAAAAAMBEBDUAAAAAAAAAACYiqAEAAAAAAAAAMBFBDQAAAAAAAACAiQhqAAAAAAAAAABMRFADAAAAAAAAAGAighoAAAAAAAAAABMR1AAAAAAAAAAAmIigBgAAAAAAAADARAQ1AAAAAAAAAAAmIqgBAAAAAAAAADARQQ0AAAAAAAAAgIkIagAAAAAAAAAATERQAwAAAIDZuLi4qG2n8OrVq9p1SaOfum2Ylm0MMHdNfw/u3LlTPQIAoB9BDQAAAABYiRQT0548efKugFhXWEzLz0rLYwEAAJiOoAYAAAAALFgJZiSAcevWrXftwYMHm+fPn1ePuC4/Ky2PLeENoQ2A89QU7jPyEQCMQ1ADAAAAABYqwYoSzDjWbmgD1qaEmtLKiDJNxenSymPK75VRawAA4BiCGgAAAACwMCkUp4g8RECjTkIbWX4K07BkJZSR93MJNaVtjyrTpjym/F4ZtaZ8Pkp4g3rZTrst+2Nsdc+bBgAwF4IaAAAAALAgKXKmUDyFFKanKKrCkLbDGSWUMYbt8EaeT2ADAICuBDUAAAAAYCFSDO5SdH78+PHm5cuX79rl5eW1lv/PYz744IPqN5rl+YQ1WIIENMYOZzTJ85WRNgQ2AADYR1ADAAAAABagS0ijBDPu37+/ef/999+1Ovn/PObZs2fvHr8vtCGscbgy5cLS25zDB1m3vD8T0JgDI2wAALCPoAYAtS4u6tsT0xMDAABMLiMFtIU0ErRI4KIpmLFPCW1kOU2ENZijfDYSjNgXYioSSMr7PK1pxJntVkamKb/TVdYn6yWsAQBAHUENgBGkD74dbnAeCwAAgEOl0Ns2UkCKyAlaDCHLyfKapPis8MxcdB1Fo4QzErxIICnv87QuwaYyMk35nRLe6BraENYAAKCOoAbAwNL3/k4f/HNyUUcCGwAAAGuS4mPdFAnHtCZ1jz2m5Sr8pXj9+nV167oUjA8dRaNJltcW1nj06FF1C04nIY19o2jshjOGUoIbJbTRNm1QCGsAALBLUANgYLshjW1G1gAAAKCvphEDUoQeOqRRZLlNIwZ0nWICxpLQQ9v7MMGJhCiGDGc0yWclQZC2cFMIa3CIhArrwoZjtKbPVN67dY8fo/mMAHBOBDUABrSvL+FcFgAAAH20Fa3GLkJn+U0jBSxpRJJTS2BgSW0JUjhukvdsghNT2zcSTRiNBgCAQlADAAAAAGaqadqTptEuhnb79u3q1ue9ePGiugXTypQnTU4V0ij2hTUyYoERAwAACEENAAAAAJippkDEzZs3q1vjmup5oKum6RlOHdIo9oU1msJXAACcF0ENgAF9py/eaqILngAAACaRgmTd1AlLaGNPG7J2TcVyGFPblDsPHz6sbp1ejo1N0wY9ePCgugUAwDkT1AAYWNt0pC5EAgAAABhWQhEJR8xJW3DE9Cd0lVBhXdhwrW1un2MAGJOgBsDA0p9IWGP7womMpJH/09cAAABgCKZP4Bw1TQW0ND6/AAAIagCMIIGMTIt6eXnVMqKukAYAAAB93b59u7r1eVMVrJsKyk3TOsApNH1OTsnIAAAAtBHUAAAAAICFef78eXVrXA8ePKhufd4cC+PAMuT4dXFxMWoDAJg7QQ0AAAAATubJkyfv2p07d961uoJbafl5efyrV6+qJazb/QzR2CDbY0zZzk1u3rxZ3QIAAKAvQQ0AAAAAJlWCGQlfZMSGtFxhvW+UiPy8PP7WrVvvfv8cQhtN04xke4z12rPcptE0sj6mdQBYphJ4LAHJ8vd4XyuPLb9/LoFJABiLoAYAAAAAo0tBpxSDSjBjCNuhjbUWjZ49e1bdui6vfejXneVluU0ePnxY3YJpNU250xQqOqUUspsYkeZ0toMHfVrbMXHuSiijvJZ8Xsrf4dK6KI8tv1/+9qYJbgBAf4IaAAAAAIwqBaIUdLoWgw6V58hzrbFY9Pjx4+rWdeV1DyHFtraCZNbDaBqcSlvAYW6f+xcvXlS3rvMZYmzb4YwSyhjTdnBDaAMAuhHUAAAAAGAUKdSkUDR2gWhbnivForUVie7fv984BUrkdWdbp0B2iGyvUtBrkufPesCptAUcHj16VN06vXyemo57bZ/jc5FtcHl5OWo7V/kbMFU4o0kJbaw1OAkAQxHUAAAAAGBwKc6kUNOlUJSiXUZqePnyZW3BLS0/S2sbWWLbGsMamQJlX1gjBbIU6Upoo2kb5P/TSlEv26tNnrdtChaYStMxoISVTq0c+5o0Td8Cx8j7Lu//trDd1PKZLIENAOA6QQ0AAAAABtel8J+Ca0IYCQBkpIa2q+Xzs7Q8rgQ39oU2zjGsUZTQRrZBghi7Lf+f1qWoJ6TBnLRNf3LqsMa+kEY+S0alYWgJ3OV9l/d/F+Xvb1oJQW4HI+taeVz527vv7++2rFf+7qzt7zEAHEtQA2BF0t/JKLc5J/Gd/s+1lv9Py2MAAADGsq9QmgJPCWccqoQ2UjRqCy60FU2XKtsur3sKZV/BXOSz31YkPlVYY19IIx4+fFjd4lTqQghd2lTH3L66jqJRwhl5LeXvb1oJQe5THpdWfrdsl31/h4t8PoQ1AOAzghoAA0sIoi4kkTaW8pw5H5C+WVOAPv+flsfk8UIbAADA0FKEabuqNwWdFHiGkqJRik5tRaJcbbw2ed0pknUpjh0iBb2h9xUMJe/Ltvd+uYJ/is9+jnkplu8LaeTzlM8tDCXvu32jaOyGM4ZWwhslQLjvb5KwBgB8RlADYMFKQKNDcL5WCW2c4EITAABgpR49elTdum7MQmVbWGNOc/YPLa87RbgU44YIbWwHNBSVmbN9Aa3IZ78ENoYuDmeZJaCxr1gupMHQ9oUi89nI34Ypw3bbgY02bd8TAOCcCGoALFDOLSRcMdS5xvTrEvgQaAcAAI7VVDhKAGDsQmXbtAJrv4I3xbjt0EYJbrQVsvOz8tgU1kpRT0GZOnN8X3QJa0QCGwlUJLSRcEUJbpTWpjymBDPSspwsc19AI4Q0GENb2CHH9Hw2TiXv9/w9afps5nOz73MHAOdAUANgYdKPyWiaHc4F9Jbl6icBAACHaptmYIqrelMcSoGqzuvXr6tb65dtXYIbJbxR1/Kz8liFZJYq7+N9V/BvS5G4BDdKS/CiqZXHlGBGl3BGpEgtpMEY8re26X2Y990Uf2+7aAtP5jMFAOdOUANgQUpIY5+cl8w5irTLy8+3/F9+3nTBiX4SAAAwtC5XvI/txYsX1S1gbRKGSCiiKag1tTKigZAGY2j7e5b33Vy0hSfDqBoAnDtBDYCF6BLSKAGNBOdzLqDufED+Lz9Pv62pr5RpVQAAAIZy+/bt6tb4bt68Wd2CdSlTbuy2tpFszkmKwhlJ4FSBjQTS8rwZrWYuIxqwTm2jacxN29/kcxrpCgDqCGoALETL1JPvbAc0usrjM8rGbj+u4yieAAAAwIqs4Qr3EthIYGLs0MZ2OKNMJQSnMmUosiujygBAM0ENgAXIxTFt4YmENI7p92R0jRmG7gEAAHpzhS5QbIc2toMbaQlZdBmBoDyuhDLSshzhDOZmriNKdfmcAcA5EtQAmLlczPLgQXWnxrEhjUJYAwAAOFZTkehBW6dmYE1z98/xSuOlyCgL2y1TbZSW6Ti2p+RYw4gMXLeWQmsJbqQlZJFWQhxNrTyuhDLSjBIAAMCxBDUAZq7tYrChQhrFs2fVDQAAgIFNVcBvmrt/jbbDE21tO1ix20rQYjdwsd1u3br1uZbgTWnZ3ue0zQHmaq4jSvkbAQD1BDUAZuxVy2gauZhljAs4Ho83dSsAALBybVeZp8A/tgQN6mQ0gDlPT1AXjujSdgMUTW07WLHbStBiqMCFqWeWzf5jCjnW1B3Thmxrlul36uSYPjcJBDaZ899lAJiCoAbAjLWdH3n4sLoxMH0kAADgGC8z9F+DpiDFELLspqDB3Kc9MX8/c2fqIJiPpmnGYsy/s31lRKem8Ii/ewAgqAEwa21B+DGnQzWqBgAAcKiMqtFUgEmQIkWkFG+G1BbSmPtoGgDQR9voVflb2DaKxZQePXpU3bpO+AsABDUAZqvtvKUgBQAAMGcPW4YATBEp03GkkHRsYCPLyBD3TSGNaFuXuZhbwSrhlt2WofZ3W0ZP2W6Xl5dCMQATaBu9KqNYnHJkjfxtb/vbnL8p/lYAwGZzcePGjcs3b95Udzebu3c3m08+qe4A0FtC600jYVxeVjc6aFtO+mJjjqgRTdN5Pn5sehSAY3z00Wbz8cfVncrbt29XP48yAOcnhZoEMrpI0X97KPe6q4WzvNfV/JAvXrxoDWcUKWS1XXm8T9trSChhKF23VYpbbeoCH23basjXsE/Td51j99E5aRo5Jp+foYqeTc9hP3GoufVzDj3uNR2nc1x+9uxZdW9abaNJFVN/due4TgAwtU8//XTz3nvvVfeuPH36dHPv3r3q3hUjagAskL4MAAAwdynCpBjTRa7+TQGstBT2dlv+P49L21cEiiUVgrKeKR7uaykGtrUU63fbEkYUAdar7lh2yrYmOe7vC/CVv6lDjGLVJMtOQCPPI6QBAN0JagDMVNNoGhnRAgAAYAlKWGNfIWlIeS6FIDhMlxAUMB9dwhpRApEJUyRUkXBFCW+Utk8eU34vyyjhjDUGKAFgCoIaAAAAAIwmRZkUklKgGVMKVZkCIs+lEATDGvMzlUKv1txSFIc2ff/GJlRRRqgqI1mVEEdby2PK72UZXYNd+fuc0Uz8bQaAzxPUAJihthD71rTNAAAAi5ECTQo1KSYlUDGU7YBGpvoAgHNT/sYO+ff1WGWEq/x9BgCuE9QAAAAAYDIpJiVQsR3aSOsydHseU4IZ+d0sQ0ADhtE09UGXzyYwD/l7OHQgsq/yd9oIVwDQTlADAAAAgJMooY20FHQSvGhSQhklmKH4M526IfD7NuYvn6kSmiotbt++/e5fYBnqApFjK+EMAUoA6E5QAwAAAACA74amSkvRVcEVlms7tLEd3NgOZXVVHl9CGSWYIZwBAIcR1AAAAAAA4CRKoXeIlsJxnRSW6x5/TEvBu0nd4w9tit8MaXckqxLISmsKbWxPNVZaWQYAcDhBDQAAAAAAAACAiQhqAAAAAAAAJ3Hnzp3NxcXFtfbkyZPqEQAA6yOoAbAwr19XNwAAADhLdQXNtFevXlWPGFYZFv+YBgAAwGcENQBm6P33qxsAAAAAAADAqghqACzMixfVjRGNdBEWAAAAAAAAnD1BDYCZ+uCD6sYJmF4FAAAAAAAAxiGoAbAwz59XNwAAAAAAAIDFEdQAmKnbt6sbNZ48qW6M5MGD6gYAAAAAnLn3339/c3l5ea09e/asegQAQD+CGgAzdf9+daPGmEGKsUMgAAAA8erVq9rWpPz8yXc6LV3bnTt39raLi4t3/65VU3ExjcPl/ZX3zpTtecMQmw8ePKh9/KkbAADQTFADYMY++KC6UePJSIEKo2kAAAD71BVl+7Zbt27Vtibl5ylKd20pbO9rUf4FAACAKQhqAMxY2/QnD0YIVKz4IjIAAGBAH7SlygGAXuoCjVO3ptBiQpJ1j5+yZRQjAFgbQQ2AGWub/iSGDFZkhGEXkQEAAF3cbkuVQ426qVfSMjULAADAuRHUAJi5x4+rGzUSrBgirJGQRssIwwAAAAAAAMBALm7cuHH55s2b6u5mc/fuZvPJJ9UdAHrLSHxN05JcXlY3ekoYo220i4w6/OxZdaenuvVNOKTpNeRn+0b6AKDZRx9tNh9/XN2pvH379t1wrgCwFBmC/MGR8zEeO31Kn1E9bt68Wd36vH2jObx69erdkO91MhrEqTR9b3j58qURKjhrTcemHG+eHXripMFcjw9LdOfOndppNx4/fry5fyYnofQH253TewGA5fv000837733XnXvytOnTzf37t2r7l0R1AAY2BhBjS4jXuQc58OHOdFY/cceWeajR9cDICX00dQ/FNQAOI6gBgAsh6AGLIugxjIJaghq7COoAcCSdA1qmPoEYAFynu3ly+pOg/Rnc34go28kLJIgxq78X36Wvl8eWzdKx8DnLQAAAACAFgn3aM1NSAOANRLUAFiILmGNSPgiF48kiJFAxnbL/7WNTtxl+QAAAAAAAMDhBDUAFqRrWKOvTHeS5RohFwAAAAAAAMYlqAGwMAlTXF5ehSuG8Pjx1XQnQhoAAAAAAAAwPkENgIVKuCKjYBwa2EhAI79vikcAAAAAAACYjqAGwMASfMiIF3VtaBkFI4GNLDvBi4Q2moIb+f8Szsjjs55to2hsr/d2E+wAAACYp1u3bm0uLi4W2QB2PXjwoPZ4Mdd2586das0BAPYT1ABYiQQoEtoowY3dlv/fF84AAAAAAAAAxiWoAQAAAAAAAAAwEUENAAAAAAAAAICJCGoAAAAAAAAAAExEUAMAAAAAFuTy8nJ1DThfz549qz0uLK3ldQAAdCWoAQAAAAAAAAAwEUENAAAAAKjx/vvv1141nQbMz/3792s/r2OMdOD4AADAMQQ1AAAAAAAAAAAmIqgBAAAAAAAAADARQQ0AAAAAAAAAgIkIagAAAAAAAAAATERQAwAAAAAAAABgIoIaAAAAAAAAAAATEdQAAAAAAAAAAJiIoAYAAAAAAAAAwEQENQAAAAAAAAAAJiKoAQAAAAAAAAAwEUENAAAAAAAAAICJCGoAAAAAAAAAAExEUAMAAAAAAAAAYCKCGgAAAAAAAAAAExHUAAAAAAAAAACYiKAGAAAAAAAAAMBEBDUAAAAAAAAAACYiqAEAAAAAAAAAMBFBDQAAAAAAAACAiQhqAAAAAAAAAABMRFADAAAAAAAAAGAighoAAAAAAAAAABMR1AAAAAAAAAAAmIigBgAAAAAAAADARC6+53u+5/Jb3/pWdXez+fN/frP5D/6D6g4AADCo//g/3mz+4T+s7lSeP3++ubi4qO4BAAAAALBE//yf//PNT//0T1f3rjx9+nRz79696t6VnA2+vLoJAAAAAAAAAMBQPvzww83Xvva16t4VU58AAAAAAAAAAExEUAMAAAAAAAAAYCKCGgAAAAAAAAAAE7n4nu/5nstvfetb1d3N5kd/9Ec3f+Wv/JXqHgAAMKS/+3f/7ubXf/3Xq3tXvvrVr24uLi6qewAAAAAALNG/+Bf/YvOzP/uz1b0rT58+3dy7d6+6d+Xixo0bl2/evKnubjZ3797dfPLJJ9U9AABgSB999NHm448/ru5defv2raAGAAAAAMDCffrpp5v33nuvunelLqhh6hMAAAAAAAAAgIkIagAAAAAAAAAATERQAwAAAAAAAABgIoIaAAAAAAAAAAATEdQAAAAAAAAAAJiIoAYAAAAAAAAAwEQENQAAAAAAAAAAJiKoAQAAAAAAAAAwEUENAAAAAAAAAICJCGoAAAAAAAAAAExEUAMAAAAAAAAAYCKCGgAAAAAAAAAAExHUAAAAAAAAAACYiKAGAAAAAAAAAMBEBDUAAAAAAAAAACYiqAEAAAAAAAAAMBFBDQAAAAAAAACAiQhqAAAAAAAAAABMRFADAAAAAAAAAGAighoAAAAAAAAAABMR1AAAAAAAAAAAmIigBgAAAAAAAADARAQ1AAAAAAAAAAAmIqgBAAAAABO5uLiobafw6tWr2nVJo5+6bZiWbcy8PXnypHbf5f/pr+m4cufOneoR7OPYDADnQVADAAAAAFiEFDDTUkRP4beukJmWn5Wm4A7sKseRtmOJ4wgAMCZBDQAAAABgtkpBNYXTW7duvWsPHjzYPH/+vHrEdflZaXlsKboqtkI3TaM65HO0VLvHkhwb2o4ljiMAwJgENQAAAACAWUpBtBRUj7VbbAXOQwIa+cwPcSxxHAEAhiKoAQAAAADMSrmaf4iARp0UW7N8V8bDupWwVz7zQyvHkRyvAAD6EtQAAAAAAGajXPk+hQRBXBU/rjLdRLZzitq7Lf+fJjTD0PK+GivstS3HK8cRAKAvQQ0AAAAAYBZS7Oxy5fvjx483L1++fNcuLy+vtfx/HvPBBx9Uv9Esz6fIOqwSzkgQo0w30bRf8/9p29NJCG1wrKGOJfl5l2OJ4wgA0JegBgAAAABwcl0Kq6WYev/+/c3777//rtXJ/+cxz549+26xta3Qqsg6nDLVxKEjGWyHNtYa2CijiZyinYN9x5ISzuhyLMnPy7Ekv+M4AgAMRVADAJiluhNKaa6sAgCA9cn3/H2F1RRVm4qp+5RCa5bTRJH1OBlFI9tvyKkmsiz7hD72hTQStijhjL7yOyWw0STP7bwFANCFoAYAMJicENkOVeREHQAAQJv0G9qK+6WwOoQsZ1+RVT+mv2yzjKLRViA/VJapf0kXeY80vQczEsYxYa9tWUbbcWTIsBIAsF6CGgDAIOquWsmJOleSAACwVCn6bQeRh2hN6h57TFvS9/DXr19Xt65LMXSIwuq2fUXWR48eVbfoooQ09tmebmK75f/2TU0TeQ5hDdq0vQ8zEsaQ9h1HjAQDAOwjqAEAHK1tmOJcSeJkGgAA0KTp6vMU74cOaRRZbtM0KGOMCrFWXUIaJZzRNN1E/q/L1DTRJRDCeWoLp7UFKo7RFtbIccS5EACgjaAGAHC0Fy9eVLfqtV0hBwAAnK+2QuZQ0500yfKbRnEwMmA3baOPHDLVRPZJfqdtdI01j1RQRhkZop2bUwS+Istuer8anQcAaCOoAQAAAACcRFOoe9/ICkO5fft2devz9oXRaR9ZMYXrY6aayO82Fb/znII0bGsLfN28ebO6NZ6m44jReQCANoIaAAAAAMBJNAUipiiuxlTPszYpjDeNYHBsSKNoC2s0PTfnqSnwlffPmKNpFG2j/5j+BABoIqgBAByt6eqRYuwhiwEAYAwp8NVNKbCE5jv4cVwJ365tSochQhrFw4cPq1vXrXkKFIax71zFkJpCRaaCBQCaCGoAAEdrm9u56f8BAABYnowQ0BRkefnyZXVrGAlLNU2DI0xDceqReWLKUAgAsA6CGgDAIHLV1PYJtAQ0cn/Iq6kAAIDz4Cr0+Zp6mom20WGMqkHMObTTFCIBABDUAAAGkxNoZajlBDQMtwwAALRpugp9quJmW+iAeg8ePKhufV7bNCXHMqoGczfl6B0AwDoIagAAAAAAszJVAb4pdGAag3qZ9qTJGKNpFG0XATx58qS6BQAAyyGoAQAAAAAjSRE5LVM0pF1cXDS2/Lw8vq0gviannNaircDv6vh6TSOQNI14MaSmUU5MLYERcACAJRLUAAAAAIABlWBGwhcZsSEtI0TsGyUiPy+Pv3Xr1rvfP4fQRlORNdtjrNee5TaNppH1GXN0iCVr2mZTBFuMckJfTcGiMTQ9l/ctANBEUAMAAAAAjpTC/3Y4Y6ipO7ZDG2sNbDx79qy6dV1e+9CvO8vLcps8fPiwusW2tv0wRbClafSVoT5rcAwjuwAAfQlqAAAAAMAREtBI4X/sgnGeI8+1xsBG29QZ5XUPISOUtIU0sh5G0+hnimlPiqbRV9qmsWH9mkatmDI80XT8N40SANBEUAMAAAAADpDARAIEU17Rn+dK0GBtYY2MltBUhI+87mzrQwvy2V5ltJMmef6mURuYdhoJ6OPUo62cerQZAGCZBDUAAAAAoKcU5rqOopEAQEYdePny5eby8rK25WdpXUcnWGNYI1Og7AtrJGiRwEUJbTRtg/x/Wh6Tx7eNohF53rYpWGg25YgBcxg5gXlqOnYMNRpPm6bjy5SjzQAAyyOoAQAAAAA9dSn8p0iXEEYCALniu+3K6vwsLY8rwY19Rb5zDGsUJbSRbZAgxm7L/6e1jaBRCGl0IwzBnDWFeHKsGPM42bZs054AAG0ENWBBtq8GSRq87kRE/r9cVXLocKCHKs/Ztm7lMXM7kdS03nNc16GUfbHE/RVtn4X8X1n/Y3X5zJXtdArb69e0jmllPdf6fgYAgCnl+3WbBCxKOONQJbSRwEZbcGFfYGSJsu3yuqdQ9hX7NY0eM+XUDgrfNMnxsulYOdZxMudYmpadY8uUnw0AYIFu3Lhx+Z1/vtvu3r17CUu2/X7ebt/5clw9YlhZbt3zpQ3l5cuXtcvv2r7TSRnt9UeWX/e8XVpe25DqniOt6fV3Wfc8Zk3mtL8O+fy0/U5dO/T93/d50g59rr7yHMfsx7Qs49Sfv33qlpU2xTaGMX35y1++9r5++/Zt9VMAYO729dGH/p5dtPUBDv2O3PZa5uLYvk9TG7pPVPccaWO9H06h7vWlTWmM92zeC3XLG7PvWfd8aUOqW35aV03bOp/JNof+3hDa3h9DP3/bc6Xl54dqWzYAMH/f/OY3r/0Nf/r0afXTzxhRA2YsqexcCX9s6rsMB7rvip++ytX7TVdUdJHXlmVMfZV/ni/rf8y6L82S91eUz0OXYWu39X3/H/o8sf1cY2yjjIhR1u3Y926Wkf15qpFAAABgqR49elTduu7ly5ejXUHdNiXIIf2Xpcjrvry8fHd1etPr7yPLyX7aNxUN82SfHS/nFbq0Y89HnkLeH03HiZxHyesa4nxNltG2fcb8WwAArIegBsxUCr1z7RCVQvaxheJtUxaMS2dqyPWfs6Xvrxji89ClQ57XNMTnLs+V5bQ9Vx/bAY2hlWAJAADQTVPfKgGAsQtzDx8+rG5dN1T/Y64SrNgObZTgRlt4Iz8rj03hNL8roAHr1hZqi5yvOfQ8SI6z+85RTfG3AABYB0ENmKF84Z9riCAdkiEK2XWmKhi3Xf20NmvYX0N/Hpr2f55n6CDEENs++3CMgMa2bN8p9iUAACxdW2A9AYCxpfiXImCd169fV7fWL9u6BDdKeKOu5WflsQqncD72hTVyHiQXxORcSI7rTUG3/H9auYAm53nazlHlOaf4WwAArIOgBszMvqJ0vvDnKpByJch2y/+VK0rG0KXon+fOOtStW1m/NnntbSe+jjV00X/O1rC/8hrq9lfWK+u3u975/33v/yxvN5SQ19D0vjjmuWKKAETZj3XrWfZll+2S7Q0AAPTXpW8wthcvXlS3ANgX1oicC8nFMTl/liDGbsv/p3W5gCbnZfKcAABdCWrAjLSFCNKxSLE1X/hzFUjdlSD5v3JFSZ9Cchf7iv7b61eXHC/rnJ/tKxqn8zNGwbip6J91ybaqK3Dn/5doLftr9zVkXbJvsl5Zv135/7ymfeu8HUrIv3Ud7vKe2PdceUzX5xrS9vu27Me69Sz7smyXNm3vGQAAoNnt27erW+O7efNmdQuANjkXMsW5vZxvyXkZAIA+BDVgJlLIbQtppGNRV4RtUwrJx3ZI6grm2/quXykatxW3xygY7055kedPRyrrUteZynqWbbgka91f2VdDrnNZft269+1gd32uoeQznefsexIg22VfWGOMUAkAAAAMQZ/1eLngo0vbd/5gKXLuJK+n7bzNocoFNF3PVwEAbBPUgJlom0v24cOH1a3DpEOSztWhV/i0FZlLwfgQ+4rbQ0+psR2EyfPm+dfYkVrj/uoT0tjW9lqz/LppScZ6riFk++cEQN+AxrZ9YY0xQjcAAMBw2s4fwJjGKHQPZc7rxjzkvM1QgY0S0Djm/AwAgKAGzETTXIf54j9EmCDLOKTzkOJ720gfx3ZI2orbXeZ/7Gp7WVnvtuddsrXsr23Hfgby+012t1W20VjPdWyQJeGKod63+16jK5QAAKBe07QjY/WH6rx48aK69XlTTr+yNukDbbf030pLwD/t4uLiXdNfus42YUlKYCMt53FyLiitSX6Wx+W8TJqABgAwFEENmIG2Du2p555tOtmUTspQReO2q/vH6OwfO0LJnK1xfx3b+c3vt3W4tx27jdrWtelkahfZ5kMEtra1hUoAAID+pipWDzVi3xJkm3Zp28GK3VaCFruBi+2WkQW3W/rWpWV7n9M2n7umEWUElThEzuPkXNB2eGO35Wd5XM7LDH1uBgA4b4IaQKOcwGgyZNihrZMz9JCuKdivtVO1xv3VFgrpo8sJm6GeqykUcuiJvbFOBLSFwAylDAAA9dq+m08xjWBTvy/9kGND7mOqC0d0absBiqa2HazYbSVoMVTg4pz7S019a31IAADoT1ADZu6Und2mExhjhB2aru7PSZUhDTWqxBytcX8Ntd5dRqYZ6rmWchVP2+s9ZvQPAABYu7aQd1uA/lhZdlO/b+79kKZAO+swZR+y6bzDqUekBQCAvgQ1gFoZHrTJGFOHtHWoM4zpENZ8YmiN+2vIqTn2hTCGfK4pts1QnCwFAID+0r9o+i6dIEUCFUN/928LaWRd5jyaBuvR9D5rem8ObW59ahhL/s7UTcOSBgCsh6AGzNyprmxvet6cABpq5IFtbcscalSRNc9Xusb9NeXVMOd65c2aPxMAADCmtkB8itaZjiOB+mMLy1lGpgBpK4SPEc4f2tz6Hukr77YE+HdbRk/ZbimSnnsoJtvqVNrON4xx7gMAAMYkqAEz0NaZLFfjTK3pJNCSC7trPpmyxv01tLaTSUOe0JkixDK2tpPAAADA1ff+tilQIlM0JLCRoEUJbZRWJ/+fx6XlPEB+b9/0klmHJRSou4bjt4MTda0uTJH/b7J7JXppmRZ1t+WcwW7Ltt1uNMv7dmxNF6nkfQAAAEsjqAEz0XZiYeqwxrFX/ByqaRsMMapI2/ZdujXur3ASDAAAmLP0WfaFNYoS2igtIYzdlv/P49K6hKeXEtKIrGddYGK31QUotltdmGIJI4qsSdMFIftCRcfKuY+mz8W5jpIJAMCyCWrATOw7sVDCGlMU5duu+s9JkKm5ur+d/XWcNYd4tu1enZc29ok0AABYuxLWmLJfkedaUkiDdWk7zzDmqBqmPWEIeY/WBeWW1ACA9RDUgJlIp3LfiZ0UwHOFTQqsY3Z+hxoRYU7WPAXIGvcXh6kLY5SO/O7VeQJQAAAwjPTnM9pD19E1DpVzBpniIc+lMM0pNU01Mtb5ifR1my40MO0JAABLJagBM5KTLV2uwkmBNR3UsQMbdbYT3EM3hePh1W3noZr9dVrbgYyyT4QxAADgdBKeyPQdCWwMWTzeDmicYtRE2NX0PkwfdIzzVI8ePapuXWfaEwAAlkpQA2ama1gj0gFOQTYF2hRrgfXLSa985rcDGQAAwHwksJFC9nZoI61LXz+PKcGM/G6WIaDBHDW9n9NPHVJG02jq9+ZzYnQZAACWSlADZignYdLZ7COd1hLYSCcWWJcycsbQJ70AAIDxlNBGWvr6CV40KaGMEsxQgJ5O+lrHtnOT92mToS4myvmtjBzZxGgaAAAsmaAGzFS5+qbr6BpFAhvpxApswDrkc5zP8zEjZ2xflbd9ZV7fQBgAAAAUTX3K9F+HCGu0TXmSfq0wE32V861zb3l/AwDrJ6gBM5crFPLl/NDAxhhzgwLTKFcPdQ1p1IUx0ravynNlHgAAAENI/7LpfNUxYY30hTNKSVNfOM+51n7t7kgtxzQAAOZNUAMWIJ3PFFlTcO0b2Mg0CUMNOZnnLoXfqRv92V/L1zbEa2QfJ5RRtrswBgAAAFNKP7TpXFWCFgkM9LmIKI/d1xfOcwIAwNIJasDClMBGirNdQxvHXMUAnMa+z2yOASWYAQAAAKfy8OHD6la9chFRQhh10/Tm//KzhDry2DamhAAAYC0ENWChUpxNkbbrtChDhDWahpxknuyvZWvbf/ncC2gAAABrtT19w3arK/IPoYxSeEw7ZxnRcV+AIn3chDAyWsbufs3/7QtoRJ7D6JEAAKyFoAYsXJkWpUtgI53iLic1bt++Xd1iCeyv9WkLVWUkDSemAAAAmJP0UxNY6Tr6ax9ZZpatLwwAwJoIasBKlMDGvg7xo0ePqluHGevqFcZhfy1T02ga+XwbSQMAAIC5yrmpXGAwlFyYlGWuzfZoLFM3AADmQVCD1Rkjud/mxYsX1a152BfW6DIdxs2bN6tb171+/bq6xVzYX+dj6NFT5nb8AgAAYPlygUECAQlsHHqeLr+bZRhFAwCAtRLU4GycU0FyX1jjyZMn1a16OsHLYn+ti1FQAAAAWIMENnKOKqNilNBG0/mq/Dwtj01Aw2iSjCHnRC8uLmbfbt26Va0xALBmghqsTtMV511GkjjEWMs91rFX3jd1nB88eFDdYk7sr/VoGwWlbfSUQ8z1+AUAAMB65AKTEtpIK1NwbLf8PM3FKAAAnAtBDc7K0Feq7xuZ4pSOLei2BT3m/LrPlf1FX94XAAAwrpyDqGtNys/zXb1ru3Pnzt6Wq7Pz71qlsF9X+E8DAACYK0ENVqctoNB2pfoh1jxaQdsQk0ZpmB/7i77OaTooAADoa3cY+kNahq6va03Kz9OH69oySt6+FuVfAAAA5kFQg9VpGyIxJzGGkitXlqrraBuZG7TJmq/GWSr7ax2mCJvl+OVELQAANGuaXhIAAACGIKjBKrUVrNuGGe0qyxg69DHEeg2trWCcIu+Y6zzXbTJn9tf6DXHcyX4a8vgFAABr1Da9JNSpm3olre2CImAeci657vM7xwYArIegBqvUVrDOMKLHFpTbhio9VJY55Cgdjx49qm5d1/UkQR7XFnoZYlvWyegPCsn92V/rsO/zecw+zO+OcfwCAAAAAACgO0ENVmlfobMtxNAmRc7dKSSGHA41xe4s/9hien6/aVqDtkJ+nfv371e36g0ZMMlyMo+vKRkOZ3+twxiBGyENAACYVs4XHNPSL+jaXr58WdtchQ0AADBPghqsVk5INElhOQXmPsXOFKVT5NwuSufEydDDoWb5eZ7dQEhXZT2b7Cvk12nblnFswKQU/I3KMAz7a/naRgWKvmGNuuNCOfELAABcl77zdsjhkPbs2bOjWtaha8sFK3UNAACAeRLUYLVyQiKFyDYpXKbgnCJmXdEz/9dWlM6Jk7GUMEkK6lmHtDpZx33rWewr4DfJttz3uyVgsr0927ZpWl7bvnWmP/tr+bIP94Uo9h2/9u2zMY9fAAAAAAAANBPUYNUePnxY3WqXImYpem63/F9TUfrQ0ENfKahnHdJ216+sY9t6FlnfY66m6VL8L8r2bNumaXltjMP+Wr5cFbcvbBZl/+3uu7Z9NtXxCwAAAAAAgOsENVi1PsXqPo4NPUxtqPUda3vWyWgCS9rGc2R/LV9GvegS1uhjaccvAAAAAACAtRHUYPVKsXqIYmeWkXlmhy5ydr1yvq8Uz4de3ywry9w3LcOhyjpnm3A8+2v5hgprjHX8AgAAAAAAoB9BDc5CCpMpdh46ukAKnClIZxljybJLQf3YouwUxfMsO9tziABA2b4K/uOxv5atHL8OOTZMcfwCAAAAAACgu4sbN25cvnnzprq72dy9e3fzySefVPdgnV69erV5/fr1u9svXrzYPH/+/N3tohRDb9++fdJC9JMnT96tX+yuY5F1zXrGzZs3T3a1fNmmdduz2C4yZ51Pub7nzv5aru3j14MHD979u20uxy+g2UcffbT5+OOPq3tX3r59u7m4uKjuAQBMI/2LW7duVfc+L+H8U1nj96JTbk/a5fxbXf86Fz2cc7+66fiQ8w5tF4Mc+ntTaNrXS+SYAgDz9emnn27ee++96t6Vp0+fbu7du1fduyKoAQAAExLUAADmQlBjOoqq8yWoUU9QY94cUwBgvroGNUx9AgAAAAAAAAAwEUENAAAAAAAAAICJCGoAAAAAAADf9f7777+bXmO3nXr6EgCAtRDUAAAAAABmo644vPQGnN79+/drP59LbADA8glqAAAAAAAAAABMRFADoIMnT55sLi4uZtMAAADgWE1TG6TBuWgaZSH/T3+mTAEA6EZQAwAAAAAAAABgIoIaAAAAAAAAAAATEdQAAAAAAAAAAJiIoAYAAAAAAAAAwEQENQA6uH///uby8nI2DQAAAAAAAFgmQQ0AAAAAAAAAgIkIagAAAAAAAAAATERQAwAAAAAAAABgIoIaAAAAAAAAAAATEdQAAAAAAAAAAJiIoAYAAAAAAAAAwEQENQAAAAAAAAAAJiKoAQAAAAAAAAAwEUENAAAAAAAAAICJCGoAAAAAAAAAAExEUAMAAAAAAAAAYCKCGgAAAAAAAAAAExHUAAAAAAAAAACYiKAGAAAAAAAAAMBEBDUAAAAAAAAAACYiqAEAAAAAAAAAMBFBDQAAAAAAAACAiQhqAAAAAAAAAABMRFADAAAAAAAAAGAighoAAAAAAAAAABO5+OIXv3j57W9/u7q72fyZP/NnNn/hL/yF6h4AADCkr371q5uXL19W9678nb/zdzYXFxfVPQAAAAAAluhf/st/uflbf+tvVfeuPH36dHPv3r3q3pWcDb68ugkAAAAAAAAAwFA+/PDDzde+9rXq3hVTnwAAAAAAAAAATERQAwAAAAAAAABgIoIaAAAAAAAAAAATufie7/mey29961vV3c3mL/7Fv7j5m3/zb1b3AACAIf3iL/7i5u///b9f3bvyT//pP91cXFxU9wAAAAAAWKJ/9s/+2eZHf/RHq3tXnj59url3715178rFjRs3Lt+8eVPd3Wzu3r27+eSTT6p7AADAkD766KPNxx9/XN278vbtW0ENAAAAAICF+/TTTzfvvfdede9KXVDD1CcAAAAAAAAAABMR1AAAAAAAAAAAmIigBgAAAAAAAADARAQ1AAAAAAAAAAAmIqgBAAAAAAAAADARQQ0AAAAAAAAAgIkIagAAAAAAAAAATERQAwAAAAAAAABgIoIaAAAAAAAAAAATEdQAAAAAAAAAAJiIoAYAAAAAAAAAwEQENQAAAAAAAAAAJiKoAQAAAAAAAAAwEUENAAAAAAAAAICJCGoAAAAAAAAAAExEUAMAAAAAAAAAYCKCGgAAAAAAAAAAExHUAAAAAAAAAACYiKAGAAAAAAAAAMBEBDUAAAAAAAAAACYiqAEAAAAAAAAAMBFBDQAAAAAAAACAiQhqAAAAAAAAAABMRFADAAAAgFW4uLiobafw6tWr2nVJo5+6bZiWbcx81e2zNPutv6bjyZ07d6pH0FW2Wd229L4EAKYmqAEAAAAAvCtUpj158qSxmJmWn5WWxwIAANCPoAYAAAAAnKkSzEgA49atW+/agwcPNs+fP68ecV1+VloeW8IbQhsAp2X0FQBYDkENAAAAADhDCVaUYMaxdkMbMAe7xepTN9NrAABQCGoAAAAAwBkpV1wPEdCok9BGlm+EDViHMurObhs7eNL0vI4tAMAaCGoAAAAAwJnIaBcZRWMKCYIYXQMAAOA6QQ0AAAAAOAMJTWS0i30eP368efny5bt2eXl5reX/85gPPvig+o1meT5hjf1OOXJAGWGlrgEAAOMQ1AAAAACAlesS0ijBjPv372/ef//9d61O/j+Pefbs2bvH7wttCGsAAAB8nqAGAAAAAKxYRmVoC2kkaJHARVMwY58S2shymghrMBcJFZXRYcZqXUabAQDgvAlqAAAAAMBKZVqLBw8eVPeuyygaCVoMIcvJ8pokrJH1AQAAOHeCGgAAAABMLgX7i4uLQVuTusce0zJCxVK8fv26unVdQhWHjqLRJMtrC2s8evSougUAAHC+BDUAAAAAYKWaRtPINCVDhzSKLLdpGpS2KVgA1qou9DdGu3XrVvWMn5djb93jx2imuQKAbgQ1AAAAAGCF2qYZGWq6kyZZ/gcffFDd+7wljUgCAAAwBkENAAAAAFihpmlPmka7GNrt27erW5/34sWL6hYAAMB5EtQAAAAAgBVqCkTcvHmzujWuqZ4HAABgaQQ1AAAAAJjc+++/v7m8vFxkG3vakLV7/vx5dQsAAOA8CWoAAAAAAACMpC70t9b27Nmz6lUDAG0ENQAAAADgjLx+/bq6BQAAwCkIagAAAADACt2+fbu69XkvXryobo2rKRDywQcfVLcAAADOk6AGAAAAAJyR58+fV7fG9eDBg+rW5zUFSIBluXXr1ubi4mK01nQMAQBYA0ENAAAAABbpyZMn79qdO3fetbpCX2n5eXn8q1evqiWs2/3796tb12V7jCnbucnNmzerWwAAAOdJUAMAAACAxSjBjIQvcrV1WkaI2DdKRH5eHl+uAj+H0EbTNCPZHmO99iy36Ur4rM/7779f3QPgEDnOlvBhl7BiaeWxaeX3AYDTENQAAAAAYNZSkCpFqBLMGMJ2aGOtgY1nz55Vt67Lax/6dWd5WW6Thw8fVrcADpNj93b4oE8b6u/H1Eowo7yOHGezHcrfxK6vqzw2rfx+WWYJbwAA0xDUAAAAAGC2UjhKQaprEepQeY481xoDG48fP65uXVde9xBS4GsLaWQ9jKYB0M12OKMEM8ZUwhtCGwAwDUENAAAAAGYnBaoUisYOaGzLc6UYtrawxv379xunQIm87mOKctleKey1FRHz/FkPYD1evny5uby8HK21hczWrPz9myKc0WQ7tCGwAQDjENQAAAAAYFZSpEqBqktIIwGAFPPaCob5WVrXot8awxqZAmVfWGP3SuqmbZD/T9u+0rtNnrdtChYAruS42vXv31TK34a1/V0EgFMT1AAAAABgVroU/hO6SAgjAYCM1NA2pUZ+lpbHleDGvtDGOYY1ihLayDZIcW635f/TulzpLaRxnFIgHbPt+7wB48vfm4TkuhxXi/wdK0HF0rZDinWtPK78bpe/CUWOFVlHAGAYghrAqLavsskX+boTAvn/crVO2pTKc7atW3nM3E7QNa33HNd1TGU77NuH57RNAABgyfIdvk0KSyWccagS2kixqq1ItcYCdrZdXvcUyr4CGFKOLXUhhC6tTzBhKjlnlb83XUbRyGsvgYz8HStBxdL2KY8rv5tjdJZVwhv7ZB33/Z0GALoR1IAZqCsup6W4PIYst+750oaSDkaWl05GWtLgTZ2N/H+5WqdcKVKK62MpRf3ynG3rVh6T15HfGbrgn2XWtabXv73udeud/3/06FF1b/52X3dpbfs/+2B3O+zbh2X/ZbmH7sO2z87Q79fyGaprQ6pbftrQrwcAALrI9+Cm7/aRQlIKS0NJsSpFqrbC3Rq/G+d1j1mwLIXEIfcVwBrl717OWbXJsXo7nNElkNFXCW/kOfYFNvJ3WlgDAI4nqAEMqhSX93Uw9inF9aG/9JfiftuJv33GCmzsk+fL+h+z7muQbZB9cOh2KKGNQ062tp1kfPHiRXVrGK9fv65ujaftPXzz5s3qFgAATKctdJ4i1RjFqWgLa6QPsVblSuoU5YYIbWwHNMbaVwBrsu9iqxxTc6ye8phaAhttfxdyXm7qc6MAsDaCGsBgSgF9jkqAZMiQw6HF/kNk/Y8JJ6zB0Pvw0CBQUyd16H3TdjJ4qPddWxjESVUAAE6h6Xt1AgBjf0d9+PBhdeu6tRejUpTbDm2U4EZbkS4/K48d+0pvGFKOMzm/MGY75/M3dJe/LU3vlRxjxwwodpG/C1mHJksa0RcA5khQAxjEnEd6KCGHMYwx6kedc+/4jLUPy8mZPiddb9++Xd26bqgAxb71GXr0jl050QoAAFNr+z7dNrrdUFIMa/ouPMWId3ORbV2CGyW8Udfys/JY4Yzx5D1Zt/2HbG2FWGA8bee6Eh6cw7E169B20dJUF7EBwBoJagBH2xfSKAnwcoXN7smAnHRou0rnGF0K/OUqoLp1K+vXZuxOyZxDMFNo24dl37W9t7roEwKZ4gTxvpPAQ70fmkbtMO0JAABzMlZ/sY+xw9IAnJe2i3RyPmtOAbgE85r4+wgAhxPUAI7SFiIoAY18mU/noq6Dkf8rV+qkuJ6OyFAn4faFNLbXr674XtY5P8vj2tYrBe99oyAcIsus275Zl2yrY8IJS9C0D/P683rLvmt7b5Xtsk+fkVGa3gtDdU7bpj0pjg0Htb1f67YnAACcStuodkMTWgZgCm0X6czxb1HTubBzvrgMAI4lqAEcrClEEPnyXgIafZTQxrFhg6YCf9F3/fK4PL6pUxJ9RmXoanfKkzz/vnBJ2YZrUDflS3n9fWS7JLDRtv/yXm4LL2xrOlG8pM5p0wmBNQV9AAAAAJam7/nUKUwZmgSAcyGoARysLfmdeRSPkbBBCvKHdgLqCvxFCtGHBhn2hTWGngJlu/DfN1yydBlVYvf1J2xxzOvft/+6hm3qQjLFmCNdbDt29I6m33cFIQAA52zfNITAsuQ8wpzauZzT4XBt561OyfkiADjMn//ff/+7f3/+53/+3b/bBDWAgzVNz5AgxBAdzyyjrSDeJIXytpE+DlnmtraQR5cpK7raXlYJaZyzoV7/vuV0DVo0dZyPDVDUnRiue65jR+9Y0ugfAACch6Yi0JD9rH2avs+7kvhwCaNvt/S5SssUlGkXFxfvWtfgOgAAwNIJagAHaTt5cuqEddNJvCHDDhnto8kYJ5aOHaFk6dq29yHaltf1JPBY05/UPX/Tc3UNlexqe4+6ugcAgDmaqoB/ToHmbNMubTtYsdtK0GI3cLHdMnLhdkufp7RsbyFygM/M9ZhoxCkAOMy337ytbl0nqAGsSk4MNRky7NBWzB6645KAyTkXz8d4/Vle04gYkZORxzj095t+r2kUmENH72h6j2Y0HAAAOJW27/1dpyk8RlN/Mn2HY0dmHFNdOKJL2w1QNLXtYMVuK0GLoQIXCoGwLDlG1B1fhmo5zqzVmNPqjqFpXziXBADtvvhvNMcxBDWAwZ3yxErTiaExiv1NHZGhO5GmPBnn9bcFd7q8h9s61Id+Bup+r7zP6oIlh54IbXqPmm8UAIBTaxv9ri2Yf6wsu+n79dynPWkLoQMwX03H75y3OfYioiG1/f11LgkA2v36/+q3q1vXCWoAq9GWNh9j6pC2jshQnalzP+E25utvC+50Dds0rd+hI13UPW95n01xcnjoMBMAAPTVNvpdghQpFg1dvGoLaWRd5jyaBnAecmy8vLy81s794p6lazvX8+jRo1mENbIObRcKOZcEAIcT1AAGd2iR+lhNz5sTa2N0GtqWOdSoInO/cmtsY59waBuesUtnuGn/HDLSRdPz7Xvv9h0Os+l5DFUJAMBctAXt8107Q+3ne/CxBawsI0Prt31/HyP0P7S59RvTB99t6W/stoyest1SdBaKAc5Jjnk5RtYpf++O/Vt3jAQZsw5N2kbBAgA2m3/zf/i91a16ghrAQdqKx+lItA2JN5amk2tLDjs4STWutlFRjp3+pG+Aom3ak2h6rr7BqKbXZahKAADmIv3NfcWfjEaX4lGCFiW0UVqd/H8el5b+an5v30h6WYcxQv9D6/pdfjc8sdt2gxRp+f8mu1f2l5bA/W5Lf2a3ZdtuN4BztC8QmL91U59nzd/MfUHG/H1w7AaAdn/w//zjd//+D/5n/+bm5/53P/Pu9jZBDeBgbSdspg5rNJ2MG1vTNhhiVJG27XsOpnj9Q3Qoh3oPtE17UtQ9V1unuU7TyWidawAA5iTfT7teqVtCG6WluLTb8v95XFqX79BLCWlE1rMuMLHb6gIU260uTLGEEUWA8eV4UHdcOVXL+qxFl793+buVv2U519r3wqCuSqCx/M1sk/NT+bsBAHTz//m//sHmv/f/+7ere58R1AAOtu+ETQlrTBGiaBv94BSdt77Fc6479UgoXYMWQ0x/0vUz0vRcXTvpTc+TK+UAAGBuSvFqyhB7nmtJIQ3gOKUwvdQ29UgLjKNLWCNyrimBw7LvS3AjLed8upxfKo8rv5dlZHkl0LiPkAYADEdQAzhYOhH7TpilA5Ev+qXjMJYhRrCYmyVP2bIkx570HSII1BQ02j05vKYrRgAAoIt8J05BqEsB6xjpFyTAnOcS0gBgavnbk9FCup6nyjnXEtxIy/nXtO0gT10rjyu/1+dCo/wtFtIAgOEIagBHyZfzLh2I0nEYO7BRp65TMlTr05lhvZo+A13f6/ls7Goa5aLuuboGlZoCIV3ntAYAgFMpBawUiYYcEW47oCEYDcCplXBi18DGFPJ3Mn+DBRkBYFiCGsDRuoY1ogQ2EnJIaAPWoGn0ky4BiqZhKZvCE3XP1TUwVBcICR1tAACWIt9dE6jYDm2kdemT5jElmJHfzTIENACYm/yty9+nrn/fxlL+Xvo7CQDjENQABlE6D32kuFwCG13mUISl6RKg6DrtyT77Ru9o+oz1/dwCAMBclNBGWvqkCV40KaGMEswQVp7O9qiUhzaAc7T9922q0EYJZ+Q5/b0EgHEJagCDyZf3fInv22lIMTtzIwpssFR57zc5ZKqftvBE03PtG73DtCcAAADweeVc1txbCuect7xXS2gjLeeOSnijtK7K48sySjAjLc8jnAEA0xDUAAaXTkO+4PfpIEQJbBxS2IZTa3q/7wtQ1E1Hsi880fezFU3rofMNAAAAsCwJVJTwRmltoZ6cSyphjPL4sgznhgDgNAQ1gFHkC37pIPQtKqdwndE1hrDdCZm6cV5u375d3equaQSZfR3kuufaN81K3c/bRu4AAADg9HKOpG46mCFbLpoBAACmJagBjK4ENspwfF2kqDxUWAPa7As4dJUrEOq0Lb9uOpIu4Ymm52oajaYpEGLaEwAAAGAIOfdQFwRKAwDgOkENYDJlOL6u06IMEdYYqgjP+TlkhIym93VTgOKQaU+Kuudqmt6kLhAShrYEAIDzU1dETWsKeB9rd/TJQxoAAMDaCGoAkyvTonQJbCRo0eVk0SFFdRj6RGTT+7AuQNH03F3DE32mP6kLhAAAAAAAAHAaghrAyZTAxr6wxqNHj6pbhxnrqiCWr2mkiWiaXqRNn+lPDp32pGgaeaPr+73PcwEAAAAAADAcQQ2YgS7TgAypaXqEU9kX1ugyfUnbdBFtxXjO2xifhab38m6A4phpT6Jp5I3d93tTcKPPcwEAADCuBP/rpn05dQMAAMYhqAEzNrdAxZj2hTWePHlS3arXdboIlmOK6TqaQkDHhKeapj/ZDlAcO+1JUbeeu8eNpqCSzwwAAADnLuebLi4uZt9u3bpVrTEAAGshqAEz0FTY7TKSxCHGWu6xmrZDV03F9SkK/oxjzGlr2sI/x7wXm0aq2A5Q1IUnDgmH1K3n7ue77v1v2hMAAADgHOVisbrRY1zQAgBMTVADZm7oQvW+kSlO6dipGNqK63N+3TQbc9qathFrMuTsoZo69tsBirrwxCHhkKb1LO93054AALBW+a5b15qUn+e7ctd2586dvS1XuufftUr/pq6gmQYAAMDhBDVgBtqKpkMXqtc8ukRbcd2oGss01n7LSdcxpj0pmpaR5206eXxoeKLL9Ce7XCUCAMAp7Q7pf0jLNAB1rUn5efoYXVv6DPtalH8BAACgK0ENmIG2omlODg0lReKl6lrEbpvSYc1XOa3ZGPutLciQITCPdcjoGIeGJ9qeqy7oZdoTAABObYhwNADMTc691oULp2xNocWECuseP3UDAD4jqAEz0VY8bRu+tassY+jQxxDrNbS2QEc6JGOu81y3ydINvd8S/Gi64m2oE8ZNo7skIDJ0eKLuPV9eX91n/tCROwAAYCiHBJs5b3VTr6QZLZCxpJ9e956bWxviYhMAAE5DUANmoq14miT0sYXqtiFgD5VlDjlKx6NHj6pb13U9+ZLHtRW9h9iWdVL8HzIIw+cNtd/aQhox5AmOptBH3Wgex4Qnmj4bQkMAAAAAAADzJKgBM7EviNAWYmiTYu3u1BFDDjObcEKWf2xROL/fVEDvO9pA02gGxZABkzKkYVvxn2EcG9bYF9J4+fJldWsYdVcJ5vnr1uHYq8DqPtNNx4xjnwsAAOYg34GPaelndm3pK9S17avaAQAAoJcbN26kN/nddvfu3e/0L4FTePny5ec+j3Utj+nq8ePH137/gw8+qP3/0rpqWvYh2tYn7RBdtmXWt8/23Na0zocsr245aXmOc1D32tOatnHf/ZbH5nfqllXaoe/dfeqea7cNsZ/3fYZKO5f3FMzdl7/85Wufz7dv31Y/BQDWoq1fekp165N2aP8YmtS9z9Lm9F5r6k/rP/c312PelLqenznnBgDn4Jvf/Oa1v4FPnz6tfvoZI2rAjORK9w8+aB/tIqMKZASHjORQN7pA/q+M8lA3FceYc1dmpIA8b0YuyDo0jVqRddy3nsV3OnnVrX6yLff9btZ3d3u2bdO0vLZ968xw6vZh2W/lfda2z/KYPLZuFIsin7mxPhf7Ps9xzLQnxb5RZIohngsAAACA63J+5vLys9GWtOsNAPiMoAbMzMOHD6tb7RIUKCGD7Zb/awoRHBp66CtF8axD2u76lXVsW88i63vMNA1dwhpF2Z5t2zStreDP8Nr2YXmfte2zfftrzJBG1E1/suuY9/i2LqGQoZ4LAAAAAACAwwlqwMz0CRf0cWzoYWpDre9Y27PO48ePFcJHMNY+zP4aM6QR+0awyDoMZV8oZMjnAgAAAAAA4HCCGjBDpTDd5Qr5fbKMDCs3dIAgQ/kNsX67Ukween2zrCxzrEJ1Weeu00/Q35Bhjbxvs6wp9te+9/GQU5HsW5ZpTwAAAAAAAOZBUANmKgXeXO1/aHE6xegECMYcMSDLLgGIY0MbU4QdsuxszyECG2X7CmhM59jAzfZnYl+AYkhtn40h12PfsqZ8zQAAAAAAADS7uHHjxuWbN2+qu5vN3bt3N5988kl1D5iLV69ebV6/fv3u9osXLzbPnz9/d7soxeBMf3DK4MCTJ0/erV/srmORdS3TNOQq/1MVkMs2rduexXaRPet8yvVdq4uLi+rW5yVU0fZe3rf/5vKZANj10UcfbT7++OPq3pW3b982Hg8BgGVKn+XWrVvVvc9LCP1U1vid45Tbk2ZN77VcRDOXcys5j/XgwYPq3rKd+nPQdsxbmjm9RwGA5fn000837733XnXvytOnTzf37t2r7l0R1ADgpA4NagAslaAGAJwHQY3pCGrMk6DGtAQ1hiOoAQAco2tQw9QnAAAAAAAAAAATEdQAAAAAAAAAAJiIoAYAAAAAAAAAwEQENQAAAADgTFxeXq6uwaHu379f+55aYju1999/v3a9ltjyWgAAxiaoAQAAAAAAAAAwEUENgJW6uLiYTXvy5Em1VgAAAOeh7epyOAd17/00oxUAAICgBgAAAAAAAADAZAQ1AAAAAAAAAAAmIqgBAAAAAAAAADARQQ0AAAAAAAAAgIkIagCs1OXl5Wza/fv3q7UCAAAAAACA8yaoAQAAAAAAAAAwEUENAAAAAAAAAICJCGoAAAAAAAAAAExEUAMAAAAAAAAAYCKCGgAAAAAAAAAAExHUAAAAAAAAAACYiKAGAAAAAAAAAMBEBDUAOKnLy8vadv/+/eoRAAAAAAAAsB6CGgAAAAAAAAAAExHUAAAAAAAAAACYiKAGAAAAAAAAAMBEBDUAAAAAAAAAACYiqAEAAAAAAAAAMBFBDQAAAAAAAACAiQhqAAAAAAAAAABMRFADAAAAAAAAAGAighoAAAAAAAAAABMR1AAAAAAAAAAAmIigBgAAAAAAAADARAQ1AAAAAAAAAAAmcvGFL3zh8u3bt9XdzeZP/+k/vbl161Z1DwAAGNI3vvGNzT/5J/+kunfl7t271S0AAAAAAJbqD//wDzf/4B/8g+relb/9t//25q/9tb9W3bty8Z12eXUTAAAAAAAAAIChfPjhh5uvfe1r1b0rpj4BAAAAAAAAAJiIoAYAAAAAAAAAwESuTX3yhS98YfPFL36xugcAAAzp29/+9ubt27fVvSs3btyobgEAAAAAsFSXl5ebb33rW9W9Kz/+4z+++epXv1rdu3Jx48aNyzdv3lR3N5u7d+9uPvnkk+oeAAAwpI8++mjz8ccfV/euJLhxcZEMNQAAAAAAS/Xpp59u3nvvvereladPn27u3btX3bti6hMAAAAAAAAAgIkIagAAAAAAAAAATERQAwAAAAAAAABgIoIaAAAAAAAAAAATEdQAAAAAAAAAAJiIoAYAAAAAAAAAwEQENQAAAAAAAAAAJiKoAQAAAAAAAAAwEUENAAAAAAAAAICJCGoAAAAAAAAAAExEUAMAAAAAAAAAYCKCGgAAAAAAAAAAExHUAAAAAAAAAACYiKAGAAAAAAAAAMBEBDUAAAAAAAAAACYiqAEAAAAAAAAAMBFBDQAAAAAAAACAiQhqAAAAAAAAAABMRFADAAAAAAAAAGAighoAAAAAAAAAABMR1AAAAAAAAAAAmIigBgAAAAAAAADARAQ1AAAAAAAAAAAmIqgBAAAAAAAAADARQQ0AAAAA4LuePHmyubi4uNby/6dw586dWa3PUjXt12xf5m1un0kAAI4nqAEAAAAAMKBXr169K6InBNEUNEkrP89j8zsAAMB5ENQAAAAAADhSCWYkgHHr1q3NgwcPNs+fP3/XmpSf57H5nfyu0AZz1xY+WkLz+QIA5kBQAwAAAADgQCn6pnBdghnH2g5tKCgDAMA6CWoAAAAAABwgAY2EKoYIaNTJsvMcAhsAALAughoAAAAAAD0kOJERL8YKaGzLcySwIawxnmzb7alrdlv+Py2PAQCAIQhqAAAAAAB0lKJ+ghP7fPDBB5vHjx9vXr58ubm8vLzW8v9peUwXwhrDKuGMBDGybdumrsn/p+UxJbghtAEAwDEENQAAAAAAOugS0khAI0GMZ8+ebe7fv795//33q598Xv4/LY8pwY19oQ1hjWEkZFHCGYfYDm2cY2Aj7+3t0NFcWz6LAABzJagBAAAAANBBW0gjReGELVLEPkQJbWQZbQVmYY3DZbtlNIxDAxp1sqwsEwAA+hDUAAAAAADYo60Yn2BFAhpNo2f0kWVkWW1hjUePHlW36KqMhtI0vckxssyMriFAAwBAV4IaAAAAALBgCRCkSDxUaxptoEz1MGRbkqYCfwlpDK0trJF1EQroroQ09snUMxnRZHcKjTItTVt4Jox2AgBAV4IaAAAAAAAtnjx5Ut26boyQRtG27NevX1e3aNMlpFHCGZl6pm5UlDItTfZHAhttugRCAABAUAMAAAAAoMWLFy+qW5+3r2g/hIQI6jSNfMLntU0TkxEyEtDoM2VNAhv5nbbRNdqmyQEAgBDUAAAAAABo0TTtSYr2Y2sLEZhmo11GQhlrypp9U9O0jcICAACCGgAAAAAADZrCEG0jKgxtyudai+y3plFHjg1pFG1hDSOeAADQRlADAAAAABYsxeJMxbDExnFev35d3WJX25QnQ4Q0iocPH1a3rlvrFCh5XRcXF7NvTaOpAADMgaAGAAAAAACrkdE0mor0L1++rG4NI1PTPH78uLr3eYICAAA0EdQAAAAAAOhJEX6+mkYayTQlCVYM7f79+9Wt69Y6qgYAAMcR1AAAAAAAaNBW2M/IDVNoCoXcvHmzusW2Bw8eVLc+r22akmMZVQMAgD4ENQAAAAAADtA0csOQnjx5Ut26bozRIZauLTwz5vZqG1WjbR8CAHCeBDUAAAAA4IylsJ1Cclqmabi4uGhs+Xlaefy5aBotISM3jD2qRtPoEJnGg+uawjNN+3BITfvkxYsX1a11u7y8XEQTcAIA5kBQAwAAAADOTAlnJHxx69atd2GAtH3TNOTnaeXxJbyx9tBG2xQjjx49qm4NL9u2yZjTeCxZU7Blimlibt++Xd0CAIB2ghoAAAAAcCZ2wxlDKMGNEtpYo1yB3zQiQ17/GK87y2wKzmTkBqMCXHeqaU+KpulPmvYjAADnS1ADAAAAAFYuBewEKYYKZzRJQTrPs8YRNpqK8FFe9xDToGQZbSGNePbsWXWLLqaY9qRomv7knKYKAgBgP0ENAAAAAFixFIgzgsaUEghZ4+gaL1++rG7Vy3bO9j40sJFtlmW0hTT2rcM5e/36dXULAADmTVADAAAAAFYqhf+uo2hk1IGEANIuLy9rW36WxzWNGrAtYYO1hTUyfca+oES2d8IWZWSRhDaaghv5/zwm2ymPbwtoRJ7blCf93bx5s7o1vtu3b1e3Pu/FixfVLQAAENQAAAAAgFVKAGBf4b+EMxLCyNQeCQG0BQHyszwuU2/kd/aFNs41rFGU0EYJbuy2/H8es28/hZDGfsIQAAAshaAGzFi54mL7yordlv9Py2PSplSes23dymOarhw5lbJdm9b5HJRtULcdyrY49fbYfv+n1a1nWlnPub3PirbXMOS679tW+flctlNZl6Z1LdtlLusLAABLk+/RbSNpJFyRwn8JZxyqhDYS2GiSEEK+269JtlmCKl1GFjlW2VdCGvs1BV6m3HZTjt4BAMCC3bhx4/I7/3y33b179zt9DFiO7ffvdnv8+HH1iGFluXXPlzaU73S+a5fftX2nAz/a648sv+55u7S8tiH13R9dt+3Q6zmWQ96PeW2H7MP8zhTbJa/pmPdYWpYx9LrWPU9a02ftkO18yHofuj/H2EZdHLNvT7G+MIYvf/nL197fb9++rX4KADCMtu/e+dkY8p297vlKO1TTa2nqj01t3+s+tOV1D/kas6ym51mLuteXNqW298OhmvbdqT4DbceXJTUAgDF885vfvPa94+nTp9VPP2NEDZiRXO2SK8kz7OUxcvVArprJFelDKle+dxmOs0kZ6vMUV8jn6p1jt+2SZZtnH2YbHLIP8zv53aHfV0X2T94bXYd8bVOGlj3VFVuHbuey3l0/H8fsz6m30dKPHwAAsCT5ztz03fuDDz54NwLGGDJqwcuWKUHWNqpGUUbXyGt/3DKySFfZR1lO9lNGLGFZjHwCAEAXghowE6XgOkc5wXNsgXXXlAXiyPZNYfpcZR8eWtDflWVkew5lO6AxtCxzyHXdZ6jPSvZV23rnefLzIfbn2NtoDccPAABYmtevX1e3rhsrpFGkSJ2gQZ0XL15Ut9Yprz3Biu3QRlrT9oj8rAQz0vK7AhoAALB+ghowA0MVXMdQCvxjmKqIntcw1+07hTH2YbbnEPsu6zZ2gGaodd1n6O2c9c4yd5XnGfI9nWWNEXwY471XTB3CAQCAJWnqZyUIMIWmMMiQ/Zi5K6GNtGyPBDDqWn5WghnCGQAAcD4ENeDE9oU0clVFrsJI2+3Ml6sz2q7MOEaXImu56qNu3cr6tRmrQFyMWShegrbXn33T9r7aZ+x9V5T3WNO6pu37DGRdsy3G9OjRo+rWZ9o+H122cfbd7no37c9jnysncofcRl0+e3M/fgAAwNrcvHmzunU6Y/fNAAAAlkBQA06oLaSRAmYKlbmqIldh1M1vWa7OKFdmpKi5r2Dd1b4i6/b61V3xUdY5P8vj2tZr6ALxtrrieWRbZb12C8RDbsM5qNuH5XVn37S9r8r2aDPWaBjZB3nurEN5jzWta1oek9fVZl9o4Bi7n+Ws//a67+qzjbffw3UjSHT5LJbn2reNmj4vfa3l+AEAAGuT79lTafseDyxb+vM5z7D0BgBwSoIacCIpLLaFNNLh6XsCJUXN/N6+wu8+XYqsfdYvj8vj207SjFFEr9vGpfifbVW3/mUbTnnyaiy7Iw1k++e193ltpVDeZugRDbKPsg/y3H3kde1b1zEK+pljeTekkfXvat82zrKz3tnOu+/nQz6LXZ7rGGs5fgAAAMAhxjj3AADA+ghqwIm8fv26unXdw4cPq1uHKYXf27dvV//TT9tV9aWIfoh9xdahC/672zjbpG/xf8m2R7voGx7YlkJ5W/hnqFE1so4lRHOofUGEMQr6x4Q0in3bOJ/J3e081nO1HZu6WMvxAwAAOM5u0Bym0NZvPLU5rxsAANMT1IATaSpup5CZQuqxsoxDCt51V+0X6VAeG3RoK9IOVfAvtpeX4v0Q23WJDi3ob8t+H7NInv1z7DoW+/bzmFe2HPMa2j5bdZ/JYwJdbc91zOdwTccPAABYsqb+21QB57Z+17n2zYeQ7Vpa9mVpmSaztIuLi9ppM8/dmOcCAADgEIIacAJtncObN29Wt06jqdg5RLG/aBvxYIyOc9b9nE8EHTtCS9E2Qkum/zjUGCGathEjxjLEc7Z9NrYNEehqW99DP4drPH4AAMCaHNN36+PYkfqWJn2RfW07WLHbtoMWpSVwsdsySmRp6X+VlsB8aZxe0/v/0JFvAQBYJ0EN4LtyIqDJUMX+aCswj3EyZ8h1X5qhRmiJY0dDqJN1GzqkEW2BpzHeY0OMFhFdtsVQzzX0Nlrr8QMAAJaoqSCcQn6CAWNKKKEpxN01nH4K2S514YgubTtA0dS2gxW7bTtoUdoxjv39JWt67+svAgAwN4IaMDOn7Dg2deTHGJGi6Wr+nKAY0pBBhSUaeoSWvBfqzO0kUNs+H+MKsiGvimnaxsVQzzX052KNxw8AAFiqhLub+hb53pwwxRiy3IQSmsy5f37qEU4Z11SjyURT39R7DACAbYIawDttV9SMMSJFW+d0yBNG594JHvokWFtIYKwTfYfaF3gY0pCjjewLYgz5XE3bqO8JrLUePwAAYMnavosnTDH0yBr7QhpzHk2D9WjqM091gclS+6R1I8Von7WxRyICAM6ToAbMzJQJ/21NzzvG1fDRtswhRxWZ89U6Y2sadeAYSwq+DDnKRZspAyFTPlcfaz1+AADAkuV7c1sfIlf9ZwrDYwuQKUxnOW0hjbH6BkOa2/plm9W19PV3W0IwpV1eXr5r5yzb6VTa+qRz/wwAADAtQQ04gbaOWRL+OcExtaYrC6Yqdo8hJyvO2Rihirb37lIK5HObpmVX234b+vPYtLy+22iNxw8AAFiDZ8+etRat810+gY1cMV5CGwleNI0KUH6Wx6Xl9xLQaOtD5PmzHkvQpcCfx+xru0GKtvMT+VkJV2y3bLO6lhEjdlv66qXRbIpREZouZGh7DwAAcJ4ENeBE0nFvkhMcU4Y1mk7AjK1pGww1qohpT5ygmcK5hxHWevwAAIC1SHG/7RxEUUIbCV6kbQ/7X1r5WR6Xtk+eN8+/FFnXutDEdiuBibZWF6bosg8YRlM/vct79hjpHzeFls79HBUAANcJasCJtM0VGyWsMUURtG0khJxMmFrblThQZ/uKrnxu0sY+AXMKczyx4/gBAADzl/DA1Ff05/nyvDC1tr7omKNqmPYEAIA+BDXgRNJB23c1RQqOuVKlDD86lrVega4TvC51YYztq7rKFV353CjWT8cIFgAAsAwpXmdEiLFHdkhA4+XLlycJbkPRFEwaqw+bcxZNF4wsYdqT3ZFjtM83xzMAYAyCGnBCubKkz/CjYwc26mwPcTp0U0ynyXYgo7xfhDGWZ/vzPnSz/wEA4DA5F5HCY4rHQ4Y2tgMaLpzg1JoK6+lLjnFu7dGjR9Wt60x7AgBAHUENOLGuYY1IZzJF6hQpU8CGtcnJkry/twMZAAAADC+F7O3QRgludDlHkceUYEZaueJcQIM5aXov53zDkDKaRtP5i3xOfC4AAKgjqAEzkBMj6bj1kQ5gCWykQwhLVkbOGPpkCQAAAPslZFGCG23nKPL/CWXkMSWYoQg9jXJhwzHt3PrceZ82GeoCqJyTywigTYymAQBAE0ENmImc4MjJjq6jaxQJbKRDKLDBEuU9m/fuMSNnlCu+csIwrVzN1Tf8BAAAAKxL07mBnIcYIqzRNuVJzk8IMgEA0ERQA2Ymaf905A4NbIwxzyaMoVx10jWkURfGKFdylau5yhVdAAAAADlP0HSO7ZiwRs5pZJSSpnMaeU7nJwAAaCOoATOUjlwKz4eMsJFhLIcavjHPXYrhUzfWr21o0CjBjPKeEMZYFscPAAAA5iDnE5rOryVokcBFnwuf8th95zTynAAA0EZQA2auBDZSsO4a2jjmigCYwr73Z97vJZgBAAAAcIyHDx9Wt+qVC58SwqibWjj/l58l1JHHtskooGuX7bDkZkRiAGAOBDVgIVKwTuG667QoQ4Q1moZvhGO1vbfyHhfQWD7HDwAAYM1K0X63jXXhTPrJu6MJ9m25KOJcZWTOfQGK9GMTwshoGbv7Nf+3L6AReQ6jgAIA0IWgBixMmRalS2AjHcy6qwB23b59u7oF42s7aZWTRk5oLIvjBwAAAEuQ8w0JrHQdsbaPLDPLdk4DAICuBDVgoUpgY1/n8tGjR9Wtw3QJekAfTSMt5L1sJI11cfwAAABgbnI+bcjRRXIxVZYJAAB9CGqweGOk4Nu8ePGiujUP+8IaXaYfuHnzZnXrutevX1e3YFxDj8wwt8/qWjl+AAAAsDRlKpkENg49t5jfNYoGAACHEtRgtc6pSLsvrJF5U9voUDIVIyysj+MHAAAAS5XARs6rZVSMEtpoOseWn6flsQloGBX087Ldsl3m1LK/AADmSlCDxWu6Cr/LSBKHGGu5xzp2NIKmTuiDBw+qW3C8thEW2kZmOMRcP6tr5PgBAADAkuUihBLaSKsr+ufnaS5YAABgCIIarNrQV+/vG5nilI4tcrcFPeb8uqGO9+y0HD8AAGCZct6krjXJ6KXlMfmu37XduXOntV1cXLxrbc+9dG3FfwAA4PwIarB4bQGFtqv3D7Hmq8PbTgy4Kp6lOaepj+bA8QMAAKaXAEQJOBzabt26Vduavsdn5MLtx3Rt+b22Vgx9HgcAAGCuBDVYvLbhBnMyYCg5AbJUXUfbaJu3MVe4wLGmCFbls7p9oo9pOH4AAMC0hp4+EgAAgOkIarAKbQXCIYbNzDKGDn3McTjPtpM8KXyPuc5z3SZMZ4jP2NCfVbpz/AAAgGm1XbgCdTIaYt30K5mWBQAAmJagBqvQViDMcJzHFvCyjKFlmUOO0vHo0aPq1nVdT97kcW2hlyG2ZZ1cba+4fh72vRePeX/ld8f4rNKN4wcAAAAAAEA3ghqswr7ib1uIoU2KirtD9n/wwQfVreOluJjlH1u8zO83TfXQVjitk6sr2gwZMMlyMieuaSrOyxjF/PyOkMbpOX4AAMDy5DzHoS39u67t5cuXja2M7LCvTwEAALAWghqsRjr2TVLIS0GvTwE4RcAUFbeLgDkJcfv27ereMLL8PM9uIKSrsp5NDjnJ0bYt49iASSmwugr+PO2bRznv50M+q9vKCUOm5/gBAADT2Z6+4tCWaS8ObTnn0LXlIpumBgAAcG4ENViNdOxTnG2TYm4KfCn01RUJ839tRcCchBhLCZOkgJl1SKuTddy3nsW+gmmTbMt9v1sCJtvbs22bpuW17Vtn1i/vr30hin2f1X3vpzE/q7Rz/AAAAAAAAGgnqMGqPHz4sLrVLoW+UiTcbvm/piLgoaGHvlLAzDqk7a5fWce29SyyvsdcldKl2FqU7dm2TdPy2iByNdW+YFWU99bu+6rt/TTVZ5Vmjh8AAAAAAADNBDVYlT7FwT6ODT1Mbaj1HWt71skIC0vaxhwvo150CWv0sbTP6po5fgAAAAAAANQT1GB1SnFwiAJwlpH5WocuAHYdTaCvFCuHXt8sK8vcN1XFoco6Z5twfoYKa4z1WeU4jh8AAAAAAADXCWqwSikOpgB86NXcKfqmAJhljCXLLgXMYwvVUxQrs+xszyEKrmX7KrAS5bN6yOdgis8qx3P8AAAAAAAA+MzFjRs3Lt+8eVPd3Wzu3r27+eSTT6p7sA6vXr3avH79+t3tFy9ebJ4/f/7udlEKxLdv3z5p4e/Jkyfv1i9217HIumY94+bNmycbQaBs07rtWWwX3rPOp1xflmH7s/rgwYN3/26by2eV4zh+cO4++uijzccff1zdu/L27dvNxcVFdQ8A/rv27t/HbexQG7CmcHXL3CJNqsC4bWpn3bixu/wXBgJkEcAXsJvtPjc2YCDFIoD/i5R248aGu9TBRYxUAdLk9gkW8Hx+PTx3tRrykJJIiqKeBzgYaUZDUfxxRJ7z8hDY9ujRo9Zzh4S4T3VumDactvPWc3bK5Uld1/Z2qnV27ucutnUAYEqfPn3a3L17t3l249WrV5snT540z24IagAAwIwENQAA9iOoMQ+d18slqDEu2zoAMKWhQQ23PgEAAAAAAAAAmImgBgAAAAAAAADATAQ1AAAAAAAAAABmIqgBAAAAALCHp0+fbq6vr1dV8plgiLbt55yKbR0AWAJBDQAAAAAAAACAmQhqALR4+fLl5urqajEFAAAALtWbN29cFc9F6xrBxT4AAHC+BDUAAAAAAAAAAGYiqAEAAAAAAAAAMBNBDQAAAAAAAACAmQhqAAAAAAAAAADMRFADoMXTp08319fXiykAAAAAAADAOghqAAAAAAAAAADMRFADAAAAAAAAAGAmghoAAAAAAAAAADMR1AAAAAAAAAAAmImgBgAAAAAAAADATAQ1AAAAAAAAAABmIqgBAAAAAAAAADATQQ0AAAAAAAAAgJkIagAAAAAAAAAAzERQAwAAAAAAAABgJoIaAAAAAAAAAAAzEdQAAAAAAAAAAJiJoAYAAAAAAAAAwEwENQAAAAAAAAAAZiKoAQAAAAAAAAAwE0ENAAAAAAAAAICZCGoAAAAAAAAAAMxEUAMAAAAAAAAAYCaCGgAAAAAAAAAAMxHUAAAAAAAAAACYydUX1180Tzebn//855tf/vKXzTMAAGBMf/vb3zb/+Mc/mmc3fv3rXzePAAAAAAA4V//61782f/7zn5tnN37/+99v/vCHPzTPblx9KT+mNAAAAAAAAAAAGMVvfvObzZ/+9Kfm2Q23PgEAAAAAAAAAmImgBgAAAAAAAADATK6+uP6iebrZ/OxnP9v84he/aJ4BAABj+vvf/7755z//2Ty78atf/ap5BAAAAADAufr3v/+9+ctf/tI8u/Hb3/5288c//rF5duPqzp071z/88EPzdLN5/Pjx5vXr180zAABgTN9+++3m+++/b57d+Pz5cxLUzTMAAAAAAM7Rp0+fNnfv3m2e3Xj16tXmyZMnzbMbbn0CAAAAAAAAADATQQ0AAAAAAAAAgJkIagAAAAAAAAAAzERQAwAAAAAAAABgJoIaAAAAAAAAAAAzEdQAAAAAAAAAAJiJoAYAAAAAAAAAwEwENQAAAAAAAAAAZiKoAQAAAAAAAAAwE0ENAAAAAAAAAICZCGoAAAAAAAAAAMxEUAMAAAAAAAAAYCaCGgAAAAAAAAAAMxHUAAAAAAAAAACYiaAGAAAAAAAAAMBMBDUAAAAAAAAAAGYiqAEAAAAAAAAAMBNBDQAAAAAAAACAmQhqAAAAAAAAAADMRFADAAAAAAAAAGAmghoAAAAAAAAAADMR1AAAAAAAAAAAmImgBgAAAAAAAADATAQ1AAAAAFiFq6ur1nIKHz58aJ2XFPbTtgxTsoxZrrZ1lnIOHj161Drvc29zXfPx8uXL5hXsaynrFgBAUAMAAAAA+NpRmZJO4K7OzJT8rRQdxgAAAPsT1AAAAACAC1WCGQlg3L9//2t59uzZ5u3bt80rbsvfSslrS3hDaAPgtFKnbwfrSkkdDQAsi6AGAAAAAFygBCtKMONYu6ENAAAAuglqAAAAAMAFKVdcjxHQaJPQRqZvhI1+ZTSTJRfo2k5Tl0yp633VLQDAGghqAAAAAMCFyGgXGUVjDgmCGF0DAADgNkENAAAAALgACU1ktIs+L1682Lx///5rub6+vlXy+7zm4cOHzX90y/sJawAAAPyUoAYAAAAArNyQkEYJZjx9+nTzzTfffC1t8vu85s2bN19f3xfaENYAAAD4KUENAI5Wu6cuAAAAp5VztlpII0GLBC66ghl9Smgj0+kirAEAAPAjQQ0AAAAAWKkPHz5snj171jy7LaNoJGgxhkwn0+uSsEbmhx9lmZVbyhxTurS9dt8CAACMT1ADAAAAgNmlw75tVL5jSpe21x5TMkLFufj48WPz6LaEKg4dRaNLplcLazx//rx5BAAAcLkENQAAAABgpbpG08htSsYOaRSZbtdtUGq3YIFDTBH66tpO79+/3/r6Q8s5hb44Ttv6n6JkG22Tbbrt9VMUt7kCgGEENQAAAABghWq3GRnrdiddMv2HDx82z35K5zQAAHDpBDUAAAAAYIW6bnvSNdrF2B48eNA8+ql37941jwAAAC6ToAYAAAAArFBXIOLevXvNo2nN9T4AAADnRlADAAAAgNl98803m+vr67MsU982ZO3evn3bPGIMtVvc1P4GAACcjqAGAAAAAMCZ6rrFzaUQ+uIctK3/tZY3b940nxoAqBHUAAAAAIALcukd+2vTdYubsK4BAGCZBDUAAAAAYIUePHjQPPqpWsf+mLpCAg8fPmweMbVnz541jwAAgCUR1AAAAACAC/L27dvm0bS6QgJdARIO07c+P3z40DyCcd2/f39zdXU1WRE0AgDWTFADAAAAgLP08uXLr+XRo0dfS1tHXyn5e3n9pXRcP336tHl0W5bHlLKcu9y7d695xLFqy7nY5/Yn2Tfa9p9DyrnIZ04ZUpeUv6cMWfYAANBFUAMAAACAs1E6U9NpmqutUzKiQN+oAvl7eX25CjzTWntoo+s2I1keU332TLfrSvjMzzfffNM841hDbmOTdbH27XxfJZiReiD1QcqQuqT8PSWv3w5wCG4wp7INl+/E8r3YV8pryzZruwWA0xHUAAAAAGDR0iFVOqFKZ+oYMq0S2lhrR/abN2+aR7fls4/9uTO9TLfLd9991zziWOlgHbov7DOqxpqVuqQEM8ZSghul85tpbYdk9i1jfX/MLdtutq3yOco2nJLPNPRzldemlP8v07T9AsC8BDUAAAAAWKzSqTq0E+pQeY+81xoDGy9evGge3VY+9xjSwZfpdcl8GE1jPENG0yjSGbvGbXsfZfucsi4pnd9j7VNctu1wRrbdbFtTKtuv0AYAzENQAwAAAIDFKVe+Tx3Q2Jb3SmfY2jq0nz592nkLlMjnPqZTLssrHXu1TsS8f+aDcWSZd+0bXev6+fPnzaPLUuqSqTu5t2XdZJ9YW12y6/3795vr6+vJSi1ktmZlm50jnNEl23AJbQhsAMA0BDUAAAAAWJR0Ug298j2d0unMq3UY5m8pQzv91hjWyC1Q+sIau1dSdy2D/D5l+0rvmrxv7RYs7K8rdJFtvOv2MlnHfdt1Rjxp24cOKUuQzzu0LsmyK3VJV31S6pGU2v5UrLEuYVqpV4dus3Mp3w22ZQAYl6AGAAAAAIsypOM/HaXpOE0AICM11G6pkb+l5HXbna01a+xg7QtrFCW0kWWQzrndkt+nDLnSW0hjfOnI7erELftC13pe43Zdk89bk+VUQhlZdmX5ddUnpR5JyXad/+vbpy5tmXOYbCP7jvxSQkMlXFS25Vopryv/O+Q7oci2nHkEAMYhqAETy0F2Sk6icyDb1sCR35erVVLmVN6zNm/lNUs7qeya7yXO65T22b6WqMx/12dY4vxvz2/bPJdS5nvp2+P2Ouj6HEtaB2Veu5Z9mdeUS6oLAADWIsdzNelYKuGMQ5XO1nRW1Tqp+jp5z1GWXT73HMq6YlxdHblZ3kXXqBpxKbdA6atLsh9k++wKZQxV9qlLq0tOKdt6WwhhSNknmDCXtF1kGxk68ku2t3yWEhoq4aIh23J5XfnfbL+ZVqa5XYd0yTz27VsAwEB37tzJOHT/Vx4/fvzlexnmtb0NbpcvB4fNK8aV6ba9X8pYvhzctk5/aPly0jDZ549Mv+19h5R8tjG1vUdK1+cfMu95zbk4dHus/V+tTLFtHfIZsh0dsh1OMf9D5D0Pmd/tkmmMvf8Uc6+DqT5HzTHL/xTzC11+97vf3dpGP3/+3PwVAC5bjtt2vye3y1THdbVjzUPPP2qfZSmOPcfpKmOf+7S9R8olHud3rbP8fldtG2x7/dja3jdlDqf67LV96pC6pGt6h9ZLh+pqc5h6H+x632M+f9cyPVV9UttWS8k8zzl/Xct9u0y5HwHAufvrX/9667vz1atXzV9/ZEQNGFkS0Lmi+9ikfBlmdOyEcqaX+RuS0O6Sz5ZpzH2let4v83/MvK9B2cb2GQpx2/a2Nfc6LPLeQ68U2DXVvtGljNyQ9zx228s0TrX/bCv70jHrIP871zrI+5xrvQUAwH5qV/q/f/9+0NXCh8gVxQ87rrI+9NzrHJQrqV+82G/4+y6ZTtZTucKbceX8tOu8qG0EjayDrvWa6az5/Ojjx4/No9uy3U/lUusSDtc3wk3q1GxXc9apqcPz3VD7Xlh7HQIAcxDUgBGVjs8lyoHzsR2du/JZ00gwh8z/oZ3KazLmNpZlmWnNeVI15naYaUzZ8Z7pZnmPEdBok2U/V9Bh25j7UqYx5WcYc3sp8tnnqrcAANhf17FfAgBTd1LVbhUx1XnHUmwPf59lXYIbtU66/K28Nh2J+V8BjelkG+zq6M+66FrutVDC3G0Cc+paVtlWp1arS5yPsi37X9f3XvbrKQOKQ6T+qO0zl3IbJQCYiqAGjCSdlWN2Jo4pB/05+Z5CTnzn6Gx24D/dNjZXYGCq7XCKaZZ5nXqfzvTnWPbFFOtgqs+whnoLAID91DowEwCYWjrDEjpoU7s6f22yrEtwo4Q32kr+Vl4rnDGtvvOjWhgjah2tmW6mvya1zzPHtpr3qIWcoKjt1wn8LKFurW3PaRMSPgKAwwlqwAj6OtBLAjplt2EjvytXqkxhSGdn3jvz0DZvZf5qpj4o71u+l6C2DMrVS23b19Bta+p1WNsOy/zvznvZ9obM/5id7kP2mSj7Tde8l/nvk2U/R2jgmHXQZ+ztZw31FgAA4xlyTjC1d+/eNY9gfn23BOqTjtba63L+lfOwtegKVg05vx3LgwcPmkc/pS6hqO1z2VaXENIoamEw2zQAHE5QA45U60BPY1JOhHMwm4PrtgPs/K5cqZJOxhyIj9UI1dfZuT1/mYddZZ7zt7yuNl+5Qn2Kk/pMs235Zl66OmnnPPGeQ9c2ls+az1yuXmrbvra3rb7taqp1GG2NSrvzv6tse5n/vnWa5TPGvPftM1G2u7LfdM17mf+yXdZk/qcOa7R9rqHrIK/pWwddw8ruq28dnEO9BQDAuLo6PKdw79695hEsQ1+7U9u5XJu8rnZ+tLawxqmpS+hTG6lpidtPV/3RVT8BAP0ENeAIOYGtnSynI3HoCXORzsUhHdN9hnR27jN/eV1e33dSP7bdDv68f18nbVmGa9C2jWUZpON8320ry6QvMDDFLWYyasH2ZyjrcJ/5L53uNcfO+5B9JvPQtt31yWftCztkGU0V1tgdOeKQbWjIOjh2hIq11FsAAABj6Atp7Nv2MeT8KOdlwGnt014zlzlDkwBwKQQ14Ai15HPuI3iM0il66EFwrdM6ncX7nswXfSf1Y99KYLeDP++/xJOVqex2ImebOHTdRZZdrbM9y3vsdbg90sIx6zD/0xd0OMaYAYEufWGHfIYpGsXa1sEh+tbBsaNqrKXeAgDgfNXO82FOY4c0ir7zo5wbTz3i46nMeYuGrrpkrM7unH9fXV0NLs57z0dt/zwlo8QAwPgENeAIXZ2S6VA8tkM3Mo1Drt7PyVftZP6QaW6rNQYc21G7bazO5bUYc7uasrO95th1mG23dsJ6aMNDrRFq7G2vb/lPOcLDGJ9lqnWwlnoLAIDDdXUCzXm81tWR60riwyWMvl1y7F9KzsVSSmfyFMH1c5NlkGVRuxjh2IuDcn5UO6/Le1sfAAAwLUENOFDtZPXUCeOuRqwxO5xrowJMcSJ/bCPEuRujo3rbVJ3tNbVtZh+1beHQq2NqDWBjhjSKvuU/VWPYWPtRrZH60HWwxnoLAIDxzHW8Vjs3WJss0yFlO1ixW0rQYjdwsV0SRt8uOfYvJcv7kpZ5nyzvvvB+zmvGuIijL6wRmZes53PT1X6SbS3LeGp5j65zXKMS0GepdaIRpwBgfIIasDJpGOkyZtih1igw9oF7Gg7GaIQ4Z1MEVaYIPHQZazSQyHS6GpMOOZmt7TO1kS+OVVv+fQ1zhxhzHYwZGoo11lsAAOyvdrw2xTHyrq7j0px/jH0MPKa2cMSQkmU6pGwHK3ZLCVqUcqxLPi7P9pflXTNWSKMYEtbIes72cm6Bja7PVbvl5lhq7zHm+luCbLO7dcuYJdvfWtW+V5a4v3WtiynbzgBg7QQ1YAKnbFjoahiZIuzQdSA+9knUFCManJMxO9i3ZZpjBh5qxr5iZMxhh2v7zJSNsVn+tZPZsa/yGXsdjLntrLHeAgDgMLVR0GoB32Nl2l3HpUu/7UnXsTnnIR2y6ZDuO5caO6RRDAlrxLmdM3Xtt1nOp6pLdGizq2vfy/42x+gvQ9X2GaPEAMDhBDVgRWpp6ylGZKgdiI91MqHBadoTnlqD45jp/Skak7rss+3VPuMcjbG1dTt24GvsdVBbPmOtg3OttwAAOFyOW7vOA0sH69jHbbWO1czLkkfT4HxlO862NyQAMVVIo0hYoxaSir6/L0322znrkrI+u+qSGLMuSejj+vp6cFGPLVOtbSUjsyyhnSLzUNuu52zzA4C1EdSACYx924ihut43J6ZTHDTXpjlWJ/McneVLNtVoGkXtRH2s7XiKK0bGCjjUPuMcjRi1dTvm1Upzr4N9rLHeAgDgOLXAbjqLMtR+Ar/HdmBlGn0jGUwRHh7b0s6bcyy/W3JOslvS8b9dLq0zOZ2wtW2vyLKZsl2gyHvkvdrMNQ9jq43QWuqSYwMb+d/UJZlWbX12LVsuW+q81JFtyjZ6yrBG9o/MQxfbNQAcR1ADDlQ7Qc2BdA5k59Z1QnjOYQeJ/+nVTgjHMMWIIGM1EHV9xq5lMoU0UE5t7nWwT+BhjfUWAADHqXUYFwk2p/MoQYsS2iilTelMTcn5ev6vLxx9Lp3TQ4/3S2iiq+wGKVLy+y67V+yXks7x3ZJz+92SZbtdLk2WS235xtzbYN4r63B7vvL4nNdPX12Sc9IS2Egp9UmXUs/kdalH8r9rqUs4jb5AYNk+55RtvC/IeO51AwAsgaAGHKF2Qp0D2TkPomsnkVPqWgZjjMZQW76XYooO9l1Td4gv9aStts/MGRKoreOx9utzXAdTmrLeAgBgHDmG7etgLUpoo5R0Lu2W0pmaUut4Ks6pYzXzuRuWaCu74Ynd0hamOIcRRc5Zlnvb+Ul+d8ptMPOV98985PE5G1qXpF5IKfVJWz2SUuqZvnBGcU51SU3qg7Z65VQl87MWQ7bRbJvZ/kqYaAppo9kOINWsoW4AgCUQ1IAj9DVYlLDGHJ2RtSvYT3HyMqThi36nPpk/VUf6HJa2z7RZ+6041FsAANSUzquuoO0UTt1BzuXZDWuUDtBTb4N5/7V0xOazpHNfXcJSZTvpC2tECROV0EYJbpSRYIa045XXlf/LNEo4Y0gAqdRRAMDxBDXgCDmI7jvJywF0DnSnTDzHGq8Ed+uDecwxagfdLrnRxggWAAD0yfFyOoSGdGAdI+f2udXHEjrIuTy5EKh07OsAnU6Wbd8tfcZQ1qO6hH1ke9knUJQ25xLcKCPBpCR0USvldeX/9rloRR0FAOMS1IAj5eB0yAF0OXCeOrDRpu2gfKyyz8E8LElXSGDqBhuGaatvxirqLQCA81M6sNJJlI7WseT4vwQ01jSUPuelBJJ07E8v+3mW9diBjUwv9VPqKeuRY2T7zLa0pPapbN+2bQAYn6AGjGBoWCNKYCOdhQltAHQx4gQAAPxUOonS0bod2hja4ZrXpGx3qApowGUqgY3tuqTUEUPs1iWZnk5sxpJtaYpA0b7KNu57EgCmIagBIykHz/tIaKMENobcQxBYp1OedAMAwLkqoY3tDtcuJZSRokN1Xtuj2x1aYEqlLil1RK0u2Q15qUuY0vb321yhDQEkAJiPoAaMKAevOYjd96A5gY3cG1BgAwAAAACAbduhjRLcKOGNUoYqry/TKMEM4QwAmJegBkwgB805wN3nADlKYOPly5fNbwAAAADgR22jjqQAlyOBihLeKCVBi7RJt0k7dQljlNeXaQhmAMBpCGrARHKAWw6Q9w1sPHv27OvoGmPYPgifuwAcQr0FAAAAAACsmaAGzKAENspwdENkdI2xwhpQ8/Hjx+YRp5L9vc2DBw+aRwAAAADLlds5t430kgIAwG2CGjCjMhzd0NuijBHW6OoAhiEucehD+8zpWQcAADCdtk7UlHSyTmF3FLtDCgAAwNoIasAJlNuiDAlspMNySGOJK+851Lt375pHl8U+c3rWAQAAAAAAcIkENeCESmCjL6zx/Pnz5tFhproqhnXoGr0gt+pZs3v37jWPbptzn3n58mXz6LaMwnOp1FsAAAAAAMBaCWqwCENuAzKmpY0g0BfWGHIbgFqn88ePH5tH8FM6w9vZZ+ah3gIAAFivttvYpAAAAIIaLNwl3ZKhL6xRu+o+MjoH69O33o9V6wyvdaKvQW2fefbsWfNoel313NwBtlNQbwEAAAAAAJdIUINFePDgQfPop4aMJHGIqaZ7rK7lMFRXx+6cnc6Ma+qwUm3buIRO9NrtXeYabaSrPjq2PjgX6i0AAABgLrlYrm2kFxeTAABzE9Rg8cbuLJ16hIJjHDuCQa1jd8mfm25Thopq+1YtwLAmtX3u+fPnzaPpPHr0qHl029OnT5tH66beAgDgEDmfaStdyt9zjDm05Hi9r1xdXX39uVbpuGzr0EyBc7Zdb7SVLmkryN/b6oy+slt/lJJ6ZO11CQAAt13duXPn+ocffmiebjaPHz/evH79unkG88gJzv3795tnP5UO4zE7LHPiU3PKxoYxlkPt8y21IaVrnsde90uVk/Xa6AFTLYfatvL+/fu9riSofYaptruxtpsxl8O+xtz217oONACzRt9+++3m+++/b57d+Pz5c3VfAIA1WeN3Xttxa+0c/5THuV3Lf+rzn2Oc4zxPqWt5XNL5U19byjnKiJMZ7WFbwhttF/Essc1sqXXepelaD23bFwAwjU+fPm3u3r3bPLvx6tWrzZMnT5pnN4yowSLUTqrHPOnKSdy5GjraRk7Uukjmn6fsAznJGlNtetmGLqmhKw17XboaGMZQ2x+X1tgyNfUWAMBl6br9HcBQx45Ku0RLvVUzw6XtOUGqU5autqxsX22vn7sAAD8S1GAxah11Y3RSZxpjhz7G7jwfQ+1ENQfkU87zUpfJGox5G46so1oAYY2NHTUJpdQaiqcICmRf6WqAqdWFa6XeAgC4LLXb30GbXI3fVi5xNA1uWPcAAJw7QQ0Wo9ZRl07lYzvSprgyPtNMJ99Yap3xQ09A87paR+8Yy7JNOrPXNuTkkqSzeozAQF9I49JG0yi+++675tFtYy37Iuuga19JYOTSRtMI9RYAAAAAAHBJru7cuXP9ww8/NE83m8ePH29ev37dPIN51YY/O/Q+euncSwBi++r1TKvravZckTFEAhqlgy/TS0fvMR3ctQ70dGDu23nbN5TcIdNss70c4pD7w3bN61jzuHS7y7Dm0P0g+kIax0y79hmG7lP7Gnu7GbJ8jt3P+9b1MctqDevgnOotOMa33367+f7775tnNz5//ty7DwDAWuxzDtQlx+fH2GdUj64LS/qOIWvnGFMdow/RdczhuPh8dK3DU25Xp5DwfVf73jEOqV+G1CmH1CVdn3GJbWZLrfPmNMb329pdWj0FwGX69OnT5u7du82zG69evdo8efKkedZIUOPLj/8rjx8//vJdCafx/v37n2yPbSWvGerLScut//9ystX6+1KG6pr2IWrzk3KIIcsy87vP8tzWNc+HTK9tOil5j0tQW/9df9t32dTeo5RDt4WoTX8qbe+Vsu+y2ZZ9om2a2+WQ6WfZ9k37mOUfa1gHWQZt09suS6m34Bi/+93vbm2Hnz9/bv4KAKxF7fj2lNrmJ8Vx8floW38prE9XW8IxbR9TWWqdN6da24xyUwDgEvz1r3+99R346tWr5q8/cusTFiUJ8i8nIM2zdklm58qBJJST1N6V3+VveU1bgvnQEQOGSMI975u0e+YhpU3msW8+iy8nOc2j/WRZ9v1v5nd3edaWaUo+W988M55cHdG2T2T5l/WWsmufbSyyrbhy6qZ+6KuDdpd92z4T5e/ZZ7Kf1a7ysfxvqLcAAACAc5V2vOvra6VSAIAfCWqwOLm1wBDpcCudddslv+vqjDs09LCvdCRmHkqHbts81uazOLbzdkinZ1GWZ22ZptQ6m5lGLTxQ1kvbOhuyjYWQwE8NCWtEWfZt+0xK+XvfPmP5/5R6CwAAAAAAWDtBDRZnn066fZxbZ+hY8zvV8mzz4sWLs1rG52RoeGAfmd657RdzyfKeer/J8s+VBJb/beotAAAAAABgzQQ1WKTSSTdGx/RUnaFdt6Q4VjoNx57fTCvTzLSnUOY5y4TpjBnWyDrL9HRQdyv10Nj7TdZhWf50U28BAAAAAABrJajBYqWT7pir2ufoDM20S0fisR3oc3QaZtpjdTyX5aujc15lnzh0e8s6y/9bZ8OkHhprv9mukyz/4dRbAAAAAADA2lzduXPn+ocffmiebjaPHz/evH79unkGy/Hhw4fNx48fvz5+9+7d5u3bt18fF6Xj+sGDByftgHv58uXX+YvdeSwyr5nPuHfv3slGNSjLtG15FtuBgMzzKed3rbLNPHv2rHn2U+lQrunb3sq2Zr2Np68uiu36KIQCxqPeYg2+/fbbzffff988u/H58+fN1dVV8wwAWIMcu96/f7959lN953pTWuMxxymX5ymsZR0mlO9cre7Ro0et5765CGFpbQ21Ou/c2DYBgGN8+vRpc/fu3ebZjVevXm2ePHnSPLshqAFwYscENQA4P4IaAHAZBDXmI6hxnnSG9xPUOA3bJgBwjKFBDbc+AQAAAAAAAACYiaAGAAAAAAAAAMBMBDUAAAAAAAAAAGYiqAEAAAAAF+L6+np15dK0LYNzLN98803ziViDrM+29XyOxbYJAMxBUAMAAAAAAAAAYCaCGsBqvXz5cnN1dbWYAgAAwOWoXV0OMMSbN29a65CnT582rwAA4FwJagAAAAAAAAAAzERQAwAAAAAAAABgJoIaAAAAAAAAAAAzEdQAAAAAAAAAAJiJoAawWk+fPt1cX18vpgAAAAAAAAAIagAAAAAAAAAAzERQAwAAAAAAAABgJoIaAAAAAAAAAAAzEdQAAAAAAAAAAJiJoAYAAAAAAAAAwEwENQAAAAAAAAAAZiKoAQAAAAAAAAAwE0ENgBN7+vTp5vr6urUAAAAAAAAA6yKoAQAAAAAAAAAwE0ENAAAAAAAAAICZCGoAAAAAAAAAAMxEUAMAAAAAAAAAYCaCGgAAAAAAAAAAMxHUAAAAAAAAAACYiaAGAAAAAAAAAMBMBDUAAAAAAAAAAGYiqAEAAAAAAAAAMBNBDQAAAAAAAACAmQhqAAAAAAAAAADM5OqL6y+ap5vNz3/+880vf/nL5hkAADCmv/3tb5t//OMfzbMbv/71r5tHAAAAAACcq3/961+bP//5z82zG7///e83f/jDH5pnN66+lB9TGgAAAAAAAAAAjOI3v/nN5k9/+lPz7IZbnwAAAAAAAAAAzERQAwAAAAAAAABgJldfXH/RPN1sfvazn21+8YtfNM8AAIAx/f3vf9/885//bJ7d+NWvftU8AgAAAADgXP373//e/OUvf2me3fjtb3+7+eMf/9g8u3F1586d6x9++KF5utk8fvx48/r16+YZAAAwpm+//Xbz/fffN89ufP78OQnq5hkAAAAAAOfo06dPm7t37zbPbrx69Wrz5MmT5tkNtz4BAAAAAAAAAJiJoAYAAAAAAAAAwEwENQAAAAAAAAAAZiKoAQAAAAAAAAAwE0ENAAAAAAAAAICZCGoAAAAAAAAAAMxEUAMAAAAAAAAAYCaCGgAAAAAAAAAAMxHUAAAAAAAAAACYiaAGAAAAAAAAAMBMBDUAAAAAAAAAAGYiqAEAAAAAAAAAMBNBDQAAAAAAAACAmQhqAAAAAAAAAADMRFADAAAAAAAAAGAmghoAAAAAAAAAADMR1AAAAAAAAAAAmImgBgAAAAAAAADATAQ1AAAAAAAAAABmIqgBAAAAAAAAADATQQ0AAAAAAAAAgJkIagAAAAAAAAAAzERQAwAAAAAAAABgJoIaAAAAABfi6uqqtZzChw8fWuclhf20LcOULGOAfTx69Ki1Pnn58mXzCpakbV2lqP+P07UfWK4AjElQAwAAAAAGSAdNSjosuzpxUvK3UnRuAgAAsEtQAwAAAAA6lGBGAhj379//Wp49e7Z5+/Zt84rb8rdS8toS3hDaAAAAIAQ1AAAAAKBFghUlmHGs3dAGcN5KgOtcinoHAGBZBDUAAAAAYEtG0UjH5hgBjTYJbWT6RtgA4NxtB4KWWvK9DgBLI6gBAAAAAI1cdZ5RNOaQIIir3AHOT1sYIAUAYChBDQAAAAD4IqGJjHbR58WLF5v3799/LdfX17dKfp/XPHz4sPmPbnk/YQ0AAIDLIqgBAAAAwMUbEtIowYynT59uvvnmm6+lTX6f17x58+br6/tCG8Iaw5Xb0qy5nGJbyG142ubl3Ir9CACAcyGoAQAAAMBFSyd1LaSRoEUCF13BjD4ltJHpdBHWgPOS/bqMonMOJXUQAADLIagBsEC7VwhprAMAAJhGzr+ePXvWPLsto2ikQ3YMmU6m1yVhjcwPAJyLtmDQvqXruzGjUbW9ft9yaNASAKYkqAGwMGmUu3//fvPsRhrrEtgAAAAuxxS3eOjS9tpjSkaoOBcfP35sHt2WjqOxO3cyvVpY4/nz580jAAAA1kpQA2BhdkMa24ysAQAAMK6u0TRym5KprsDNdLtug1K7BQsAAADrIKgBsCB9Q9xqsAMAABhP7RxsrNuddMn0M6R7m3MakWRuCbm0DWu/pvLmzZvm084n22PbvCy11EalWZK2EYeOvQgn/982XbdNAgA4L4IaAAAAAFykrtuedI12MbYHDx40j37q3bt3zSMAAADWSFADAAAAgIvUFYi4d+9e82hac70PsBxGSwUAIAQ1ABak7/7Hc13VBQAAnN453+Jh6tuGrJ2OXAAuSdcIV74PAVgzQQ2AhandZ9XVVgAAADDMhw8fNldXV7fKo0ePmleM7xTvCdF38Q8AAMsiqAGwMDmxTljj4cOHzW9uRtLI75x0AwAATK/ryl441IMHD5pHXJLttp2xGGGANXr27Fnz6LaXL182jwBgXQQ1ABYogYw3b978ZNhgIQ0AAIBxdXWev3v3rnk0ra5AyBSdu/xIRzfAcmQkopq5vpMBYG6CGgAAAACwZa6O/K4riI2+MI5TXPBgNBaAcQnXAbBWghoAAAAAK5XhwlMePXr0tVxdXXWW/L28vu/q1rXI6IVdsjymVBvK/d69e80jYI0upY5dq9r6s273NyTgVvvOBIBzJagBAAAAsCIlmJHwRUZsSMnVqH1XpObv5fX379//+v+XENrous1IlsdUnz3T7RpNI/Pj1pfAPtwuiXPW9X24bchrAODcCGoAAAAAnLl0/G+HM8YaJnw7tLHWwMabN2+aR7fls4/9uTO9TLfLd9991zxiTYyScpncxmid3OJoPPuMlGFUDQDWRlADAAAA4IwloJGO/7HCGV3yHnmvNQY2Xrx40Ty6rXzuMaSTqRbSyHwYTQPostbA3JoIcexnn5EyjKoBwNoIagAAAACcoXTYJUAwdUBjW94rQYO1dRY+ffq0euuAfO4s60Ov5s3yKqOddMn7Zz6Yx1Tb8Lt375pH5yXbdrbRcym1wBNM7Vz386U5pB4eKzgJAEsgqAEAAABwZtK5kY7KISGNBAAyUsP79+8319fXrSV/S6mNLLFtjWGN3AKlL6yRoEU6iUtoo2sZ5PcppfO7r1M571u7BQuHq61TOBWjLqyXUR+G6/puTL3dVXfnu3htxx8AXC5BDQAAAIAzM6TjP6GLhDASAMhIDbVbauRvKXldCW70hTYuMaxRlNBGlsH2Vf6l5PcpQzrs8n5CGgDnoy8kKUjQrzZC1Xfffbd58OBB8+y2vmMgADgXghows+2ranIFTluDTn5frs6pHbROobxnbd7Ka5Z20tE130uc13NR21bzu7I9HGvIPpG/j/Feh9iev655TCnzuZTtrW+elza/XTKP5bPUPsc5fBYAgDHk+KcmAYsSzjhUCW0ksFELLqyxsyTLLp97DmVdsX61oBQcq9apzbjS9sBx0nbTFWTMMUc5Bqkdf/QdCwHAWbhz5871lx//Vx4/fnwNp7a9TW6XFy9eNK8YV6bb9n4pY3n//n3r9IeWLwemk33+yPTb3ndIyWcbU9t7pHR9/iHznteci7G3x0OmV/uftnLo9rnv+6RMvS8UeY9j9ouUTGPs/aPPMfPdtVzz+7bXp0zpmOU/93KHffzud7+7tc1+/vy5+SsA1PWdW051HFQ7Nus6juxT+yxLcew5QVcZ+1yh7T1SHBd3r8O595Wlq533nVPJ8l+Srnpu7Hrz0Om16dqGx3yPczbke2HOZdX2/ilLrv9ry3B7vru291Km3N+75nHJyxWA5fjrX/966zvk1atXzV9/ZEQNmFgSwrni+9irjMqwqmOnhcsV6n1D9tXks2Uac1/JnvfL/B8z7/xU2V73vZ/mvtvnoe8T2+81xTaXKyPKvB27bWUa2T/muNqi7A/HzHf+9xT78q5zrpcAAKb2/Pnz5tFt79+/n+yq/dotQXIcuVb53NfX119Hvuj6/PvIdLKe+m5Fw/Q+fvzYPBrXseeRS5NtNvvAuZS1j1Az1XbLcEP28TV/Lx4r7TRdyzDfs9vfjXmcOqhLpqPdB4BzJqgBE0pn41KHgc1B7LEdobvm6pCOzH/eb20NIKc0xvaa9dHXOZ5tZIz9Iu+V6Yx1QrYd0BhbppnlO5Wy7sbaHzKtKee3y7nXSwAAc+g6VkpHxtQd/7lnfJexjsuXKsGK7dBGSjqUauGN/K28NuGM/K+AxvzcEoJLlro5JefFpeR8P2Xt9fYU9mlfsHxvyzKptQm2Ba36boEyZtsgAMxNUAMmkhOeMTsbx9R3UHyMqTuki9pVZOxv7O21a/3kfcYOQoyxLWefmPpqhyzfKfaNqeqaqea3yxrqJQCAqdU6iNKRMbXala2XdJV3lnUJbpTwRlvJ38prhTNgPVIX5yKDIaXrPDfnqW2v7ytdbRdd08v7p+TvpeR8f4p2hEvw7t275lE/bZe31dp9Emjsku9TYQ0A1khQAybQ13GaA8scfJYrarZLfleuzJnCkM7QctVP27yV+avJZ98nYb6vqTqmL1W2ibbluX3V13YZsn1mersd49kmutbbMe8Vc3TCl/2ibT7LvjFkuYx54jhkXxgy3/l7m0x7yn25WEO9BABwSkOOmae2T+cVXJol7KOwy21U9tfWBtO1f4/dBrSvtLO0hXdqZcr2tdq0swz7Ao3CGgCskaAGjKzWcZqDyXQo5sAyB59tB6D5XbkyJ52Q6Xwc64S+rzN0e/4yD7vKPOdveV1tvpLQn+LgONPsOinq6sTt68C9ZG3bRJZZll3XVV9l++zbBrZPSPMz28Suss763iuvGfpeY9rersp+0TafZd8oy6WmL5AwVF9Io8z7kPnO37vWZ9bblI3ubdvgtsxT5q18jl1DPkMxVb0EAHBqc97a4d69e80jALgcXRd/5Du4q+1RGOZGXxtW2nyGqN2CLYQ1ADg3ghowohwIdh10pvMwB51tnaU16XzM/x0bNhjSGbrP/OV1eX2tU3SsDultu8MGDunELcuQ23aXZ5blmNtAmX7btpD3altnXYa+11i2Qw77yHLJZ6s59qSxNjpJlP15n3kv67Nt3mvvdYy11EsAAAChgxDWq+silrS9dLW/uGCkP6TR14a2bUibW9p9aqN3AMCSCGrAiGop6b7Eb58c8OdA9NArpWqd2KVD+hB9naJj32pg+8B+305cbttentm+DlmWtW0n0287OZrqvcaQ7aqM8nGovhPHY8MCbaOTFGW/ONSQk96xrKVeAgC4JK4OZi3crodLkHPj7ZJz7ZSc9x/T7nFpui6Y2W57yHJtc8nfm0NCGvu2Dw5pt+pqjwSApRHUgBF1dZ7mQP2QTuldmcYhJ1G1q+9zQnHsiVmtM7XWobyv7Wllvo/pjOanjt1Gu05GY3fby7qb6r2O7YDPid5Y21XfZzz0ioraieZY+0XmfeqwxlrqJQCAOXXddmTO45uuzu05b7+yNjk32C45Vi4lx/8pV1dXX8uh5xGXzO16GFvOV3OBxzmUnBtvl8x7yjHtMpdoyHdf7Tv6EuvuvpDGMW2RQ9qt8t6+NwFYOkENGEntoO/UjQJdjXZjhh1qB8dTHBAfO0IJP3Vsp3j+P9vTEMduc7V5PeaKqGzDYzdU1EIlh6qFG8banyPLYor5L9ZYLwEAnNJcxze1Tpe1yTIdUraDFbulBC12AxfbJSPubZccK5eS5X1Jy3ytBJngfKUub6uHdy8yqbWjjH273iHSJtIW3qmVsdpj+kIau8vuEEPCGpHv1cwPACyRoAasXO1AdMywQ62De+wh/nIwP3aH+iUbclIzxJCGp7HeK9tAm0MbMLM9TbFN1UJah+wXc+3PxbEnzV3WWC8BAMyhdnyTjoipdR3HjdHhMqW2cMSQsh2eqJXtYMVuKUGLUo7lOBZgXqnL27S1g3W1A6X+T7Bv7fIZ8/1Z+77LMcNYgZAcFyVg0tVOWGR+Ml8J3QDAkghqwAxO2ZDSdWA8RdihKzXedUJzqDFHDaDe2LuPISPHjPVe53I1Uu3zHjL6x5z7czH3qCDnWi8BAMylFn6e8orRTLvrOG7px+d9HTicj9IJuE9JmKZN6bgbs3S9V84/2l5fK1Puz8Aw+wYU06bR1Q7RVT+sRernvs+Y5TZFu26mOeS7PnXxJQRmADgfghqwYrWU8BRX39c66sc6CNbANq4xO+H7OtjHfK85trWxjLXN1vbnKRvGx74yco31EgDAnHLc3XWMmY7ndCqNfZxTC2lkXpY8mgYA+0mn9+4tMVIura7Pd2nXd1+t/aK2nNYYwMpyyuc6VUijGBLWSNh1qgudAOAQghowg0OunB9D1/vmoHWKg9LaNMcaVeRcRlI4F0NGwRjLnO+1JGNts7V65JwaS9ZYLwEAzK3WQZROpXSWJCB7bGAj08iV/V0dVTFF2HZsSzuPzLHvbkmwfbekQ2m7XGJHKad3yGggSylwjK7gQersvvaL1Nlt8n26potGcpyQ5VQ7TogssylDGkXeo2vZD1lvADA3QQ0YSe1ALwerp0hMdx0kn3PYQaPUsuWkp8uYJ0Nr6HzvO4nd1fX62jIfSxqJx7LGegkAYG45Hu7qiCjSuZrOk3RWltBGKW3y+7wuJeev+b++28VlHs6h02NoaDzH1rWyG6RIye+77F6NXko6knZLznV3S5btdgFgHrV23NTZfVJn5zuiTb6b1xDWyGfoO06IfE8OWWZjybLPd+329/Pc8wAAQwlqwIhqDTRzhzVOdcDftQzGGFWktnw5jMa+83dOAYc11ksAAKeSY/m+sEZRQhulbF9xXkp+n9elDAkVn0tII0qnTV8poYmu0hamOIcRRQAYLoHFru/BrvBFm3xHdMl37rkbchxyyoBE3rfM36nmAQD6CGrAiPoaaEpYY47OytqoArUThakMaehjvS4lZJN9e/sqxJQhVxf0yfS6nNMtZdRLAADjKp0kcx5v573OKaTBugwN3ayh6Fhcl7QXtIXkzqnU2ibWIuupqx0n33/7tl3UggxzXtA3lVpYI78/dT1WvjMAYKkENWBEOfjrayBLx2BS0zkYn/IEZ41Xirs1AkvQFsYojRa7VyHOEQQ4pwZyI1gAAIwvx4PbV41OJee6uZI473VOx6AAMETae2ojXRwSOsj3Zdf3c9qM1hLW2G0Pz2d2rAAA/QQ1YGQ5aO8La0QOxtOZO3Vgo812Gn7sMkfHNMxlO5BRtvFThDEuIeCwXY+MXdRLAMAlSIdIrhpN58g+Q7P32Q5onGIUNGAe2b+3R/QYq3R1UqduaXv9mAWG6gtpHBOGbAsyFGmvWENYo7SH53gh+56QBgAMI6gBExga1ogckKfDN52JazgwhzVIOCP75HYgY4mG1jMAAFyOdI6UDtcS2kgZcuyY15SOlvxvpiGgAcDaPX/+vHl0W74Xjw0e1NqK1xTWcLwAAPsR1ICJ5OA0jVv7yIF5CWwkyQ3Mq4yckXAGAACcuxLaSMk5au0K8xLKKB0troadT85Bji0A7C/tr2kL6rpAJ+GKfC+O4bvvvmse3baWsAYAsB9BDZhQGrfS2NWVmO6Sg/MMtyewAfPoOzEfIvt5SrlisVyBuG9gCwAAAFiXhN/SRnAOZd92zHNVbndSawsaK6QR2QZqt1ApYQ1twQBwOQQ1YAY5qM+B+KGBjdyGAZjGkBPzbW1hjJTtqw9dgQgAAACwTKUtqKYWqjjUkLBG5ktYAwAug6AGzCQH4unEPSSZntswjDX8Xd67dCzPXWCJ+k7MSzCjbMfCGONTLwEAAABzyAVxQ0IaU7X59IU1IvO31gv32m7flSKcAsAlEtSAEyiBjXT+Dg1tlOHvgPH07VPZR0swAwAAAIDzlXagXBBXk7baqS/MyfT72oTLhXsCDACwXoIacELp/E0ncFLUQwIbY4Q1ht7eAS5BbX/Ifrn0gMZa9mf1EgAAS9J2pW/KVJ1lu6O+HVIA6Jb6O22qfe0PaZ9NW+0c8j597cGZ3+fPnzfPAIC1EdSABUiKemhgIwfoQxqHHjx40DwC2tRCTxlJY+qrJy6RegkAAACYW8IOSwppFKU9uMsp5gkAmI+gBixICWz0hTWOTVIbMg+6R3HI/re0kTRqAYc59ud37941j6ajXgIAAACm0NfeespARNqD28IaQhoAsH6CGixSX1BhbHN0Qu6j7+ShLwEe9+7dax7d9vHjx+YRsGvsUR+WVr8cYkidM4R6CQAAADiFrvbWJQQidsMaQhqnl+XfdqsxI/ACMCZBDc7KGjo8h+oLa7x8+bJ51M5BI3Q7t9Eb1hJwUC8BAABwidIOcXV1dRZlrIs1lmi3vTXhiKUEIkpYI/P33XffNb8FANZMUINF6rqifaoThaWegBx7ZX9X0OPZs2fNI7hMtXBDLRRxiDHql1rAYer9+dGjR82jcaiXAAAAgFMpYY2EIpZ2QUnmJ/PnQhcAuAyCGpydsa+E7xuZ4pSO7TCuBT2W/LlhLcbcz168eNE8um3K/XnsIJt6CQBgHjl3bitdyt9zTDa0JNTbV3J1dn6uVTrT2oZGTwFgmYQhAIAlENRgkeYc5n/NV3E/ffq0eXSbq9dhemPerqlWL061P0/RoK5eAgDotzsM/SHl/v37raVL+XuOyYaWhHr7SpSfAAAAwA1BDRaplmhOY9BYcgXQuRo62kbtKvw1X9UENXOEwVK/jNkg3Xelx9j1Wa6mnKpBXb0EAFDXdbs4uBRt4SPlxzL0/C+va/v/OUtXQCznm22vn7sAAMCpCGqwWLWOvNpwrUNlGmOHPsaYr7HVOqRzUjzlPC91mUDNGPXC2PVLUasX835j7m/Pnz9vHo1PvQQAUFe7XRy0abv1Soqh/WHZEsxr23eXWGojZAIAsD9BDRar1pGXNP6xHW21IV8PlWkOvaphiFpH6dDGlryu1rk7xrJsk6vip+iohjH07T/H7BP53ynql+hrFBlrf87+O9VoGqFeAgAAAAAALpmgBovV15F66NXe6fzbHVp/zGFl0wmY6R/byZj/7+oorXVwthnSuTtWwCTTydCRU3bywhimCArkf6YKaRTv379vHrU7JuSQ/2sLaexb5wyhXgIAmFbOc48pOQYcWnKM2la2r8QGAAAAfiSowaKlYadLOtzS8bZPh2Q669L5t91ZlwaosYeVzfTzPruBkKHKfHY5ZKjB2rKMYwMmpSPU1eqci9qoPbFv4KFtvy0N3GNKiC3Trcl8ZH720VY/Rl/dcQz1EgBAu5zzbYccDilv3rw5qmQehpYco7YVAAAAoJ2gBouWhp0hHZLpiEuHXFtnXn5X66xLA9RUSpgkHY2Zh5Q2mce++SwO7TTNsuz73xIw2V6etWWaks/WN8+wRNkn+kIUffVL3z4wVf2S6fbVjZmfvn25b/5TZ0zZwK5eAgAA2rSFj5QfSwJSQ+R1bf+v/FgAAOBUBDVYvO+++655VJcOudKZt13yu67OukNDD/tKR2PmIWV3/so81uazOLbTdEinaFGWZ22ZpuxefQ/nJI1WfYGHKPvD7r5Q2wemrl+GhDWiti/X5j/TnjKkUaiXAAAAAACASyOoweLt04m3j2NDD3Mba36nWp5tMlrBOS1jLtPQwMM+5qpfppj3yPxPNRpIG/USAAAAAABwSQQ1OAulE2+MDslMI0Mbjt1RN/TK/H2lU3Hs+c20Ms2+2z4cqszz0KE44dTGCjxMVb/UZN7HCjlk/ucKmexSLwEAAAAAAJdCUIOzkU68Yzok0wGZjroprxLPtEtH47GdvnN0KmbaWZ5jdIyW5asjlHNV6pdD9t056peaY0MO2/N/ipDGNvUSAAAAAACwdld37ty5/uGHH5qnm83jx483r1+/bp7Bcn348GHz8ePHr4/fvXu3efv27dfHRelsffDgwUk76F6+fPl1/mJ3HovMa+Yz7t27d7KO0rJM25ZnUZZrZJ5POb8wle365dmzZ19/bltK/dKlb1/ed/5Tj3Uth6nDKeol1ujbb7/dfP/9982zG58/f95cXV01zwDgMuRY7/79+82zn0rY9lTW+J18yuUJ1Ou7c5MLIlwMsRxd31mnGjG1z1q+Y+0HANR8+vRpc/fu3ebZjVevXm2ePHnSPLshqAEAVJ0yqAFrJKgBADcENeYjqAGnJajBVAQ1TsN+AEDN0KCGW58AAFVlVCAAAAAAAACOJ6gBAByk3LIJAAAAAACA4QQ1AICqt2/fNo8AAAAAAAA4lqAGANDp5cuXzaPb3IsTAIA1ur6+Xl0BTuubb75p3TfPsWgL4Bht29Q5FvsBAGMQ1AAAOr179655BAAAAAAAwBgENYCLkZEBrq6uFlPgHHTd9uThw4fNIwAAOEztCnMAoF/bd2hKvmMBgGUT1AAAWtVue/LgwYPmEQAAAAAAAPsQ1AAAWnXd9iSjabgXJwAAAAAAwGEENQCAWx49etR52xOjaQAAAAAAABxOUAMAzkgCFFP78OFDZ0gjjKYBAAAAAABwOEEN4GKkc/n6+noxBQ6RAMXV1dXXMMUUMt379+83z2578eJF8wgAAAAAAIBDCGoAwBlKmGLswEZG66iFNB4+fGg0DQAAAAAAgCMJagDAGSuBjZcvXza/2V/+N9Oo3e4kIY03b940zwAAAAAAADiUoAYArMCzZ8++hi1KaCMjbXSNtpHf5zUZQSOvz//WCGkAAAAAAACMR1ADAFYmwYuMtFFG29gt+X1eUxtBoxDSAAAAAAAAGJegBgDQ6sWLF0IaAAAAAAAAIxPUAIAz8v79+68BiillFI3r6+vN06dPm98AAAAAAAAwFkENADgj33zzzdcARQlsJFQxhkwn00tAwygaAAAAAAAA0xHUAIAzVAIbCVUkXFGCG0PCG/l7CWZshzOMoAEAAAAAADC9qzt37lz/8MMPzdPN5vHjx5vXr183zwAAgDF9++23m++//755duPz58+bq6ur5hkAAAAAAOfo06dPm7t37zbPbrx69Wrz5MmT5tkNI2oAAAAAAAAAAMxEUAMAAAAAAAAAYCaCGgAAAAAAAAAAMxHUAAAAAAAAAACYiaAGAAAAAAAAAMBMBDUAAAAAAAAAAGYiqAEAAAAAAAAAMBNBDQAAAAAAAACAmQhqAAAAAAAAAADMRFADAAAAAAAAAGAmV19cf9E83Wx+/vOfb375y182zwAAgDH97W9/2/zjH/9ont349a9/3TwCAAAAAOBc/etf/9r8+c9/bp7d+P3vf7/5wx/+0Dy7cfWl/JjSAAAAAAAAAABgFL/5zW82f/rTn5pnN9z6BAAAAAAAAABgJoIaAAAAAAAAAAAzufqP//iP68+fPzdPN5uf/exnm//8z/9sngEAAGP63//9380///nP5tmN//qv/2oeAQAAAABwzv7nf/6neXTj//2//7f57//+7+ZZbDb/H+1kAJN5qpenAAAAAElFTkSuQmCC;" parent="1" vertex="1">
                    <mxGeometry x="-909.69" y="-490" width="227.94" height="100" as="geometry"/>
                </mxCell>
                <mxCell id="A81RwFwUyYRlChPBO0ci-164" value="" style="edgeStyle=orthogonalEdgeStyle;fontSize=12;html=1;endArrow=ERzeroToMany;rounded=0;startArrow=ERmandOne;startFill=0;endFill=0;" parent="1" source="A81RwFwUyYRlChPBO0ci-155" target="A81RwFwUyYRlChPBO0ci-154" edge="1">
                    <mxGeometry width="100" height="100" relative="1" as="geometry">
                        <mxPoint x="-672" y="-430" as="sourcePoint"/>
                        <mxPoint x="-560" y="-290" as="targetPoint"/>
                        <Array as="points">
                            <mxPoint x="-620" y="-440"/>
                            <mxPoint x="-620" y="-440"/>
                        </Array>
                    </mxGeometry>
                </mxCell>
            </root>
        </mxGraphModel>
    </diagram>
</mxfile>